<?xml version="1.0" standalone="no"?>
<!DOCTYPE svg PUBLIC "-//W3C//DTD SVG 1.1//EN" "http://www.w3.org/Graphics/SVG/1.1/DTD/svg11.dtd" >
<svg xmlns="http://www.w3.org/2000/svg" xmlns:xlink="http://www.w3.org/1999/xlink" version="1.1">
<metadata>
Created by FontForge 20170731 at Fri Mar  6 09:07:45 2015
 By Aleksey,,,
Copyright (c) 2015 Dan Reynolds.
</metadata>
<defs>
<font id="Martel-Heavy" horiz-adv-x="0" >
  <font-face 
    font-family="Martel Heavy"
    font-weight="900"
    font-stretch="normal"
    units-per-em="1000"
    panose-1="0 0 10 0 0 0 0 0 0 0"
    ascent="800"
    descent="-200"
    x-height="546"
    cap-height="758"
    bbox="-1199 -562 1511 1125"
    underline-thickness="50"
    underline-position="-150"
    unicode-range="U+000D-FB02"
  />
<missing-glyph horiz-adv-x="586" 
 />
    <glyph glyph-name="fi" unicode="fi" horiz-adv-x="827" 
d="M730 823.5q26 -24.5 26 -67.5q0 -48 -35.5 -78.5t-83.5 -30.5q-42 0 -71 26t-29 66q0 30 17.5 55t45 39.5t56.5 14.5q48 0 74 -24.5zM414 842.5q32 -4.5 47 -11.5v-127q-19 10 -53.5 18.5t-55.5 8.5q-40 0 -52.5 -20t-12.5 -72v-93h147v-100h-147v-365l117 -15v-66h-369
v66l79 15v365h-89v51l89 39v51q0 64 33.5 124.5t89 98t119.5 37.5q26 0 58 -4.5zM739 550v-471l70 -13v-66h-308v66l65 14v304l-62 70v46l193 62z" />
    <glyph glyph-name="fl" unicode="fl" horiz-adv-x="821" 
d="M114 81v365h-89v51l89 39v51q0 64 33.5 124.5t89 98t119.5 37.5q26 0 58 -4.5t47 -11.5v-127q-19 10 -53.5 18.5t-55.5 8.5q-40 0 -52.5 -20t-12.5 -72v-93h147v-100h-147v-365l117 -15v-66h-369v66zM554 79v597l-66 28v68l210 24l29 -9v-706l85 -15v-66h-316v66z" />
    <glyph glyph-name="f_f" unicode="ff" horiz-adv-x="924" 
d="M114 81v365h-89v51l89 39v51q0 64 33.5 124.5t89 98t119.5 37.5q26 0 58 -4.5t47 -11.5v-127q-19 10 -53.5 18.5t-55.5 8.5q-40 0 -52.5 -20t-12.5 -72v-93h147v-100h-147v-365l117 -15v-66h-369v66zM576 81v365h-89v51l89 39v51q0 64 33.5 124.5t89 98t119.5 37.5
q26 0 58 -4.5t47 -11.5v-127q-19 10 -53.5 18.5t-55.5 8.5q-40 0 -52.5 -20t-12.5 -72v-93h147v-100h-147v-365l117 -15v-66h-369v66z" />
    <glyph glyph-name="f_f_i" unicode="ffi" horiz-adv-x="1289" 
d="M1192 823.5q26 -24.5 26 -67.5q0 -48 -35.5 -78.5t-83.5 -30.5q-42 0 -71 26t-29 66q0 30 17.5 55t45 39.5t56.5 14.5q48 0 74 -24.5zM414 842.5q32 -4.5 47 -11.5v-127q-19 10 -53.5 18.5t-55.5 8.5q-40 0 -52.5 -20t-12.5 -72v-93h147v-100h-147v-365l117 -15v-66h-369
v66l79 15v365h-89v51l89 39v51q0 64 33.5 124.5t89 98t119.5 37.5q26 0 58 -4.5zM876 842.5q32 -4.5 47 -11.5v-127q-19 10 -53.5 18.5t-55.5 8.5q-40 0 -52.5 -20t-12.5 -72v-93h147v-100h-147v-365l117 -15v-66h-369v66l79 15v365h-89v51l89 39v51q0 64 33.5 124.5t89 98
t119.5 37.5q26 0 58 -4.5zM1201 550v-471l70 -13v-66h-308v66l65 14v304l-62 70v46l193 62z" />
    <glyph glyph-name="f_f_l" unicode="ffl" horiz-adv-x="1283" 
d="M114 81v365h-89v51l89 39v51q0 64 33.5 124.5t89 98t119.5 37.5q26 0 58 -4.5t47 -11.5v-127q-19 10 -53.5 18.5t-55.5 8.5q-40 0 -52.5 -20t-12.5 -72v-93h147v-100h-147v-365l117 -15v-66h-369v66zM576 81v365h-89v51l89 39v51q0 64 33.5 124.5t89 98t119.5 37.5
q26 0 58 -4.5t47 -11.5v-127q-19 10 -53.5 18.5t-55.5 8.5q-40 0 -52.5 -20t-12.5 -72v-93h147v-100h-147v-365l117 -15v-66h-369v66zM1016 79v597l-66 28v68l210 24l29 -9v-706l85 -15v-66h-316v66z" />
    <glyph glyph-name=".notdef" horiz-adv-x="586" 
 />
    <glyph glyph-name=".null" 
 />
    <glyph glyph-name="nonmarkingreturn" unicode="&#xd;" 
 />
    <glyph glyph-name="space" unicode=" " horiz-adv-x="224" 
 />
    <glyph glyph-name="exclam" unicode="!" horiz-adv-x="397" 
d="M241 277h-89l-70 592h233zM278 160q27 -26 27 -69q0 -47 -35.5 -77t-82.5 -30q-41 0 -70.5 25.5t-29.5 65.5q0 28 17 53.5t44.5 41.5t55.5 16q47 0 74 -26z" />
    <glyph glyph-name="quotedbl" unicode="&#x22;" horiz-adv-x="616" 
d="M263 870l-41 -403h-96l-41 403h178zM531 870l-42 -403h-95l-41 403h178z" />
    <glyph glyph-name="numbersign" unicode="#" horiz-adv-x="727" 
d="M55 168v107h115l13 130h-115v105h121l19 152h120l-13 -152h119l13 152h128l-13 -152h110v-105h-122l-11 -130h114l1 -107h-125l-15 -168h-125l13 168h-114l-17 -168h-125l15 168h-106zM423 405h-114l-12 -130h115z" />
    <glyph glyph-name="dollar" unicode="$" horiz-adv-x="667" 
d="M135 229l46 -118q22 -30 54.5 -39.5t82.5 -9.5q54 0 85 28t31 80q0 61 -112 120q-98 52 -149 85.5t-82.5 77.5t-31.5 104q0 87 65.5 142t166.5 65l2 101h104l-2 -103q126 -13 163 -32v-162h-80l-46 103q-9 9 -43 16t-51 7q-49 0 -81 -20t-33 -60q0 -50 36 -85.5
t107 -74.5q98 -55 142.5 -84t71.5 -68.5t27 -95.5q0 -63 -34 -111t-92.5 -75t-130.5 -32l-5 -106h-109l4 108q-133 15 -179 41v198h73z" />
    <glyph glyph-name="percent" unicode="%" horiz-adv-x="1043" 
d="M391 -86h-117l353 950h117zM387 649.5q48 -47.5 48 -130.5q0 -55 -26.5 -96t-72 -63t-100.5 -22q-53 0 -94.5 23t-65 63.5t-23.5 89.5q0 54 27 96t72.5 64.5t99.5 22.5q87 0 135 -47.5zM193.5 594q-17.5 -33 -17.5 -76q0 -24 10 -50t27 -43t37 -17q29 0 45.5 29t16.5 78
q0 43 -19 77.5t-48 34.5q-34 0 -51.5 -33zM931 391.5q48 -47.5 48 -130.5q0 -55 -26.5 -96t-72 -63t-100.5 -22q-53 0 -94.5 23.5t-65 63.5t-23.5 89q0 55 27 96.5t72.5 64t99.5 22.5q87 0 135 -47.5zM741 337q-18 -32 -18 -77q0 -25 10.5 -51t27.5 -42.5t35 -16.5
q29 0 45.5 28.5t16.5 78.5q0 44 -19 78t-47 34q-33 0 -51 -32z" />
    <glyph glyph-name="ampersand" unicode="&#x26;" horiz-adv-x="777" 
d="M461 738q50 -20 79.5 -58t29.5 -88q0 -70 -49.5 -128t-124.5 -90q28 -37 85 -103t83 -92q3 15 3 46q0 46 -3.5 77.5t-14.5 57.5h153q18 -18 18 -86q0 -43 -18 -88.5t-50 -81.5q46 -29 90 -29v-69q-26 -15 -83 -15q-34 0 -71 8t-60 22q-72 -35 -169 -35q-143 0 -231 49
t-88 153q0 67 42.5 109t122.5 75q-42 53 -64.5 97.5t-22.5 89.5q0 60 32.5 105.5t85.5 69.5t114 24t111 -20zM297.5 671q-17.5 -20 -23.5 -54q-2 -16 -2 -23q0 -41 20.5 -78.5t59.5 -81.5q41 29 54 66.5t13 99.5q0 40 -18.5 65.5t-53.5 25.5q-32 0 -49.5 -20zM222 260.5
q-14 -22.5 -14 -46.5q0 -74 43.5 -111t119.5 -37q53 0 81 6q-38 33 -96 102.5t-99 125.5q-21 -17 -35 -39.5z" />
    <glyph glyph-name="quotesingle" unicode="'" horiz-adv-x="348" 
d="M263 870l-41 -403h-96l-41 403h178z" />
    <glyph glyph-name="parenleft" unicode="(" horiz-adv-x="494" 
d="M145.5 38q-67.5 135 -67.5 310q0 104 32.5 205.5t92 183t136.5 129.5l70 -55q-84 -62 -126 -187t-42 -272q0 -139 49.5 -269t132.5 -199l-74 -56q-136 75 -203.5 210z" />
    <glyph glyph-name="parenright" unicode=")" horiz-adv-x="494" 
d="M210 65q42 125 42 272q0 139 -49.5 269t-132.5 199l74 56q136 -75 203.5 -210t67.5 -310q0 -104 -32.5 -205.5t-92 -183t-136.5 -129.5l-70 55q84 62 126 187z" />
    <glyph glyph-name="asterisk" unicode="*" horiz-adv-x="605" 
d="M270 583l-44 -55l-117 -98l-73 99l151 82l63 11l-62 8l-154 70l73 111l119 -98l44 -50l-29 65l-11 150h136l-10 -150l-35 -65l47 56l118 90l85 -110l-167 -68l-63 -9l63 -12l165 -82l-85 -96l-116 96l-45 55l29 -62l14 -152h-136l11 152z" />
    <glyph glyph-name="plus" unicode="+" horiz-adv-x="645" 
d="M263 353l-75 -5h-104v125h104l75 -5l-5 92v103h128v-103l-5 -92l76 5h103v-125h-103l-76 5l5 -92v-94h-128v94z" />
    <glyph glyph-name="comma" unicode="," horiz-adv-x="389" 
d="M188 158q61 -22 94.5 -74.5t33.5 -121.5q-2 -90 -54.5 -157.5t-136.5 -95.5l-37 34v27q39 16 61.5 51t22.5 80q0 33 -25 61t-59 31v39z" />
    <glyph glyph-name="hyphen" unicode="-" horiz-adv-x="645" 
d="M555 468v-115h-466v115h466z" />
    <glyph glyph-name="period" unicode="." horiz-adv-x="392" 
d="M278 162q27 -26 27 -69q0 -46 -35.5 -76.5t-82.5 -30.5q-41 0 -70.5 25.5t-29.5 65.5q0 29 17.5 54.5t45 41t54.5 15.5q47 0 74 -26z" />
    <glyph glyph-name="slash" unicode="/" horiz-adv-x="404" 
d="M389 781l-251 -958h-123l251 958h123z" />
    <glyph glyph-name="zero" unicode="0" horiz-adv-x="686" 
d="M565 530.5q71 -80.5 71 -226.5q-1 -87 -40.5 -159.5t-107 -114.5t-148.5 -42q-89 0 -154.5 40.5t-99.5 111t-34 159.5t40.5 160t110.5 111.5t155 40.5q136 0 207 -80.5zM259.5 480q-18.5 -57 -18.5 -162q0 -55 13 -114.5t38 -100t59 -40.5q59 -3 77 58t18 177
q0 100 -27.5 169.5t-85.5 69.5q-55 0 -73.5 -57z" />
    <glyph glyph-name="one" unicode="1" horiz-adv-x="486" 
d="M183 91v354l-136 -15l-17 79q42 12 135 52t116 58l71 -9l-3 -519l116 -20v-71h-410v71z" />
    <glyph glyph-name="two" unicode="2" horiz-adv-x="616" 
d="M190.5 167.5q71.5 59.5 117.5 122.5t46 115q0 47 -28.5 77t-75.5 30q-48 0 -86 -17t-83 -53l-42 63q20 32 65 57.5t99.5 40t100.5 14.5q62 0 115 -21.5t84 -61t31 -90.5q0 -71 -41.5 -129.5t-102 -105t-174.5 -121.5l257 35l45 57l71 -21l-34 -159h-487l-25 63
q76 45 147.5 104.5z" />
    <glyph glyph-name="three" unicode="3" horiz-adv-x="544" 
d="M401 577q57 -43 57 -122q0 -36 -21.5 -73.5t-56.5 -66t-72 -40.5q88 -2 143 -50.5t55 -126.5t-48 -137t-126.5 -91t-168.5 -32q-53 0 -107 10l-1 87q40 -10 81 -10q56 0 102 20t73 58.5t27 89.5q0 119 -118 133l-40 -8l-65 -14v90q44 3 85.5 23.5t68 55t26.5 74.5
q0 35 -24 55.5t-57 20.5q-45 0 -72.5 -10t-78.5 -39l-42 62q45 40 107 62t126 22q90 0 147 -43z" />
    <glyph glyph-name="four" unicode="4" horiz-adv-x="639" 
d="M219.5 374q69.5 123 126.5 248h48l112 -75l-298 -425l-35 -42l219 23l7 185l135 16v-186l88 9v-127h-88v-184h-154l8 184h-327l-24 63q113 188 182.5 311z" />
    <glyph glyph-name="five" unicode="5" horiz-adv-x="556" 
d="M92 -91q108 0 176 52t68 150q0 72 -35.5 108t-99.5 36q-29 0 -74 -10l-64 19l30 340h325l14 18h63l-41 -147h-248l-32 -146q52 16 105 16q66 0 119.5 -25.5t84.5 -74t31 -114.5q0 -93 -56 -161.5t-148 -104.5t-197 -36q-40 0 -60 6v76q26 -2 39 -2z" />
    <glyph glyph-name="six" unicode="6" horiz-adv-x="658" 
d="M541 685q-82 -20 -154.5 -78.5t-116.5 -139t-44 -163.5q0 -114 24.5 -179t90.5 -65q52 0 78 48.5t26 122.5q0 34 -13.5 66t-38.5 52t-56 20q-35 0 -61 -14l-23 46q17 31 63.5 51.5t91.5 20.5q95 0 148 -58.5t53 -155.5q0 -81 -36.5 -142.5t-101.5 -95t-148 -33.5
q-78 0 -138.5 36.5t-94.5 100.5t-34 144q0 118 61.5 222.5t164 175t220.5 90.5z" />
    <glyph glyph-name="seven" unicode="7" horiz-adv-x="602" 
d="M284.5 198q81.5 168 154.5 332l-242 -13l-37 -112l-102 2l18 205h470l29 -31l-279 -745l-168 59q75 135 156.5 303z" />
    <glyph glyph-name="eight" unicode="8" horiz-adv-x="633" 
d="M489 718.5q66 -46.5 66 -131.5q0 -33 -19 -69.5t-49.5 -65t-60.5 -39.5q80 -54 122 -102.5t42 -107.5q0 -69 -36 -117.5t-96 -73t-133 -24.5q-120 0 -198.5 49.5t-78.5 144.5q0 66 45 121t115 79q-61 44 -93.5 90t-32.5 101q0 60 33 103.5t88 66t119 22.5
q101 0 167 -46.5zM252 672.5q-26 -23.5 -26 -60.5q0 -41 35 -76.5t102 -80.5q27 19 40.5 49.5t13.5 68.5q0 52 -29.5 87.5t-73.5 35.5q-36 0 -62 -23.5zM219 285q-19 -30 -19 -62q0 -69 37.5 -116t95.5 -47q46 0 73 29t27 77q0 32 -21.5 61t-53.5 52.5t-88 59.5
q-32 -24 -51 -54z" />
    <glyph glyph-name="nine" unicode="9" horiz-adv-x="650" 
d="M280 -41q67 68 107 160t40 178q0 113 -24.5 178.5t-89.5 65.5q-52 0 -78.5 -49t-26.5 -123q0 -34 14 -65.5t38.5 -51.5t55.5 -20q37 0 61 14l23 -47q-19 -36 -61 -53.5t-94 -17.5q-95 0 -148 59t-53 154q0 81 36 142.5t101 95t149 33.5q80 0 141 -36.5t94 -100.5t33 -143
q0 -120 -58 -236t-155.5 -196t-209.5 -100l-38 73q76 18 143 86z" />
    <glyph glyph-name="colon" unicode=":" horiz-adv-x="392" 
d="M278.5 518.5q26.5 -25.5 26.5 -68.5q0 -46 -35.5 -76.5t-82.5 -30.5q-41 0 -70.5 25.5t-29.5 65.5q0 28 17 53.5t44 41t56 15.5q48 0 74.5 -25.5zM278 158q27 -26 27 -69q0 -47 -35.5 -77t-82.5 -30q-41 0 -70.5 25.5t-29.5 65.5q0 28 17 53.5t44.5 41.5t55.5 16
q47 0 74 -26z" />
    <glyph glyph-name="semicolon" unicode=";" horiz-adv-x="404" 
d="M278.5 519q26.5 -25 26.5 -69q0 -47 -35.5 -77t-82.5 -30q-41 0 -70 25.5t-29 65.5q0 29 17 54.5t44 40.5t55 15q48 0 74.5 -25zM296.5 84.5q34.5 -52.5 34.5 -117.5q0 -91 -53 -161t-137 -97l-38 34v27q39 16 61.5 51t22.5 80q0 33 -25 61t-58 31v39l99 126
q59 -21 93.5 -73.5z" />
    <glyph glyph-name="less" unicode="&#x3c;" horiz-adv-x="652" 
d="M563 654v-143l-291 -136l291 -121v-148l-474 237v66z" />
    <glyph glyph-name="equal" unicode="=" horiz-adv-x="645" 
d="M555 591v-113h-466v113h466zM555 323v-113h-466v113h466z" />
    <glyph glyph-name="greater" unicode="&#x3e;" horiz-adv-x="652" 
d="M380 377l-291 121v148l474 -237v-66l-474 -245v143z" />
    <glyph glyph-name="question" unicode="?" horiz-adv-x="519" 
d="M317 869q70 -35 109 -97t39 -145q0 -55 -13.5 -81t-51.5 -43l-42 -19q-61 -28 -84 -43t-23 -35q0 -27 13.5 -62.5t34.5 -78.5h-122q-34 32 -57.5 74t-23.5 78q0 29 26.5 50.5t62 35t91.5 29.5q46 14 54 17q18 8 27.5 14t9.5 13q0 45 -27 89t-82.5 73.5t-136.5 29.5
q-58 0 -80 -17l-8 133q10 12 49 18.5t73 6.5q92 -5 162 -40zM354 160q27 -26 27 -69q0 -46 -36 -76.5t-82 -30.5q-41 0 -70 25.5t-29 65.5q0 29 17 55t44.5 41t54.5 15q47 0 74 -26z" />
    <glyph glyph-name="at" unicode="@" horiz-adv-x="1114" 
d="M848 679.5q95 -34.5 150 -105.5t55 -175q0 -96 -40.5 -182t-111 -140t-155.5 -59q-48 -3 -67.5 22t-19.5 80q0 18 7 74q-36 -77 -87 -129.5t-109 -52.5q-42 0 -78.5 24.5t-58.5 65.5t-22 86q0 88 35 164t94.5 121t128.5 45q31 0 54.5 -5.5t58.5 -19.5q13 31 30 26
q50 -15 116 -37l-12 -70q-16 -95 -22 -142.5t-6 -93.5q0 -24 2.5 -47.5t8.5 -23.5q24 0 54.5 38t52 97t21.5 116q0 145 -89.5 212.5t-250.5 67.5q-97 0 -183.5 -56t-139 -147.5t-52.5 -192.5q0 -170 90 -257.5t259 -87.5q42 0 111 13t88 27l32 -63q-37 -27 -101.5 -42
t-148.5 -15q-137 0 -244.5 42.5t-168.5 126t-61 202.5q0 144 79.5 265t209.5 192t275 71q121 0 216 -34.5zM482 371q-29 -50 -29 -126q0 -49 11 -86.5t36 -37.5q18 0 52 48t62.5 114.5t34.5 118.5q-12 7 -40.5 13t-41.5 6q-56 0 -85 -50z" />
    <glyph glyph-name="A" unicode="A" horiz-adv-x="781" 
d="M67 88l241 670h163l234 -671l74 -20v-67h-334v67l65 22l-21 75h-264l-22 -73l73 -23v-68h-274v68zM398 478l-36 134l-109 -358h210z" />
    <glyph glyph-name="B" unicode="B" horiz-adv-x="711" 
d="M115 89v578l-74 11v80h152q27 0 93 4q18 1 38.5 2t39.5 1q127 0 200 -43t73 -138q0 -66 -34 -112.5t-94 -62.5q49 0 90.5 -25.5t65.5 -67.5t24 -89q0 -129 -89 -180.5t-258 -51.5q-28 0 -84 2q-46 3 -109 3h-110v68zM351 427q68 0 94 35.5t26 109.5q0 61 -32.5 89.5
t-98.5 28.5q-28 0 -51 -7l-1 -252q20 -4 63 -4zM326 70.5q27 -3.5 61 -3.5q59 0 89.5 43t30.5 109q0 60 -36.5 97.5t-90.5 37.5q-62 0 -93 -6v-268q12 -6 39 -9.5z" />
    <glyph glyph-name="C" unicode="C" horiz-adv-x="720" 
d="M650 739l20 -5l-10 -190h-102l-36 100q-7 12 -28.5 21.5t-76.5 9.5q-61 0 -104 -37t-65 -100t-22 -140q0 -84 23.5 -159.5t69 -122t109.5 -46.5q45 0 76 8.5t41 30.5l40 98h85v-174q-7 0 -46 -11q-53 -16 -100.5 -26t-107.5 -10q-114 0 -201 45t-134.5 128.5t-47.5 194.5
q0 115 57 209t155.5 148t217.5 54q86 0 187 -26z" />
    <glyph glyph-name="D" unicode="D" horiz-adv-x="789" 
d="M115 88v580l-69 10v80h160q22 0 41 1t34 2q62 4 96 4q186 0 283 -93t97 -271q0 -123 -48.5 -214.5t-137 -141.5t-207.5 -50q-26 0 -76 2q-39 3 -79 3h-165v68zM365 71q26 0 40 2q54 4 92 47t57.5 108t19.5 137q0 322 -208 322q-51 0 -76 -14v-586q25 -16 75 -16z" />
    <glyph glyph-name="E" unicode="E" horiz-adv-x="696" 
d="M121 87v580l-69 11v80h554l15 -167h-100l-46 78l-181 11v-254l125 5l27 73h88v-238h-88l-27 77l-125 3v-268l215 14l62 96l101 -18l-26 -170h-597v68z" />
    <glyph glyph-name="F" unicode="F" horiz-adv-x="646" 
d="M115 84v584l-76 10v80h560l15 -170l-86 -1l-35 75l-205 11v-256l141 6l32 75h73v-249h-81l-22 80l-142 2v-240l156 -13v-78h-403v68z" />
    <glyph glyph-name="G" unicode="G" horiz-adv-x="774" 
d="M571.5 757.5q73.5 -7.5 113.5 -19.5l-11 -167h-88l-45 88q-9 10 -39 19.5t-76 9.5q-67 0 -113.5 -39t-69.5 -103.5t-23 -141.5q0 -146 46 -243t146 -97q42 0 82 18t44 44v125l-103 14v81h302v-81l-46 -12v-227q-16 2 -24 2q-24 0 -52 -5t-72 -14q-55 -11 -91.5 -17
t-70.5 -6q-103 0 -182.5 49.5t-123 135.5t-43.5 194q0 122 50.5 212.5t142 139t211.5 48.5q62 0 135.5 -7.5z" />
    <glyph glyph-name="H" unicode="H" horiz-adv-x="869" 
d="M115 89v578l-86 11v80h345v-80l-84 -11v-236h290v238l-82 9v80h342v-80l-86 -10v-580l91 -21v-67h-354v67l89 21v249h-290v-248l89 -21v-68h-347v68z" />
    <glyph glyph-name="I" unicode="I" horiz-adv-x="414" 
d="M119 88v579l-92 11v80h355v-80l-87 -12v-577l92 -21v-68h-360v68z" />
    <glyph glyph-name="J" unicode="J" horiz-adv-x="384" 
d="M359 678l-69 -11v-406q0 -91 -7 -166.5t-23 -114.5q-21 -51 -69 -90.5t-105.5 -61t-106.5 -21.5l-34 49q54 20 89.5 48.5t54.5 72.5q16 45 20 94t4 127v469l-72 11v80h318v-80z" />
    <glyph glyph-name="K" unicode="K" horiz-adv-x="750" 
d="M115 89v577l-94 12v80h354v-80l-87 -12v-277l224 278l-77 11l-2 80h302v-80l-91 -12l-210 -232q30 -27 62.5 -73t82.5 -125q46 -73 70.5 -108t41.5 -42l63 -18v-68h-206q-20 1 -40.5 35.5t-55.5 110.5q-31 70 -56.5 116.5t-52.5 71.5l-55 -62v-183l98 -21v-68h-364v68z
" />
    <glyph glyph-name="L" unicode="L" horiz-adv-x="631" 
d="M115 87v571l-67 10v90h331v-90l-89 -11v-577l176 19l81 115l75 -27l-34 -187h-543v68z" />
    <glyph glyph-name="M" unicode="M" horiz-adv-x="1006" 
d="M114 89l34 567l-90 11v91h332l117 -388l16 -99l21 99l110 388h306v-91l-91 -11l50 -568l77 -21v-67h-324v67l81 22l-27 374l-2 199l-17 -68l-173 -603h-64l-161 484l-59 183l-1 -136l-15 -432l90 -22v-68h-294v68z" />
    <glyph glyph-name="N" unicode="N" horiz-adv-x="833" 
d="M805 669l-67 -11v-658h-192l-266 448l-53 132l1 -488l99 -24v-68h-289v68l77 22v567l-73 11v90h248l294 -511l43 -116v524l-88 14v89h266v-89z" />
    <glyph glyph-name="O" unicode="O" horiz-adv-x="781" 
d="M584 717q79 -48 122.5 -132t43.5 -190q0 -117 -44.5 -210t-126 -146t-188.5 -53q-105 0 -186.5 48t-126 133t-44.5 192q0 105 41.5 193t115.5 143q92 70 210 70q104 0 183 -48zM262 602q-36 -83 -36 -233q0 -75 20 -145t58.5 -115t92.5 -45q66 0 101.5 40t48 108.5
t12.5 172.5q0 88 -21 156t-58 106t-84 38q-98 0 -134 -83z" />
    <glyph glyph-name="P" unicode="P" horiz-adv-x="668" 
d="M115 89v568l-84 17v84h175q23 0 41 1t31 2q58 4 95 4q144 0 219 -51.5t75 -170.5q0 -78 -38 -134t-104.5 -85.5t-151.5 -29.5q-58 0 -86 1v-206l119 -21v-68h-377v68zM369 377q65 0 96 47.5t31 127.5q0 64 -40 99t-104 35q-20 0 -39.5 -2.5t-25.5 -4.5v-297q23 -5 82 -5z
" />
    <glyph glyph-name="Q" unicode="Q" horiz-adv-x="781" 
d="M584.5 716.5q79.5 -48.5 122.5 -132.5t43 -189q0 -150 -70.5 -257.5t-197.5 -139.5q29 -62 115 -62q57 0 129 24v-107q-23 -23 -62.5 -33.5t-81.5 -10.5q-146 0 -182 177h-9q-105 0 -186.5 48t-126 133t-44.5 192q0 116 50 211t141 147q79 48 176 48q104 0 183.5 -48.5z
M261.5 601.5q-35.5 -83.5 -35.5 -232.5q0 -75 19.5 -145t58.5 -115t93 -45q67 0 102.5 40.5t47.5 109t12 171.5q0 75 -18 144t-55 112.5t-90 43.5q-99 0 -134.5 -83.5z" />
    <glyph glyph-name="R" unicode="R" horiz-adv-x="745" 
d="M585 717q81 -48 81 -150q0 -87 -40.5 -144t-124.5 -86q19 -12 26 -19q22 -21 42.5 -52.5t46.5 -77.5q29 -49 44.5 -72t30.5 -30l63 -18v-68h-206q-22 0 -42 36.5t-48 109.5q-34 85 -58 127t-53 42l-59 -1v-227l93 -19v-68h-351v68l85 21v573l-76 12v84h110q46 0 128 4
q52 3 94 3q133 0 214 -48zM311 684q-17 -1 -23 -5v-284q30 -4 50 -4q84 0 122.5 36.5t38.5 121.5q0 63 -41 99.5t-111 36.5q-19 0 -36 -1z" />
    <glyph glyph-name="S" unicode="S" horiz-adv-x="643" 
d="M182.5 -1.5q-77.5 12.5 -115.5 32.5v198h73l46 -118q22 -30 54.5 -39.5t82.5 -9.5q53 0 84.5 28t31.5 80q0 61 -112 120q-99 53 -149.5 85.5t-82 76.5t-31.5 105q0 62 36 109.5t96.5 73t129.5 25.5q53 0 130 -10t107 -25v-162h-81l-45 103q-12 10 -42.5 16.5t-51.5 6.5
q-49 0 -81.5 -20.5t-32.5 -59.5t23 -69.5t62.5 -56t113.5 -64.5q89 -46 137 -97t48 -121q0 -69 -39 -119t-105 -75.5t-147 -25.5q-62 0 -139.5 12.5z" />
    <glyph glyph-name="T" unicode="T" horiz-adv-x="711" 
d="M279 87v589l-134 -13l-34 -105l-88 -4l12 204h653v-198l-69 -9l-38 112l-129 13v-588l110 -20v-68h-395v68z" />
    <glyph glyph-name="U" unicode="U" horiz-adv-x="787" 
d="M773 678l-70 -12v-340q0 -164 -70.5 -252t-215.5 -88q-163 0 -242.5 77.5t-79.5 235.5q0 122 2 368l-77 11v80h333v-80l-83 -11v-369q0 -112 39 -168.5t129 -56.5q86 0 121 66.5t35 185.5l-2 341l-82 12v80h263v-80z" />
    <glyph glyph-name="V" unicode="V" horiz-adv-x="729" 
d="M6 678v80h326v-78l-80 -13l106 -368l31 -131l30 128l100 371l-76 11v80h280v-80l-59 -9l-221 -676h-134l-245 676z" />
    <glyph glyph-name="W" unicode="W" horiz-adv-x="1114" 
d="M7 678v80h306v-79l-59 -11l115 -451q9 -51 16 -82l16 82l93 374l-19 77l-64 10v80h316v-79l-80 -12l100 -450l18 -84l20 84l109 451l-73 10v80h285v-80l-73 -10l-203 -676h-167l-112 394l-108 -393h-156l-219 675z" />
    <glyph glyph-name="X" unicode="X" horiz-adv-x="758" 
d="M98 89l200 276l-208 302l-78 11v80h345v-78l-71 -12l104 -192l119 192l-67 10v80h305v-80l-94 -11l-206 -267l220 -310l80 -23v-67h-343v67l70 19l-113 195l-114 -192l91 -22v-67h-326v67z" />
    <glyph glyph-name="Y" unicode="Y" horiz-adv-x="723" 
d="M288 90v160l-228 419l-54 9v80h308v-78l-52 -10l123 -259l14 -46l17 50l104 251l-78 12l-1 80h275v-80l-64 -18l-191 -395v-173l132 -24v-68h-423v68z" />
    <glyph glyph-name="Z" unicode="Z" horiz-adv-x="678" 
d="M655 684l-355 -523l-71 -81l272 23l97 130l73 -20l-54 -213h-572l-20 68l361 523l81 89l-280 -23l-62 -119l-75 14l21 206h561z" />
    <glyph glyph-name="bracketleft" unicode="[" horiz-adv-x="546" 
d="M161.5 850q35.5 31 117.5 31q32 0 67.5 -10t84.5 -28l-1 -60h-150v-797l150 -2l2 -61q-26 -15 -72 -25t-80 -10q-60 0 -93 15.5t-47 51t-14 99.5v684q0 81 35.5 112z" />
    <glyph glyph-name="backslash" unicode="\" horiz-adv-x="404" 
d="M389 -177h-123l-251 958h123z" />
    <glyph glyph-name="bracketright" unicode="]" horiz-adv-x="546" 
d="M263 783h-150l-1 60q49 18 84.5 28t67.5 10q82 0 117.5 -31t35.5 -112v-684q0 -64 -14 -99.5t-47 -51t-93 -15.5q-34 0 -80 10t-72 25l2 61l150 2v797z" />
    <glyph glyph-name="asciicircum" unicode="^" horiz-adv-x="733" 
d="M452 748l192 -473h-156l-129 321l-135 -321h-135l197 473h166z" />
    <glyph glyph-name="underscore" unicode="_" horiz-adv-x="694" 
d="M701 -208h-711v114h711v-114z" />
    <glyph glyph-name="grave" unicode="`" horiz-adv-x="432" 
d="M267.5 675q-45.5 24 -87 61t-66.5 73l124 95l154 -208l-43 -43q-36 -2 -81.5 22z" />
    <glyph glyph-name="a" unicode="a" horiz-adv-x="599" 
d="M477 514.5q55 -47.5 55 -153.5v-295h64v-52q-20 -14 -55.5 -21t-70.5 -7q-37 0 -61 14.5t-27 41.5q-59 -56 -142 -56q-92 0 -149 41.5t-57 115.5q0 66 46 111t120.5 67t158.5 22v6q-1 66 -23.5 93t-80.5 27q-42 0 -88.5 -12t-72.5 -30l-33 75q36 29 107.5 44.5
t139.5 15.5q114 0 169 -47.5zM251.5 242q-42.5 -26 -42.5 -78q0 -41 20.5 -62.5t60.5 -21.5q44 0 69 21v167q-65 0 -107.5 -26z" />
    <glyph glyph-name="b" unicode="b" horiz-adv-x="648" 
d="M12 704v68l206 23l28 -8v-256q53 31 128 31q113 0 175.5 -71.5t62.5 -195.5q0 -86 -40.5 -156.5t-111 -111.5t-156.5 -41q-64 0 -134 12.5t-97 28.5v649zM276.5 68q20.5 -11 45.5 -11q61 0 88.5 65.5t27.5 163.5q0 79 -35.5 135t-95.5 56q-36 0 -61 -10v-369
q10 -19 30.5 -30z" />
    <glyph glyph-name="c" unicode="c" horiz-adv-x="554" 
d="M448.5 555.5q49.5 -6.5 71.5 -18.5v-155h-89l-39 92q-20 12 -64 12q-57 0 -84.5 -56.5t-27.5 -141.5q0 -93 41 -149t118 -56q37 0 76 9t61 25l26 -61q-39 -34 -97.5 -52t-132.5 -18q-83 0 -144.5 34t-94 96t-32.5 144q0 90 40.5 158.5t113.5 106t166 37.5q42 0 91.5 -6.5
z" />
    <glyph glyph-name="d" unicode="d" horiz-adv-x="675" 
d="M585 783v-717h69v-52q-20 -11 -58 -19.5t-90 -8.5q-60 0 -81 35q-27 -19 -69.5 -27t-87.5 -8q-69 0 -122 37t-81.5 100.5t-28.5 140.5q0 86 43 154t115.5 106t159.5 38q33 0 58 -4v118l-108 28v68l249 24zM271 467.5q-28 -28.5 -41.5 -73.5t-13.5 -93q-2 -60 12 -114
t43.5 -88t73.5 -34q42 0 67 10v404q-26 17 -74 17q-39 0 -67 -28.5z" />
    <glyph glyph-name="e" unicode="e" horiz-adv-x="605" 
d="M504.5 506.5q58.5 -55.5 58.5 -161.5q0 -44 -7 -86h-340q7 -87 45 -131t110 -44q80 0 155 33l26 -61q-39 -33 -104.5 -51.5t-125.5 -18.5q-137 0 -211.5 71.5t-74.5 201.5q0 88 38 157t106 107.5t155 38.5q111 0 169.5 -55.5zM216 337h179q4 36 4 61q0 96 -79 96
q-91 0 -104 -157z" />
    <glyph glyph-name="f" unicode="f" horiz-adv-x="462" 
d="M114 81v365h-89v51l89 39v51q0 64 33.5 124.5t89 98t119.5 37.5q26 0 58 -4.5t47 -11.5v-127q-19 10 -53.5 18.5t-55.5 8.5q-40 0 -52.5 -20t-12.5 -72v-93h147v-100h-147v-365l117 -15v-66h-369v66z" />
    <glyph glyph-name="g" unicode="g" horiz-adv-x="623" 
d="M474 516q22 46 109 46h43v-118h-101q9 -27 9 -60q0 -97 -70 -146t-182 -49q-50 0 -86 7q-8 -19 -8 -35q0 -29 17.5 -42.5t52.5 -13.5h115q82 0 132.5 -13.5t76.5 -48t26 -97.5q0 -67 -45 -113.5t-118.5 -69t-160.5 -22.5q-114 0 -182 33.5t-68 110.5q0 42 22.5 76.5
t59.5 55.5q-32 13 -43 33.5t-11 58.5q0 25 20.5 56.5t45.5 52.5q-95 46 -95 150q0 63 36.5 107t97.5 65.5t135 21.5q112 0 172 -46zM224.5 469.5q-22.5 -24.5 -22.5 -64.5q0 -65 21 -101.5t71 -36.5q41 0 61 31.5t20 79.5q0 56 -23 86t-67 30q-38 0 -60.5 -24.5zM180 -67
q0 -57 38.5 -86t98.5 -29q69 0 101 18t32 71q0 54 -24 73.5t-86 19.5h-86q-42 0 -60 2q-14 -28 -14 -69z" />
    <glyph glyph-name="h" unicode="h" horiz-adv-x="696" 
d="M99 80v596l-66 28v68l211 24l28 -9v-240l-10 -50q72 65 181 65q69 0 104.5 -30.5t47 -85t10.5 -140.5v-226l67 -14v-66l-310 1v65l71 14v202q0 62 -5.5 97t-25 55.5t-60.5 20.5q-42 0 -70 -22v-354l48 -13v-66h-291v66z" />
    <glyph glyph-name="i" unicode="i" horiz-adv-x="365" 
d="M268 823.5q26 -24.5 26 -67.5q0 -48 -35.5 -78.5t-83.5 -30.5q-42 0 -71 26t-29 66q0 30 17.5 55t45 39.5t56.5 14.5q48 0 74 -24.5zM277 550v-471l70 -13v-66h-308v66l65 14v304l-62 70v46l193 62z" />
    <glyph glyph-name="j" unicode="j" horiz-adv-x="334" 
d="M248.5 823.5q26.5 -24.5 26.5 -67.5q0 -46 -35 -77.5t-84 -31.5q-42 0 -71 26t-29 66q0 30 17.5 55t45 39.5t56.5 14.5q47 0 73.5 -24.5zM267 549v-572q0 -109 -48 -175.5t-137 -66.5q-24 0 -57 6t-45 12v92q10 -2 27.5 -4t32.5 -2q25 0 37 20t14.5 51t2.5 87v387l-54 72
v43l187 63z" />
    <glyph glyph-name="k" unicode="k" horiz-adv-x="663" 
d="M99 81v579l-78 35v69l221 32l30 -13v-436l-6 -69l159 171l-90 10v87h312v-87l-99 -9l-118 -113l167 -260l50 -10v-67h-289v67l41 14l-82 153l-50 -57l4 -40v-58l58 -13v-66h-295v66z" />
    <glyph glyph-name="l" unicode="l" horiz-adv-x="359" 
d="M92 79v597l-66 28v68l210 24l29 -9v-706l85 -15v-66h-316v66z" />
    <glyph glyph-name="m" unicode="m" horiz-adv-x="1059" 
d="M108 79v321l-66 47v61l182 54l36 -9v-73q32 35 82 58.5t96 24.5q129 7 166 -77q38 37 84.5 56.5t96.5 19.5q96 0 139.5 -60.5t43.5 -172.5v-249l68 -14v-66h-298v66l57 14v227q0 56 -7.5 86t-29 44t-64.5 14q-16 0 -35.5 -7t-35.5 -18q5 -27 5 -82v-264l69 -14v-66h-311
v66l69 15v230q0 73 -19 106.5t-70 33.5q-26 0 -50 -7t-35 -18v-346l64 -14v-66h-297v66z" />
    <glyph glyph-name="n" unicode="n" horiz-adv-x="716" 
d="M108 79v321l-66 47v61l181 54l37 -9v-73q38 38 94.5 60t109.5 22q89 0 125 -55t36 -165v-263l68 -13v-66h-311v66l70 14v240q0 54 -7 80.5t-27.5 37.5t-62.5 11q-13 0 -39 -7.5t-35 -14.5v-347l60 -14v-66h-294v66z" />
    <glyph glyph-name="o" unicode="o" horiz-adv-x="652" 
d="M545 492q72 -71 72 -203q0 -91 -37 -159t-103.5 -105t-154.5 -37q-138 0 -212.5 75.5t-72.5 210.5q3 134 83 209.5t216 79.5q137 0 209 -71zM246.5 435.5q-25.5 -55.5 -25.5 -147.5t25 -160t82 -68q61 0 83.5 61t22.5 159q0 92 -23 151.5t-79 59.5q-60 0 -85.5 -55.5z
" />
    <glyph glyph-name="p" unicode="p" horiz-adv-x="659" 
d="M567.5 490q55.5 -72 55.5 -199q0 -83 -41 -152.5t-111 -110t-154 -40.5q-12 0 -33 3t-24 3l6 -80v-82l104 -14v-68h-340v68l64 14v568l-66 47v61l181 54l34 -9v-63q15 29 64.5 50.5t93.5 21.5q111 0 166.5 -72zM293.5 462q-19.5 -11 -27.5 -23v-331q7 -17 33 -25.5
t50 -8.5q51 0 77.5 56t26.5 133q0 91 -30.5 150.5t-91.5 59.5q-18 0 -37.5 -11z" />
    <glyph glyph-name="q" unicode="q" horiz-adv-x="652" 
d="M432.5 554q36.5 -8 59.5 -23l68 31l25 -11v-724l64 -12v-65h-330v65l93 11v151l6 60q-25 -25 -60.5 -37t-73.5 -12q-123 0 -185.5 74t-62.5 208q0 84 43 150.5t117 104t163 37.5q37 0 73.5 -8zM246 435q-30 -53 -30 -159q0 -84 30 -137t94 -53q47 0 72 20v355
q-8 13 -24.5 20t-32.5 7q-79 0 -109 -53z" />
    <glyph glyph-name="r" unicode="r" horiz-adv-x="472" 
d="M108 79v321l-66 47v61l181 54l35 -9v-95q7 27 30.5 51t53.5 38.5t56 14.5q41 0 53 -6v-154q-11 11 -37.5 17t-45.5 6q-28 0 -52.5 -5.5t-34.5 -12.5v-324l114 -17v-66h-347v66z" />
    <glyph glyph-name="s" unicode="s" horiz-adv-x="535" 
d="M129 161l31 -54q29 -29 49 -41t52 -12q39 0 59.5 16.5t20.5 44.5q-1 25 -32.5 45t-94.5 48q-86 40 -130 85t-44 112q1 51 36 86.5t88 53t110 17.5q45 2 104 -6.5t90 -21.5v-134h-86l-27 61q-14 17 -33 28t-39 11q-31 0 -51.5 -12.5t-20.5 -32.5q0 -26 15.5 -45
t42.5 -34.5t79 -39.5q79 -36 118.5 -73t39.5 -99q0 -91 -73 -133.5t-188 -42.5q-50 0 -105.5 12t-90.5 32v129h80z" />
    <glyph glyph-name="t" unicode="t" horiz-adv-x="451" 
d="M249 546h167v-87h-160v-188q0 -66 3 -102t16 -59t41 -23q18 0 45.5 5.5t39.5 11.5l26 -55q-30 -30 -85.5 -45.5t-112.5 -15.5q-55 0 -85.5 19t-43 58t-12.5 103v291h-74v55q64 10 94 40q18 18 30.5 46t28.5 77h82v-131z" />
    <glyph glyph-name="u" unicode="u" horiz-adv-x="650" 
d="M26 458v60l186 44l26 -8v-340q0 -68 15.5 -100t59.5 -32q24 0 49 6.5t38 18.5v309l-62 34v68l204 44l27 -8v-488h56v-52q-17 -12 -62 -20t-76 -8t-50.5 13.5t-19.5 40.5v19q-24 -29 -73 -51t-88 -22q-103 0 -143.5 49t-40.5 156v233z" />
    <glyph glyph-name="v" unicode="v" horiz-adv-x="627" 
d="M2 460v86h282v-87l-44 -14l80 -231l26 -92l21 94l71 230l-59 13v87h246v-87l-57 -17l-181 -444h-141l-194 449z" />
    <glyph glyph-name="w" unicode="w" horiz-adv-x="899" 
d="M1 459v87h278v-87l-48 -13l56 -227l16 -77l11 63l93 341h142l88 -341l15 -69l14 69l53 239l-65 15v87h244v-87l-68 -16l-126 -445h-163l-75 250l-27 105l-18 -105l-67 -250h-157l-139 448z" />
    <glyph glyph-name="x" unicode="x" horiz-adv-x="634" 
d="M80 83l151 178l-164 186l-63 12v87h307v-87l-46 -12l18 -27l60 -79l12 20l69 89l-62 9v87h271v-87l-90 -15l-143 -155l171 -207l63 -16v-66h-302v66l41 15l-29 39l-59 77l-7 -17l-65 -96l71 -18v-66h-284v66z" />
    <glyph glyph-name="y" unicode="y" horiz-adv-x="602" 
d="M107.5 -134q14.5 -2 36.5 -1q45 0 75.5 37.5t45.5 97.5h-28l-192 446l-43 13v87h286v-87l-56 -12l97 -261l7 -50l15 50l79 262l-67 11v87h248v-87l-48 -10q-30 -75 -95 -238.5t-96 -237.5q-23 -62 -45 -104.5t-47 -71.5q-27 -31 -58.5 -46.5t-72.5 -15.5q-24 0 -48 2
t-30 6l1 130q21 -5 35.5 -7z" />
    <glyph glyph-name="z" unicode="z" horiz-adv-x="562" 
d="M539 486l-232 -338l-60 -74l177 17l29 84h90l-7 -175h-488l-23 49l57 90l213 290l41 44l-168 -10l-32 -99h-89v182h467z" />
    <glyph glyph-name="braceleft" unicode="{" horiz-adv-x="553" 
d="M101 312q-25 14 -61 17v108q42 3 64 14.5t22 36.5v273q0 64 34.5 92.5t100.5 28.5q27 0 50 -4.5t66 -16.5q21 -7 53 -15v-61h-150v-311q0 -24 -10.5 -39.5t-27 -25t-48.5 -22.5l-19 -8q56 -22 80.5 -42t24.5 -56v-310h150v-62q-70 -21 -98.5 -28t-60.5 -7
q-73 0 -109 30.5t-36 100.5v268q0 25 -25 39z" />
    <glyph glyph-name="bar" unicode="|" horiz-adv-x="531" 
d="M352 869v-960h-173v960h173z" />
    <glyph glyph-name="braceright" unicode="}" horiz-adv-x="553" 
d="M271 281q0 37 24.5 56.5t79.5 41.5q-41 16 -61 26.5t-31.5 26.5t-11.5 42v311h-150l-1 61q121 36 169 36q68 0 101.5 -28.5t33.5 -92.5v-273q0 -25 23 -36.5t63 -14.5v-108q-36 -3 -61 -18t-25 -38v-268q0 -71 -36 -101t-108 -30q-29 0 -64 8.5t-96 26.5l1 62h150v310z
" />
    <glyph glyph-name="asciitilde" unicode="~" horiz-adv-x="643" 
d="M103.5 470q28.5 28 67.5 47t69 19q28 0 49.5 -9.5t48.5 -27.5q26 -17 42.5 -24.5t36.5 -7.5q26 0 51.5 12.5t55.5 36.5l48 -61q-5 -29 -32.5 -57t-64.5 -46t-70 -18q-29 0 -48 8.5t-44 26.5q-24 17 -42.5 25.5t-45.5 8.5q-31 0 -53.5 -11.5t-52.5 -36.5l-48 61
q4 26 32.5 54z" />
    <glyph glyph-name="DEL" 
 />
    <glyph glyph-name="uni00A0" unicode="&#xa0;" horiz-adv-x="224" 
 />
    <glyph glyph-name="exclamdown" unicode="&#xa1;" horiz-adv-x="397" 
d="M288.5 677.5q26.5 -25.5 26.5 -69.5q0 -46 -36 -76.5t-82 -30.5q-41 0 -70 26t-29 65q0 29 17 55t44.5 41t54.5 15q48 0 74.5 -25.5zM315 -217h-233l74 620h89z" />
    <glyph glyph-name="cent" unicode="&#xa2;" horiz-adv-x="593" 
d="M100 81.5q-54 70.5 -54 174.5q0 82 33 147t93 105.5t139 50.5l6 106h95l-6 -104q86 -6 124 -24v-155h-90l-38 92q-20 12 -65 12q-57 0 -84 -56.5t-27 -140.5q0 -93 41 -149.5t118 -56.5q37 0 76 9t61 25l26 -61q-72 -61 -203 -69l-5 -93h-95l6 99q-97 18 -151 88.5z" />
    <glyph glyph-name="sterling" unicode="&#xa3;" horiz-adv-x="756" 
d="M539 753q41 -13 73 -40l-76 -138q-25 49 -60.5 79.5t-74.5 30.5q-35 0 -44.5 -41.5t-9.5 -129.5v-30v-49h122v-98h-122v-27q0 -71 -13 -122t-47 -88q21 -1 53 -11q28 -7 49 -11t44 -4q41 0 74 21.5t33 50.5q0 20 -15 39t-32 26l67 131q35 -6 64.5 -31t46.5 -60.5
t17 -72.5q0 -59 -31 -104t-84.5 -69t-118.5 -24q-49 0 -86.5 10t-77.5 27q-28 11 -43 15.5t-30 4.5q-49 -52 -138 -52q-32 0 -55 13t-23 36q0 38 48.5 59.5t109.5 21.5q9 18 11.5 43t2.5 61v117h-77v98h77v23q0 84 35.5 154.5t100 112t145.5 41.5q44 0 85 -13z" />
    <glyph glyph-name="currency" unicode="&#xa4;" horiz-adv-x="728" 
d="M259 520q46 25 100 25q52 0 101 -26l118 114l77 -78l-115 -113q29 -47 29 -106q0 -57 -27 -104l105 -107l-77 -77l-106 107q-48 -28 -105 -28q-55 0 -102 26l-106 -106l-78 77l105 105q-29 47 -29 107q0 58 30 109l-103 105l76 78zM297 400q-27 -28 -27 -64t27 -64.5
t63 -28.5q35 0 61.5 28.5t26.5 64.5t-26 64t-62 28t-63 -28z" />
    <glyph glyph-name="yen" unicode="&#xa5;" horiz-adv-x="745" 
d="M276 90v81h-176v81h176v67l-17 28h-159v82h111l-141 239l-56 10v80h307v-78l-51 -10l81 -175l28 -66h7l31 70q14 29 35.5 78.5t38.5 89.5l-76 11v80h274v-80l-68 -19l-124 -230h136v-82h-180l-3 -5v-90h183v-81h-183v-80l126 -23v-68h-417v68z" />
    <glyph glyph-name="brokenbar" unicode="&#xa6;" horiz-adv-x="531" 
d="M352 869v-426h-173v426h173zM352 336v-426h-173v426h173z" />
    <glyph glyph-name="section" unicode="&#xa7;" horiz-adv-x="661" 
d="M451 857q51 -8 85 -25v-150h-70l-59 83q-21 25 -73 25q-38 0 -65 -28.5t-27 -68.5q0 -27 17.5 -47t44 -34t74.5 -35q64 -27 105 -51t70 -65t29 -101q0 -43 -17.5 -86t-47.5 -71q79 -54 79 -129q0 -203 -269 -203q-61 0 -133.5 10.5t-103.5 26.5v196h70l48 -101
q13 -27 43 -38.5t67 -11.5q48 0 79 18t31 54q0 30 -20.5 53t-50.5 39.5t-84 41.5q-67 31 -108.5 55.5t-71 63t-29.5 91.5q0 41 26 88t59 72q-72 55 -72 130q0 62 38 108.5t100.5 72t132.5 25.5q52 0 103 -8zM208 404q0 -27 22.5 -49.5t54 -39t84.5 -38.5q49 -21 59 -26
q17 31 17 59q0 30 -19 52.5t-53 42t-102 53.5l-42 21q-21 -36 -21 -75z" />
    <glyph glyph-name="dieresis" unicode="&#xa8;" horiz-adv-x="519" 
d="M62 676.5q-25 18.5 -25 49.5q0 35 31.5 57.5t68.5 22.5q40 0 65 -17.5t25 -51.5q0 -36 -32 -57.5t-71 -21.5q-37 0 -62 18.5zM317.5 678q-24.5 19 -24.5 49q0 35 32 57t69 22q42 0 64.5 -17.5t22.5 -50.5q0 -37 -30 -58t-70 -21q-39 0 -63.5 19z" />
    <glyph glyph-name="copyright" unicode="&#xa9;" horiz-adv-x="1031" 
d="M731.5 884q97.5 -54 154 -149t56.5 -213q0 -113 -57.5 -208.5t-155.5 -151t-213 -55.5q-122 0 -219.5 53.5t-152.5 148t-55 213.5q0 116 56.5 211.5t154.5 150t216 54.5t215.5 -54zM345.5 817q-76.5 -45 -121 -123t-44.5 -172q0 -93 45.5 -171t122.5 -123t167 -45
q92 0 169 45t122 123t45 171q0 94 -45 172t-122 123t-169 45q-93 0 -169.5 -45zM626.5 771q28.5 -5 54.5 -20v-149h-93l-33 75q-9 9 -40 9q-70 0 -68 -136q0 -65 32 -108t84 -43q35 0 59 4t48 16l21 -62q-23 -31 -75.5 -51t-99.5 -20q-108 0 -170.5 62.5t-62.5 169.5
q0 73 35 132t96.5 92.5t137.5 33.5q46 0 74.5 -5z" />
    <glyph glyph-name="ordfeminine" unicode="&#xaa;" horiz-adv-x="571" 
d="M439 745q46 -32 46 -112l-1 -200h40v-52q-30 -8 -67.5 -15.5t-56.5 -7.5q-25 0 -39 8.5t-19 29.5q-45 -38 -130 -38q-56 0 -93.5 34t-37.5 89q0 48 38.5 80.5t96.5 48t118 15.5v9q0 36 -21.5 47.5t-64.5 11.5q-28 0 -61.5 -7.5t-51.5 -18.5l-25 73q23 15 83.5 26
t106.5 11q93 0 139 -32zM256 545.5q-32 -18.5 -32 -50.5q0 -25 17.5 -41t44.5 -16q17 0 47 8v122q-45 -4 -77 -22.5z" />
    <glyph glyph-name="guillemotleft" unicode="&#xab;" horiz-adv-x="1052" 
d="M473 559l42 -67l-223 -192l223 -184l-42 -72l-361 177v149zM898 559l42 -67l-222 -192l222 -184l-42 -72l-360 177v149z" />
    <glyph glyph-name="logicalnot" unicode="&#xac;" horiz-adv-x="680" 
d="M590 468v-289h-153v185h-348v104h501z" />
    <glyph glyph-name="uni00AD" unicode="&#xad;" horiz-adv-x="645" 
d="M89 353zM555 468v-115h-466v115h466z" />
    <glyph glyph-name="registered" unicode="&#xae;" horiz-adv-x="1031" 
d="M731.5 884q97.5 -54 154 -149t56.5 -213q0 -113 -58 -208.5t-156 -151t-212 -55.5q-122 0 -219.5 53.5t-152.5 148t-55 213.5q0 116 56.5 211.5t154.5 150t216 54.5t215.5 -54zM345.5 817q-76.5 -45 -121 -123t-44.5 -172q0 -93 45.5 -171t122.5 -123t167 -45
q92 0 169.5 45t122 123t44.5 171q0 95 -45 172.5t-122 122.5t-169 45q-93 0 -169.5 -45zM684 741q49 -30 50 -95q0 -61 -34.5 -100.5t-91.5 -39.5q38 -2 57.5 -23.5t36.5 -59.5q15 -30 26.5 -44t30.5 -15v-63h-146q-15 0 -23 16t-25 64q-26 85 -78 99v-111l35 -11v-59h-230
v59l39 19v313l-39 13v66h109l137 2q97 0 146 -30zM487 689v-133q12 -3 35 -3q28 0 41.5 20.5t13.5 51.5q0 40 -18 54t-64 14q-8 0 -8 -4z" />
    <glyph glyph-name="macron" unicode="&#xaf;" horiz-adv-x="528" 
d="M402 773v-117h-276v117h276z" />
    <glyph glyph-name="degree" unicode="&#xb0;" horiz-adv-x="445" 
d="M310.5 754.5q40.5 -23.5 63.5 -63t23 -84.5q0 -46 -23.5 -85t-64 -62.5t-87.5 -23.5q-46 0 -86 23t-64 62.5t-24 85.5q0 48 24 87t64 61.5t86 22.5q48 0 88.5 -23.5zM164.5 666.5q-21.5 -24.5 -21.5 -59.5q0 -36 22 -59t57 -23q34 0 56 23.5t22 58.5q0 36 -22 60t-56 24
q-36 0 -57.5 -24.5z" />
    <glyph glyph-name="plusminus" unicode="&#xb1;" horiz-adv-x="648" 
d="M267 353l-76 -5h-103v125h103l76 -5l-5 92v103h128v-103l-5 -92l76 5h103v-125h-103l-76 5l5 -92v-94h-128v94zM555 115v-115h-466v115h466z" />
    <glyph glyph-name="uni00B2" unicode="&#xb2;" horiz-adv-x="604" 
d="M278 565q77 61 77 109q0 32 -24 50.5t-62 18.5q-39 0 -74 -21t-76 -60l-41 57q33 52 98 89t127 37q102 0 155.5 -37t53.5 -106q0 -49 -34 -92t-86 -78.5t-143 -87.5l-35 -21l234 42l48 73l80 -22l-33 -164h-444l-30 76q132 76 209 137z" />
    <glyph glyph-name="uni00B3" unicode="&#xb3;" horiz-adv-x="555" 
d="M143.5 384q32.5 -4 46.5 -4q64 0 109.5 22t45.5 70q0 29 -17 49t-48 28l-33 -8l-80 -19l2 80q81 21 119 44.5t38 65.5q0 24 -23.5 35t-54.5 11t-68.5 -12t-67.5 -31l-35 59q32 29 94.5 48t115.5 19q76 0 131.5 -31.5t55.5 -85.5q0 -45 -23.5 -74t-72.5 -50
q53 -7 88.5 -42.5t35.5 -80.5q0 -56 -33 -95.5t-89.5 -60t-123.5 -20.5q-83 0 -159 19v72q14 -4 46.5 -8z" />
    <glyph glyph-name="acute" unicode="&#xb4;" horiz-adv-x="433" 
d="M333 904l124 -95q-31 -50 -96 -90.5t-139 -66.5l-43 44z" />
    <glyph glyph-name="paragraph" unicode="&#xb6;" horiz-adv-x="787" 
d="M542 762q110 -4 124 -4h104v-82l-98 -29v-553l100 -24v-70h-228l-1 665h-86v-665h-240v70l103 24v226q-71 0 -125 26.5t-84.5 76t-30.5 118.5q0 227 274 227q50 0 188 -6z" />
    <glyph glyph-name="periodcentered" unicode="&#xb7;" horiz-adv-x="377" 
d="M270 490q27 -25 27 -70q0 -47 -35.5 -77t-82.5 -30q-41 0 -70 26t-29 65q0 29 17.5 54.5t44.5 41t54 15.5q47 0 74 -25z" />
    <glyph glyph-name="cedilla" unicode="&#xb8;" horiz-adv-x="329" 
d="M179 -21q0 -22 3 -43q46 -4 75 -30.5t29 -63.5q0 -53 -41.5 -77.5t-109.5 -24.5q-23 0 -50 4.5t-55 10.5v73q11 -2 29 -4.5t32 -2.5q16 0 25 7.5t9 20.5t-8.5 20t-21.5 7l-29 -1q0 22 10.5 70.5t18.5 59.5h86q-2 -14 -2 -26z" />
    <glyph glyph-name="uni00B9" unicode="&#xb9;" horiz-adv-x="549" 
d="M224 437v253q-14 -1 -53.5 -7t-59.5 -10l-18 76q43 8 138 42t114 50l40 -8v-396l115 -20v-66h-403v66z" />
    <glyph glyph-name="ordmasculine" unicode="&#xba;" horiz-adv-x="571" 
d="M454.5 721.5q57.5 -56.5 57.5 -157.5q-1 -65 -32.5 -112t-84.5 -71t-118 -24q-102 0 -159 54t-57 153q0 67 30.5 115.5t83.5 73.5t121 25q101 0 158.5 -56.5zM231.5 673q-17.5 -41 -17.5 -102t19 -104.5t56 -43.5q43 0 56.5 33.5t13.5 105.5q0 61 -18 106.5t-52 45.5
q-40 0 -57.5 -41z" />
    <glyph glyph-name="guillemotright" unicode="&#xbb;" horiz-adv-x="1052" 
d="M331 302l-222 184l42 73l361 -177v-149l-361 -189l-42 66zM535 486l42 73l361 -177v-149l-361 -189l-42 66l222 192z" />
    <glyph glyph-name="onequarter" unicode="&#xbc;" horiz-adv-x="1334" 
d="M904 888l-390 -1055l-103 36l389 1049zM271 437v253q-14 -1 -53.5 -7t-59.5 -10l-18 76q43 8 138 42t114 50l40 -8v-396l115 -20v-66h-403v66zM1032 516l66 -77l-263 -303l157 17l6 97l122 14v-97l97 11v-126h-97v-138h-141l7 138h-243l-25 73l253 391h61z" />
    <glyph glyph-name="onehalf" unicode="&#xbd;" horiz-adv-x="1334" 
d="M904 888l-390 -1055l-103 36l389 1049zM271 437v253q-14 -1 -53.5 -7t-59.5 -10l-18 76q43 8 138 42t114 50l40 -8v-396l115 -20v-66h-403v66zM973 212q77 61 77 109q0 32 -24 50.5t-62 18.5q-39 0 -74 -21t-76 -60l-41 57q33 52 98 89t127 37q102 0 155.5 -37t53.5 -106
q0 -49 -34 -92t-86 -78.5t-143 -87.5l-35 -21l234 42l48 73l80 -22l-33 -164h-444l-30 76q132 76 209 137z" />
    <glyph glyph-name="threequarters" unicode="&#xbe;" horiz-adv-x="1417" 
d="M904 888l-390 -1055l-103 36l389 1049zM212.5 384q32.5 -4 46.5 -4q64 0 109.5 22t45.5 70q0 29 -17 49t-48 28l-33 -8l-80 -19l2 80q81 21 119 44.5t38 65.5q0 24 -23.5 35t-54.5 11t-68.5 -12t-67.5 -31l-35 59q32 29 94.5 48t115.5 19q76 0 131.5 -31.5t55.5 -85.5
q0 -45 -23.5 -74t-72.5 -50q53 -7 88.5 -42.5t35.5 -80.5q0 -56 -33 -95.5t-89.5 -60t-123.5 -20.5q-83 0 -159 19v72q14 -4 46.5 -8zM1032 516l66 -77l-263 -303l157 17l6 97l122 14v-97l97 11v-126h-97v-138h-141l7 138h-243l-25 73l253 391h61z" />
    <glyph glyph-name="questiondown" unicode="&#xbf;" horiz-adv-x="519" 
d="M336 685q27 -26 27 -69q0 -46 -36 -76.5t-82 -30.5q-41 0 -70 25.5t-29 65.5q0 29 17 55t44.5 41t54.5 15q47 0 74 -26zM347 436q34 -32 57.5 -74t23.5 -78q0 -29 -26.5 -50.5t-62 -35t-91.5 -29.5q-46 -14 -54 -17q-18 -8 -27.5 -14t-9.5 -13q0 -45 27 -89t82.5 -73.5
t136.5 -29.5q58 0 80 17l8 -133q-10 -12 -49 -18.5t-73 -6.5q-92 5 -162 40t-109 97t-39 145q0 55 13.5 81t51.5 43l42 19q61 28 84 43t23 35q0 27 -13.5 62.5t-34.5 78.5h122z" />
    <glyph glyph-name="Agrave" unicode="&#xc0;" horiz-adv-x="781" 
d="M288 801q-71 20 -104 43l94 94l182 -108l-49 -52q-52 3 -123 23zM67 88l241 670h163l234 -671l74 -20v-67h-334v67l65 22l-21 75h-264l-22 -73l73 -23v-68h-274v68zM398 478l-36 134l-109 -358h210z" />
    <glyph glyph-name="Aacute" unicode="&#xc1;" horiz-adv-x="781" 
d="M508 938l94 -94q-31 -24 -106.5 -43.5t-130.5 -22.5l-49 52zM67 88l241 670h163l234 -671l74 -20v-67h-334v67l65 22l-21 75h-264l-22 -73l73 -23v-68h-274v68zM398 478l-36 134l-109 -358h210z" />
    <glyph glyph-name="Acircumflex" unicode="&#xc2;" horiz-adv-x="781" 
d="M334 938h114l132 -123l-55 -35l-133 63l-138 -63l-54 35zM67 88l241 670h163l234 -671l74 -20v-67h-334v67l65 22l-21 75h-264l-22 -73l73 -23v-68h-274v68zM398 478l-36 134l-109 -358h210z" />
    <glyph glyph-name="Atilde" unicode="&#xc3;" horiz-adv-x="781" 
d="M217 884.5q26 23.5 58.5 38.5t56.5 15q22 0 41 -7t46 -21q20 -11 32 -16t24 -5q43 0 81 34l44 -47q-16 -38 -61 -65.5t-86 -27.5q-24 0 -43.5 7.5t-44.5 21.5q-21 11 -33.5 16t-25.5 5q-40 0 -82 -35l-42 38q9 25 35 48.5zM67 88l241 670h163l234 -671l74 -20v-67h-334
v67l65 22l-21 75h-264l-22 -73l73 -23v-68h-274v68zM398 478l-36 134l-109 -358h210z" />
    <glyph glyph-name="Adieresis" unicode="&#xc4;" horiz-adv-x="781" 
d="M328.5 921q25.5 -17 25.5 -52t-31.5 -57t-72.5 -22q-35 0 -60.5 17.5t-25.5 49.5q0 35 30.5 58t69.5 23t64.5 -17zM593.5 921.5q23.5 -16.5 23.5 -51.5q0 -34 -28.5 -56.5t-70.5 -22.5q-38 0 -63.5 18.5t-25.5 49.5q0 34 31.5 56.5t69.5 22.5q40 0 63.5 -16.5zM705 87
l74 -20v-67h-334v67l65 22l-21 75h-264l-22 -73l73 -23v-68h-274v68l65 20l241 670h163zM253 254h210l-65 224l-36 134z" />
    <glyph glyph-name="Aring" unicode="&#xc5;" horiz-adv-x="781" 
d="M495 905q42 -33 42 -88q0 -31 -14.5 -55t-39.5 -40l222 -635l74 -20v-67h-334v67l65 22l-21 75h-264l-22 -73l73 -23v-68h-274v68l65 20l229 636q-50 32 -50 93q0 57 40.5 89t104.5 32q62 0 104 -33zM346 859.5q-17 -16.5 -17 -42.5q0 -25 17.5 -41.5t44.5 -16.5
q24 0 42.5 16t18.5 42q0 23 -17 41t-44 18q-28 0 -45 -16.5zM253 254h210l-65 224l-36 134z" />
    <glyph glyph-name="AE" unicode="&#xc6;" horiz-adv-x="946" 
d="M62 85l270 673h519l18 -167h-95l-31 73l-210 11l73 -236l123 3l19 73h77v-242h-78l-19 71l-94 7l86 -278l82 14l54 92l85 -17l-25 -162h-458v68l77 20l-23 76h-299l-28 -75l86 -20v-69h-269v69zM401 543l-16 73l-135 -357h234z" />
    <glyph glyph-name="Ccedilla" unicode="&#xc7;" horiz-adv-x="715" 
d="M554.5 758q40.5 -7 95.5 -19q2 -1 19 -5l-10 -190h-103l-35 100q-7 12 -29 21.5t-77 9.5q-61 0 -104 -37.5t-64.5 -100.5t-21.5 -139q0 -85 23.5 -160.5t69 -121.5t108.5 -46q53 0 81.5 9.5t36.5 29.5l40 98h85v-174q-7 0 -26.5 -5.5t-26.5 -7.5q-49 -14 -82 -22t-64 -9
q0 -8 3 -53q46 -4 75 -30.5t29 -63.5q0 -53 -41.5 -77.5t-109.5 -24.5q-23 0 -50 4.5t-55 10.5v73q11 -2 29 -4.5t32 -2.5q16 0 25 7.5t9 20.5t-8.5 20t-21.5 7l-29 -1q0 20 6.5 56t13.5 57q-105 6 -183 54t-120 128.5t-42 183.5q0 118 57.5 211.5t156 146.5t215.5 53
q53 0 93.5 -7z" />
    <glyph glyph-name="Egrave" unicode="&#xc8;" horiz-adv-x="696" 
d="M317 786.5q-48 9.5 -94.5 25.5t-66.5 32l94 94l182 -108l-49 -52q-18 -1 -66 8.5zM121 87v580l-69 11v80h554l15 -167h-100l-46 78l-181 11v-254l125 5l27 73h88v-238h-88l-27 77l-125 3v-268l215 14l62 96l101 -18l-26 -170h-597v68z" />
    <glyph glyph-name="Eacute" unicode="&#xc9;" horiz-adv-x="696" 
d="M480 938l94 -94q-31 -24 -106.5 -43.5t-130.5 -22.5l-49 52zM121 87v580l-69 11v80h554l15 -167h-100l-46 78l-181 11v-254l125 5l27 73h88v-238h-88l-27 77l-125 3v-268l215 14l62 96l101 -18l-26 -170h-597v68z" />
    <glyph glyph-name="Ecircumflex" unicode="&#xca;" horiz-adv-x="696" 
d="M306 938h113l132 -123l-54 -35l-133 63l-138 -63l-54 35zM121 87v580l-69 11v80h554l15 -167h-100l-46 78l-181 11v-254l125 5l27 73h88v-238h-88l-27 77l-125 3v-268l215 14l62 96l101 -18l-26 -170h-597v68z" />
    <glyph glyph-name="Edieresis" unicode="&#xcb;" horiz-adv-x="696" 
d="M300.5 921q25.5 -17 25.5 -52t-31.5 -57t-72.5 -22q-35 0 -60.5 17.5t-25.5 49.5q0 35 30.5 58t69.5 23t64.5 -17zM565.5 921.5q23.5 -16.5 23.5 -51.5q0 -34 -28.5 -56.5t-70.5 -22.5q-38 0 -63.5 18.5t-25.5 49.5q0 34 31.5 56.5t69.5 22.5q40 0 63.5 -16.5zM621 591
h-100l-46 78l-181 11v-254l125 5l27 73h88v-238h-88l-27 77l-125 3v-268l215 14l62 96l101 -18l-26 -170h-597v68l72 19v580l-69 11v80h554z" />
    <glyph glyph-name="Igrave" unicode="&#xcc;" horiz-adv-x="414" 
d="M159 786.5q-48 9.5 -94.5 25.5t-66.5 32l94 94l182 -108l-49 -52q-18 -1 -66 8.5zM119 88v579l-92 11v80h355v-80l-87 -12v-577l92 -21v-68h-360v68z" />
    <glyph glyph-name="Iacute" unicode="&#xcd;" horiz-adv-x="414" 
d="M321 938l94 -94q-31 -24 -106.5 -43.5t-130.5 -22.5l-49 52zM119 88v579l-92 11v80h355v-80l-87 -12v-577l92 -21v-68h-360v68z" />
    <glyph glyph-name="Icircumflex" unicode="&#xce;" horiz-adv-x="414" 
d="M148 938h113l132 -123l-55 -35l-132 63l-138 -63l-54 35zM119 88v579l-92 11v80h355v-80l-87 -12v-577l92 -21v-68h-360v68z" />
    <glyph glyph-name="Idieresis" unicode="&#xcf;" horiz-adv-x="414" 
d="M141.5 921q25.5 -17 25.5 -52t-31.5 -57t-72.5 -22q-35 0 -60.5 17.5t-25.5 49.5q0 35 30.5 58t69.5 23t64.5 -17zM406.5 921.5q23.5 -16.5 23.5 -51.5q0 -34 -28.5 -56.5t-70.5 -22.5q-38 0 -63.5 18.5t-25.5 49.5q0 34 31.5 56.5t69.5 22.5q40 0 63.5 -16.5zM382 678
l-87 -12v-577l92 -21v-68h-360v68l92 20v579l-92 11v80h355v-80z" />
    <glyph glyph-name="Eth" unicode="&#xd0;" horiz-adv-x="787" 
d="M115 88v256h-91v101h91v223l-69 10v80h160q22 0 41 1t34 2q62 4 96 4q186 0 283 -93t97 -271q0 -123 -48.5 -214.5t-137 -141.5t-207.5 -50q-26 0 -76 2q-39 3 -79 3h-165v68zM365 71q26 0 40 2q54 4 92 47t57.5 108t19.5 137q0 161 -52 240.5t-156 81.5q-51 0 -76 -14
v-228h133v-101h-133v-257q25 -16 75 -16z" />
    <glyph glyph-name="Ntilde" unicode="&#xd1;" horiz-adv-x="833" 
d="M38 0zM805 669l-67 -11v-658h-192l-266 448l-53 132l1 -488l99 -24v-68h-289v68l77 22v567l-73 11v90h248l294 -511l43 -116v524l-88 14v89h266v-89zM258 884.5q26 23.5 58.5 38.5t56.5 15q22 0 41 -7t46 -21q20 -11 32 -16t24 -5q43 0 81 34l44 -47q-16 -38 -61 -65.5
t-86 -27.5q-24 0 -43.5 7.5t-44.5 21.5q-21 11 -33.5 16t-25.5 5q-40 0 -82 -35l-42 38q9 25 35 48.5z" />
    <glyph glyph-name="Ograve" unicode="&#xd2;" horiz-adv-x="781" 
d="M34 0zM584 717q79 -48 122.5 -132t43.5 -190q0 -117 -44.5 -210t-126 -146t-188.5 -53q-105 0 -186.5 48t-126 133t-44.5 192q0 105 41.5 193t115.5 143q92 70 210 70q104 0 183 -48zM262 602q-36 -83 -36 -233q0 -75 20 -145t58.5 -115t92.5 -45q66 0 101.5 40t48 108.5
t12.5 172.5q0 88 -21 156t-58 106t-84 38q-98 0 -134 -83zM354 786.5q-48 9.5 -94.5 25.5t-66.5 32l94 94l182 -108l-49 -52q-18 -1 -66 8.5z" />
    <glyph glyph-name="Oacute" unicode="&#xd3;" horiz-adv-x="781" 
d="M611 844q-31 -24 -106.5 -43.5t-130.5 -22.5l-49 52l192 108zM584 717q79 -48 122.5 -132t43.5 -190q0 -117 -44.5 -210t-126 -146t-188.5 -53t-189 49t-126 136t-42 197q3 111 51.5 201.5t131 143t184.5 52.5q104 0 183 -48zM262 602q-36 -83 -36 -233q0 -75 20 -145
t58.5 -115t92.5 -45q66 0 101.5 40t48 108.5t12.5 172.5q0 88 -21 156t-58 106t-84 38q-98 0 -134 -83z" />
    <glyph glyph-name="Ocircumflex" unicode="&#xd4;" horiz-adv-x="781" 
d="M588 815l-54 -35l-133 63l-138 -63l-54 35l134 123h114zM584 717q79 -48 122.5 -132t43.5 -190q0 -117 -44.5 -210t-126 -146t-188.5 -53t-189 49t-126 136t-42 197q3 111 51.5 201.5t131 143t184.5 52.5q104 0 183 -48zM262 602q-36 -83 -36 -233q0 -75 20 -145
t58.5 -115t92.5 -45q66 0 101.5 40t48 108.5t12.5 172.5q0 88 -21 156t-58 106t-84 38q-98 0 -134 -83z" />
    <glyph glyph-name="Otilde" unicode="&#xd5;" horiz-adv-x="781" 
d="M34 0zM584 717q79 -48 122.5 -132t43.5 -190q0 -117 -44.5 -210t-126 -146t-188.5 -53q-105 0 -186.5 48t-126 133t-44.5 192q0 105 41.5 193t115.5 143q92 70 210 70q104 0 183 -48zM262 602q-36 -83 -36 -233q0 -75 20 -145t58.5 -115t92.5 -45q66 0 101.5 40t48 108.5
t12.5 172.5q0 88 -21 156t-58 106t-84 38q-98 0 -134 -83zM225 884.5q26 23.5 58.5 38.5t56.5 15q22 0 41 -7t46 -21q20 -11 32 -16t24 -5q43 0 81 34l44 -47q-16 -38 -61 -65.5t-86 -27.5q-24 0 -43.5 7.5t-44.5 21.5q-21 11 -33.5 16t-25.5 5q-40 0 -82 -35l-42 38
q9 25 35 48.5z" />
    <glyph glyph-name="Odieresis" unicode="&#xd6;" horiz-adv-x="781" 
d="M34 0zM584 717q79 -48 122.5 -132t43.5 -190q0 -117 -44.5 -210t-126 -146t-188.5 -53q-105 0 -186.5 48t-126 133t-44.5 192q0 105 41.5 193t115.5 143q92 70 210 70q104 0 183 -48zM262 602q-36 -83 -36 -233q0 -75 20 -145t58.5 -115t92.5 -45q66 0 101.5 40t48 108.5
t12.5 172.5q0 88 -21 156t-58 106t-84 38q-98 0 -134 -83zM336.5 921q25.5 -17 25.5 -52t-31.5 -57t-72.5 -22q-35 0 -60.5 17.5t-25.5 49.5q0 35 30.5 58t69.5 23t64.5 -17zM601.5 921.5q23.5 -16.5 23.5 -51.5q0 -34 -28.5 -56.5t-70.5 -22.5q-38 0 -63.5 18.5t-25.5 49.5
q0 34 31.5 56.5t69.5 22.5q40 0 63.5 -16.5z" />
    <glyph glyph-name="multiply" unicode="&#xd7;" horiz-adv-x="694" 
d="M268 405l-177 170l86 88l170 -178l170 178l86 -88l-177 -170l177 -169l-86 -89l-170 179l-170 -179l-86 89z" />
    <glyph glyph-name="Oslash" unicode="&#xd8;" horiz-adv-x="781" 
d="M84.5 155.5q-50.5 88.5 -50.5 199.5q0 114 47.5 207.5t131.5 148t188 54.5q59 0 102 -14l26 75l63 -21l-28 -77q88 -44 137 -133t49 -197q0 -118 -44.5 -212t-126 -147t-188.5 -53q-51 0 -101 13l-44 -103l-60 21l43 104q-94 46 -144.5 134.5zM396 685
q-99 0 -134.5 -83.5t-35.5 -232.5q0 -59 14.5 -122t40.5 -106l181 522q-30 22 -66 22zM397 64q67 0 102.5 40.5t47.5 109t12 171.5q0 60 -12 117.5t-35 101.5l-181 -519q31 -21 66 -21z" />
    <glyph glyph-name="Ugrave" unicode="&#xd9;" horiz-adv-x="787" 
d="M20 0zM773 678l-70 -12v-340q0 -164 -70.5 -252t-215.5 -88q-163 0 -242.5 77.5t-79.5 235.5q0 122 2 368l-77 11v80h333v-80l-83 -11v-369q0 -112 39 -168.5t129 -56.5q86 0 121 66.5t35 185.5l-2 341l-82 12v80h263v-80zM377 786.5q-48 9.5 -94.5 25.5t-66.5 32l94 94
l182 -108l-49 -52q-18 -1 -66 8.5z" />
    <glyph glyph-name="Uacute" unicode="&#xda;" horiz-adv-x="787" 
d="M20 0zM773 678l-70 -12v-340q0 -164 -70.5 -252t-215.5 -88q-163 0 -242.5 77.5t-79.5 235.5q0 122 2 368l-77 11v80h333v-80l-83 -11v-369q0 -112 39 -168.5t129 -56.5q86 0 121 66.5t35 185.5l-2 341l-82 12v80h263v-80zM540 938l94 -94q-31 -24 -106.5 -43.5
t-130.5 -22.5l-49 52z" />
    <glyph glyph-name="Ucircumflex" unicode="&#xdb;" horiz-adv-x="782" 
d="M612 815l-55 -35l-133 63l-137 -63l-55 35l135 123h113zM773 678l-70 -12v-340q0 -164 -70.5 -252t-215.5 -88q-163 0 -242.5 77.5t-79.5 235.5q0 122 2 368l-77 11v80h333v-80l-83 -11v-369q0 -112 39 -168.5t129 -56.5q86 0 121 66.5t35 185.5l-2 341l-82 12v80h263
v-80z" />
    <glyph glyph-name="Udieresis" unicode="&#xdc;" horiz-adv-x="787" 
d="M20 0zM773 678l-70 -12v-340q0 -164 -70.5 -252t-215.5 -88q-163 0 -242.5 77.5t-79.5 235.5q0 122 2 368l-77 11v80h333v-80l-83 -11v-369q0 -112 39 -168.5t129 -56.5q86 0 121 66.5t35 185.5l-2 341l-82 12v80h263v-80zM360.5 921q25.5 -17 25.5 -52t-31.5 -57
t-72.5 -22q-35 0 -60.5 17.5t-25.5 49.5q0 35 30.5 58t69.5 23t64.5 -17zM625.5 921.5q23.5 -16.5 23.5 -51.5q0 -34 -28.5 -56.5t-70.5 -22.5q-38 0 -63.5 18.5t-25.5 49.5q0 34 31.5 56.5t69.5 22.5q40 0 63.5 -16.5z" />
    <glyph glyph-name="Yacute" unicode="&#xdd;" horiz-adv-x="723" 
d="M6 0zM288 90v160l-228 419l-54 9v80h308v-78l-52 -10l123 -259l14 -46l17 50l104 251l-78 12l-1 80h275v-80l-64 -18l-191 -395v-173l132 -24v-68h-423v68zM490 938l94 -94q-31 -24 -106.5 -43.5t-130.5 -22.5l-49 52z" />
    <glyph glyph-name="Thorn" unicode="&#xde;" horiz-adv-x="673" 
d="M115 89v577l-104 12v80h374v-80l-97 -12v-75q79 9 108 9q133 0 204 -47t71 -153q0 -123 -78.5 -185.5t-211.5 -62.5q-55 0 -93 4v-67l124 -21v-68h-377v68zM359 232q62 0 97 44t35 113q0 64 -39.5 95.5t-109.5 31.5q-14 0 -30 -1t-24 -2v-277q13 -4 71 -4z" />
    <glyph glyph-name="germandbls" unicode="&#xdf;" horiz-adv-x="722" 
d="M97 95v327q0 161 83 248.5t236 87.5q79 0 134 -35.5t55 -99.5q0 -41 -20 -67t-57 -54q-30 -23 -44 -39.5t-14 -39.5q0 -35 25 -53.5t77 -37.5q44 -17 70.5 -32t45.5 -42t19 -70q0 -98 -60 -148.5t-167 -50.5q-44 0 -92.5 5.5t-57.5 14.5v96q26 -19 60 -30t66 -11
q38 0 62 22t24 59q0 33 -21.5 48t-66.5 31q-40 13 -65 26t-43 41t-18 74q0 35 14.5 58t43.5 53q31 31 46.5 56.5t15.5 64.5q0 40 -18 61.5t-52 21.5q-62 0 -85 -52.5t-23 -149.5v-478h-248v70z" />
    <glyph glyph-name="agrave" unicode="&#xe0;" horiz-adv-x="599" 
d="M34 0zM477 514.5q55 -47.5 55 -153.5v-295h64v-52q-20 -14 -55.5 -21t-70.5 -7q-37 0 -61 14.5t-27 41.5q-59 -56 -142 -56q-92 0 -149 41.5t-57 115.5q0 66 46 111t120.5 67t158.5 22v6q-1 66 -23.5 93t-80.5 27q-42 0 -88.5 -12t-72.5 -30l-33 75q36 29 107.5 44.5
t139.5 15.5q114 0 169 -47.5zM251.5 242q-42.5 -26 -42.5 -78q0 -41 20.5 -62.5t60.5 -21.5q44 0 69 21v167q-65 0 -107.5 -26zM267.5 675q-45.5 24 -87 61t-66.5 73l124 95l154 -208l-43 -43q-36 -2 -81.5 22z" />
    <glyph glyph-name="aacute" unicode="&#xe1;" horiz-adv-x="599" 
d="M34 0zM477 514.5q55 -47.5 55 -153.5v-295h64v-52q-20 -14 -55.5 -21t-70.5 -7q-37 0 -61 14.5t-27 41.5q-59 -56 -142 -56q-92 0 -149 41.5t-57 115.5q0 66 46 111t120.5 67t158.5 22v6q-1 66 -23.5 93t-80.5 27q-42 0 -88.5 -12t-72.5 -30l-33 75q36 29 107.5 44.5
t139.5 15.5q114 0 169 -47.5zM251.5 242q-42.5 -26 -42.5 -78q0 -41 20.5 -62.5t60.5 -21.5q44 0 69 21v167q-65 0 -107.5 -26zM378 904l124 -95q-31 -50 -96 -90.5t-139 -66.5l-43 44z" />
    <glyph glyph-name="acircumflex" unicode="&#xe2;" horiz-adv-x="599" 
d="M34 0zM477 514.5q55 -47.5 55 -153.5v-295h64v-52q-20 -14 -55.5 -21t-70.5 -7q-37 0 -61 14.5t-27 41.5q-59 -56 -142 -56q-92 0 -149 41.5t-57 115.5q0 66 46 111t120.5 67t158.5 22v6q-1 66 -23.5 93t-80.5 27q-42 0 -88.5 -12t-72.5 -30l-33 75q36 29 107.5 44.5
t139.5 15.5q114 0 169 -47.5zM251.5 242q-42.5 -26 -42.5 -78q0 -41 20.5 -62.5t60.5 -21.5q44 0 69 21v167q-65 0 -107.5 -26zM229 867h124l135 -179l-71 -36l-126 101l-130 -101l-64 36z" />
    <glyph glyph-name="atilde" unicode="&#xe3;" horiz-adv-x="599" 
d="M34 0zM477 514.5q55 -47.5 55 -153.5v-295h64v-52q-20 -14 -55.5 -21t-70.5 -7q-37 0 -61 14.5t-27 41.5q-59 -56 -142 -56q-92 0 -149 41.5t-57 115.5q0 66 46 111t120.5 67t158.5 22v6q-1 66 -23.5 93t-80.5 27q-42 0 -88.5 -12t-72.5 -30l-33 75q36 29 107.5 44.5
t139.5 15.5q114 0 169 -47.5zM251.5 242q-42.5 -26 -42.5 -78q0 -41 20.5 -62.5t60.5 -21.5q44 0 69 21v167q-65 0 -107.5 -26zM116.5 764.5q25.5 23.5 57.5 38.5t58 15q27 0 47.5 -7.5t42.5 -21.5q16 -10 28 -15t25 -5q24 0 42.5 9.5t38.5 25.5l44 -48q-16 -39 -62.5 -71
t-84.5 -32q-26 0 -46 7.5t-46 22.5q-19 11 -30.5 16t-24.5 5q-18 0 -39.5 -10t-42.5 -26l-42 48q9 25 34.5 48.5z" />
    <glyph glyph-name="adieresis" unicode="&#xe4;" horiz-adv-x="599" 
d="M34 0zM477 514.5q55 -47.5 55 -153.5v-295h64v-52q-20 -14 -55.5 -21t-70.5 -7q-37 0 -61 14.5t-27 41.5q-59 -56 -142 -56q-92 0 -149 41.5t-57 115.5q0 66 46 111t120.5 67t158.5 22v6q-1 66 -23.5 93t-80.5 27q-42 0 -88.5 -12t-72.5 -30l-33 75q36 29 107.5 44.5
t139.5 15.5q114 0 169 -47.5zM251.5 242q-42.5 -26 -42.5 -78q0 -41 20.5 -62.5t60.5 -21.5q44 0 69 21v167q-65 0 -107.5 -26zM94 676.5q-25 18.5 -25 49.5q0 35 31.5 57.5t68.5 22.5q40 0 65 -17.5t25 -51.5q0 -36 -32 -57.5t-71 -21.5q-37 0 -62 18.5zM349.5 678
q-24.5 19 -24.5 49q0 35 32 57t69 22q42 0 64.5 -17.5t22.5 -50.5q0 -37 -30 -58t-70 -21q-39 0 -63.5 19z" />
    <glyph glyph-name="aring" unicode="&#xe5;" horiz-adv-x="599" 
d="M34 0zM477 514.5q55 -47.5 55 -153.5v-295h64v-52q-20 -14 -55.5 -21t-70.5 -7q-37 0 -61 14.5t-27 41.5q-59 -56 -142 -56q-92 0 -149 41.5t-57 115.5q0 66 46 111t120.5 67t158.5 22v6q-1 66 -23.5 93t-80.5 27q-42 0 -88.5 -12t-72.5 -30l-33 75q36 29 107.5 44.5
t139.5 15.5q114 0 169 -47.5zM251.5 242q-42.5 -26 -42.5 -78q0 -41 20.5 -62.5t60.5 -21.5q44 0 69 21v167q-65 0 -107.5 -26zM363 877.5q33 -18.5 52.5 -49.5t19.5 -66q0 -38 -20.5 -69t-53.5 -48.5t-70 -17.5q-38 0 -71 18t-52.5 49t-19.5 68t19.5 68t52.5 48.5t71 17.5
q39 0 72 -18.5zM244.5 809q-18.5 -18 -18.5 -47q0 -28 18.5 -46.5t46.5 -18.5t46.5 18.5t18.5 46.5q0 27 -19 46t-46 19q-28 0 -46.5 -18z" />
    <glyph glyph-name="ae" unicode="&#xe6;" horiz-adv-x="924" 
d="M888 339q0 -26 -7 -80h-345q14 -175 160 -175q36 0 79 9t81 26l26 -63q-39 -33 -106.5 -51.5t-129.5 -18.5q-133 0 -209 68q-72 -68 -197 -68q-92 0 -149 41.5t-57 115.5q0 66 46 111t120.5 67t158.5 22v6q-1 65 -23.5 91t-80.5 26q-41 0 -91 -12.5t-70 -29.5l-33 78
q36 29 107.5 44.5t139.5 15.5q119 0 174 -52q74 52 179 52q227 0 227 -223zM568 448.5q-28 -45.5 -32 -111.5h184q4 40 4 56q0 49 -18 75t-61 26q-49 0 -77 -45.5zM251.5 242q-42.5 -26 -42.5 -78q0 -41 20.5 -62.5t60.5 -21.5q17 0 37.5 4.5t31.5 11.5v172
q-65 0 -107.5 -26z" />
    <glyph glyph-name="ccedilla" unicode="&#xe7;" horiz-adv-x="554" 
d="M428 -94.5q29 -26.5 29 -63.5q0 -53 -41.5 -77.5t-109.5 -24.5q-23 0 -50 4.5t-55 10.5v73q11 -2 29 -4.5t32 -2.5q16 0 25 7.5t9 20.5t-8.5 20t-21.5 7l-29 -1q0 17 7 54.5t15 59.5q-104 14 -162.5 86.5t-58.5 183.5q0 90 40.5 158.5t113.5 106t166 37.5q42 0 91.5 -6.5
t71.5 -18.5v-155h-89l-39 92q-20 12 -64 12q-57 0 -84.5 -56.5t-27.5 -141.5q0 -93 41 -149t118 -56q37 0 76 9t61 25l26 -61q-68 -59 -187 -68q-2 -30 1 -51q46 -4 75 -30.5z" />
    <glyph glyph-name="egrave" unicode="&#xe8;" horiz-adv-x="605" 
d="M36 0zM504.5 506.5q58.5 -55.5 58.5 -161.5q0 -44 -7 -86h-340q7 -87 45 -131t110 -44q80 0 155 33l26 -61q-39 -33 -104.5 -51.5t-125.5 -18.5q-137 0 -211.5 71.5t-74.5 201.5q0 88 38 157t106 107.5t155 38.5q111 0 169.5 -55.5zM216 337h179q4 36 4 61q0 96 -79 96
q-91 0 -104 -157zM301.5 675q-45.5 24 -87 61t-66.5 73l124 95l154 -208l-43 -43q-36 -2 -81.5 22z" />
    <glyph glyph-name="eacute" unicode="&#xe9;" horiz-adv-x="605" 
d="M36 0zM504.5 506.5q58.5 -55.5 58.5 -161.5q0 -44 -7 -86h-340q7 -87 45 -131t110 -44q80 0 155 33l26 -61q-39 -33 -104.5 -51.5t-125.5 -18.5q-137 0 -211.5 71.5t-74.5 201.5q0 88 38 157t106 107.5t155 38.5q111 0 169.5 -55.5zM216 337h179q4 36 4 61q0 96 -79 96
q-91 0 -104 -157zM412 904l124 -95q-31 -50 -96 -90.5t-139 -66.5l-43 44z" />
    <glyph glyph-name="ecircumflex" unicode="&#xea;" horiz-adv-x="605" 
d="M36 0zM504.5 506.5q58.5 -55.5 58.5 -161.5q0 -44 -7 -86h-340q7 -87 45 -131t110 -44q80 0 155 33l26 -61q-39 -33 -104.5 -51.5t-125.5 -18.5q-137 0 -211.5 71.5t-74.5 201.5q0 88 38 157t106 107.5t155 38.5q111 0 169.5 -55.5zM216 337h179q4 36 4 61q0 96 -79 96
q-91 0 -104 -157zM263 867h124l135 -179l-71 -36l-126 101l-130 -101l-64 36z" />
    <glyph glyph-name="edieresis" unicode="&#xeb;" horiz-adv-x="605" 
d="M36 0zM504.5 506.5q58.5 -55.5 58.5 -161.5q0 -44 -7 -86h-340q7 -87 45 -131t110 -44q80 0 155 33l26 -61q-39 -33 -104.5 -51.5t-125.5 -18.5q-137 0 -211.5 71.5t-74.5 201.5q0 88 38 157t106 107.5t155 38.5q111 0 169.5 -55.5zM216 337h179q4 36 4 61q0 96 -79 96
q-91 0 -104 -157zM128 676.5q-25 18.5 -25 49.5q0 35 31.5 57.5t68.5 22.5q40 0 65 -17.5t25 -51.5q0 -36 -32 -57.5t-71 -21.5q-37 0 -62 18.5zM383.5 678q-24.5 19 -24.5 49q0 35 32 57t69 22q42 0 64.5 -17.5t22.5 -50.5q0 -37 -30 -58t-70 -21q-39 0 -63.5 19z" />
    <glyph glyph-name="igrave" unicode="&#xec;" horiz-adv-x="365" 
d="M168 674.5q-45 23.5 -87 60.5t-67 74l124 95l154 -208l-43 -43q-36 -2 -81 21.5zM104 80v304l-62 70v46l193 65l42 -12v-474l69 -13v-66h-307v66z" />
    <glyph glyph-name="iacute" unicode="&#xed;" horiz-adv-x="365" 
d="M39 0zM104 80v304l-62 70v46l193 62l42 -12v-471l70 -13v-66h-308v66zM278 904l124 -95q-31 -50 -96 -90.5t-139 -66.5l-43 44z" />
    <glyph glyph-name="icircumflex" unicode="&#xee;" horiz-adv-x="365" 
d="M129 867h123l136 -179l-71 -36l-127 101l-129 -101l-64 36zM104 80v304l-62 70v46l193 65l42 -12v-474l69 -13v-66h-307v66z" />
    <glyph glyph-name="idieresis" unicode="&#xef;" horiz-adv-x="365" 
d="M0 0zM104 80v304l-62 70v46l193 62l42 -12v-471l70 -13v-66h-308v66zM-7 676.5q-25 18.5 -25 49.5q0 35 31.5 57.5t68.5 22.5q40 0 65 -17.5t25 -51.5q0 -36 -32 -57.5t-71 -21.5q-37 0 -62 18.5zM248.5 678q-24.5 19 -24.5 49q0 35 32 57t69 22q42 0 64.5 -17.5
t22.5 -50.5q0 -37 -30 -58t-70 -21q-39 0 -63.5 19z" />
    <glyph glyph-name="eth" unicode="&#xf0;" horiz-adv-x="646" 
d="M485 794l-76 -66q96 -72 146 -178t50 -232q0 -164 -73 -247.5t-226 -83.5q-79 0 -142 33t-98 92t-35 133q0 83 36 146t99.5 97t143.5 34q46 0 83.5 -14.5t61.5 -37.5q-10 56 -40 105.5t-76 87.5l-80 -73l-51 42l76 70q-62 36 -135 51l13 73q98 -10 188 -60l54 49l27 26z
M230.5 395q-23.5 -49 -23.5 -142q0 -45 15 -89t41.5 -72.5t58.5 -28.5q63 0 90.5 60t27.5 156q0 34 -4 52q-10 44 -43.5 78.5t-74.5 34.5q-64 0 -87.5 -49z" />
    <glyph glyph-name="ntilde" unicode="&#xf1;" horiz-adv-x="716" 
d="M42 0zM108 79v321l-66 47v61l181 54l37 -9v-73q38 38 94.5 60t109.5 22q89 0 125 -55t36 -165v-263l68 -13v-66h-311v66l70 14v240q0 54 -7 80.5t-27.5 37.5t-62.5 11q-13 0 -39 -7.5t-35 -14.5v-347l60 -14v-66h-294v66zM198.5 764.5q25.5 23.5 57.5 38.5t58 15
q27 0 47.5 -7.5t42.5 -21.5q16 -10 28 -15t25 -5q24 0 42.5 9.5t38.5 25.5l44 -48q-16 -39 -62.5 -71t-84.5 -32q-26 0 -46 7.5t-46 22.5q-19 11 -30.5 16t-24.5 5q-18 0 -39.5 -10t-42.5 -26l-42 48q9 25 34.5 48.5z" />
    <glyph glyph-name="ograve" unicode="&#xf2;" horiz-adv-x="652" 
d="M35 0zM545 492q72 -71 72 -203q0 -91 -37 -159t-103.5 -105t-154.5 -37q-138 0 -212.5 75.5t-72.5 210.5q3 134 83 209.5t216 79.5q137 0 209 -71zM246.5 435.5q-25.5 -55.5 -25.5 -147.5t25 -160t82 -68q61 0 83.5 61t22.5 159q0 92 -23 151.5t-79 59.5
q-60 0 -85.5 -55.5zM305.5 675q-45.5 24 -87 61t-66.5 73l124 95l154 -208l-43 -43q-36 -2 -81.5 22z" />
    <glyph glyph-name="oacute" unicode="&#xf3;" horiz-adv-x="652" 
d="M35 0zM545 492q72 -71 72 -203q0 -91 -37 -159t-103.5 -105t-154.5 -37q-138 0 -212.5 75.5t-72.5 210.5q3 134 83 209.5t216 79.5q137 0 209 -71zM246.5 435.5q-25.5 -55.5 -25.5 -147.5t25 -160t82 -68q61 0 83.5 61t22.5 159q0 92 -23 151.5t-79 59.5
q-60 0 -85.5 -55.5zM416 904l124 -95q-31 -50 -96 -90.5t-139 -66.5l-43 44z" />
    <glyph glyph-name="ocircumflex" unicode="&#xf4;" horiz-adv-x="652" 
d="M35 0zM545 492q72 -71 72 -203q0 -91 -37 -159t-103.5 -105t-154.5 -37q-138 0 -212.5 75.5t-72.5 210.5q3 134 83 209.5t216 79.5q137 0 209 -71zM246.5 435.5q-25.5 -55.5 -25.5 -147.5t25 -160t82 -68q61 0 83.5 61t22.5 159q0 92 -23 151.5t-79 59.5
q-60 0 -85.5 -55.5zM266 867h124l135 -179l-71 -36l-126 101l-130 -101l-64 36z" />
    <glyph glyph-name="otilde" unicode="&#xf5;" horiz-adv-x="652" 
d="M35 0zM545 492q72 -71 72 -203q0 -91 -37 -159t-103.5 -105t-154.5 -37q-138 0 -212.5 75.5t-72.5 210.5q3 134 83 209.5t216 79.5q137 0 209 -71zM246.5 435.5q-25.5 -55.5 -25.5 -147.5t25 -160t82 -68q61 0 83.5 61t22.5 159q0 92 -23 151.5t-79 59.5
q-60 0 -85.5 -55.5zM154.5 764.5q25.5 23.5 57.5 38.5t58 15q27 0 47.5 -7.5t42.5 -21.5q16 -10 28 -15t25 -5q24 0 42.5 9.5t38.5 25.5l44 -48q-16 -39 -62.5 -71t-84.5 -32q-26 0 -46 7.5t-46 22.5q-19 11 -30.5 16t-24.5 5q-18 0 -39.5 -10t-42.5 -26l-42 48
q9 25 34.5 48.5z" />
    <glyph glyph-name="odieresis" unicode="&#xf6;" horiz-adv-x="652" 
d="M35 0zM545 492q72 -71 72 -203q0 -91 -37 -159t-103.5 -105t-154.5 -37q-138 0 -212.5 75.5t-72.5 210.5q3 134 83 209.5t216 79.5q137 0 209 -71zM246.5 435.5q-25.5 -55.5 -25.5 -147.5t25 -160t82 -68q61 0 83.5 61t22.5 159q0 92 -23 151.5t-79 59.5
q-60 0 -85.5 -55.5zM131 676.5q-25 18.5 -25 49.5q0 35 31.5 57.5t68.5 22.5q40 0 65 -17.5t25 -51.5q0 -36 -32 -57.5t-71 -21.5q-37 0 -62 18.5zM386.5 678q-24.5 19 -24.5 49q0 35 32 57t69 22q42 0 64.5 -17.5t22.5 -50.5q0 -37 -30 -58t-70 -21q-39 0 -63.5 19z" />
    <glyph glyph-name="divide" unicode="&#xf7;" horiz-adv-x="684" 
d="M438 734q25 -24 25 -68q0 -47 -34 -77t-81 -30q-41 0 -69 26t-28 65q0 28 16.5 53t42.5 40t55 15q48 0 73 -24zM594 353h-505v115h505v-115zM437 237.5q26 -23.5 26 -68.5q0 -46 -34.5 -76.5t-80.5 -30.5q-41 0 -69 26t-28 65q0 29 16.5 54t43 39.5t54.5 14.5
q46 0 72 -23.5z" />
    <glyph glyph-name="oslash" unicode="&#xf8;" horiz-adv-x="652" 
d="M79.5 100q-42.5 69 -42.5 167q0 137 80.5 214.5t217.5 81.5q27 0 53 -3l24 80l54 -13l-24 -78q87 -23 131 -91.5t44 -168.5q0 -91 -37 -159t-104 -105t-154 -37q-21 0 -57 4l-28 -92l-55 13l28 90q-88 28 -130.5 97zM331 491q-60 0 -85.5 -57.5t-25.5 -145.5
q0 -44 8 -91.5t22 -76.5l112 365q-13 6 -31 6zM327 60q60 0 83 60t23 160q0 110 -27 160l-113 -372q16 -8 34 -8z" />
    <glyph glyph-name="ugrave" unicode="&#xf9;" horiz-adv-x="650" 
d="M292 674q-45 23 -87 60t-68 75l125 95l154 -208l-43 -43q-36 -2 -81 21zM26 458v60l186 44l26 -8v-340q0 -68 15.5 -100t59.5 -32q24 0 49 6.5t38 18.5v309l-62 34v68l204 44l27 -8v-488h56v-52q-17 -12 -62 -20t-76 -8t-50.5 13.5t-19.5 40.5v19q-24 -29 -73 -51
t-88 -22q-103 0 -143.5 49t-40.5 156v233z" />
    <glyph glyph-name="uacute" unicode="&#xfa;" horiz-adv-x="650" 
d="M401 904l124 -95q-30 -50 -96 -91t-139 -66l-43 44zM26 458v60l186 44l26 -8v-340q0 -68 15.5 -100t59.5 -32q24 0 49 6.5t38 18.5v309l-62 34v68l204 44l27 -8v-488h56v-52q-17 -12 -62 -20t-76 -8t-50.5 13.5t-19.5 40.5v19q-24 -29 -73 -51t-88 -22q-103 0 -143.5 49
t-40.5 156v233z" />
    <glyph glyph-name="ucircumflex" unicode="&#xfb;" horiz-adv-x="650" 
d="M252 867h124l135 -179l-71 -36l-126 101l-130 -101l-64 36zM26 458v60l186 44l26 -8v-340q0 -68 15.5 -100t59.5 -32q24 0 49 6.5t38 18.5v309l-62 34v68l204 44l27 -8v-488h56v-52q-17 -12 -62 -20t-76 -8t-50.5 13.5t-19.5 40.5v19q-24 -29 -73 -51t-88 -22
q-103 0 -143.5 49t-40.5 156v233z" />
    <glyph glyph-name="udieresis" unicode="&#xfc;" horiz-adv-x="650" 
d="M26 0zM26 458v60l186 44l26 -8v-340q0 -68 15.5 -100t59.5 -32q24 0 49 6.5t38 18.5v309l-62 34v68l204 44l27 -8v-488h56v-52q-17 -12 -62 -20t-76 -8t-50.5 13.5t-19.5 40.5v19q-24 -29 -73 -51t-88 -22q-103 0 -143.5 49t-40.5 156v233zM117 676.5q-25 18.5 -25 49.5
q0 35 31.5 57.5t68.5 22.5q40 0 65 -17.5t25 -51.5q0 -36 -32 -57.5t-71 -21.5q-37 0 -62 18.5zM372.5 678q-24.5 19 -24.5 49q0 35 32 57t69 22q42 0 64.5 -17.5t22.5 -50.5q0 -37 -30 -58t-70 -21q-39 0 -63.5 19z" />
    <glyph glyph-name="yacute" unicode="&#xfd;" horiz-adv-x="602" 
d="M2 0zM107.5 -134q14.5 -2 36.5 -1q45 0 75.5 37.5t45.5 97.5h-28l-192 446l-43 13v87h286v-87l-56 -12l97 -261l7 -50l15 50l79 262l-67 11v87h248v-87l-48 -10q-30 -75 -95 -238.5t-96 -237.5q-23 -62 -45 -104.5t-47 -71.5q-27 -31 -58.5 -46.5t-72.5 -15.5
q-24 0 -48 2t-30 6l1 130q21 -5 35.5 -7zM413 904l124 -95q-31 -50 -96 -90.5t-139 -66.5l-43 44z" />
    <glyph glyph-name="thorn" unicode="&#xfe;" horiz-adv-x="658" 
d="M256 787v-256q55 31 128 31q113 0 176 -72t63 -195q0 -85 -40.5 -156t-111.5 -112t-157 -41q-21 0 -65 4l7 -40v-117l104 -14v-69h-353v69l76 14v843l-61 28v68l206 23zM256 467v-369q10 -19 30.5 -30t45.5 -11q62 0 89 65.5t27 163.5q0 80 -35.5 135.5t-95.5 55.5
q-36 0 -61 -10z" />
    <glyph glyph-name="ydieresis" unicode="&#xff;" horiz-adv-x="602" 
d="M2 0zM107.5 -134q14.5 -2 36.5 -1q45 0 75.5 37.5t45.5 97.5h-28l-192 446l-43 13v87h286v-87l-56 -12l97 -261l7 -50l15 50l79 262l-67 11v87h248v-87l-48 -10q-30 -75 -95 -238.5t-96 -237.5q-23 -62 -45 -104.5t-47 -71.5q-27 -31 -58.5 -46.5t-72.5 -15.5
q-24 0 -48 2t-30 6l1 130q21 -5 35.5 -7zM129 676.5q-25 18.5 -25 49.5q0 35 31.5 57.5t68.5 22.5q40 0 65 -17.5t25 -51.5q0 -36 -32 -57.5t-71 -21.5q-37 0 -62 18.5zM384.5 678q-24.5 19 -24.5 49q0 35 32 57t69 22q42 0 64.5 -17.5t22.5 -50.5q0 -37 -30 -58t-70 -21
q-39 0 -63.5 19z" />
    <glyph glyph-name="Amacron" unicode="&#x100;" horiz-adv-x="781" 
d="M2 0zM524 924v-117h-276v117h276zM67 88l241 670h163l234 -671l74 -20v-67h-334v67l65 22l-21 75h-264l-22 -73l73 -23v-68h-274v68zM398 478l-36 134l-109 -358h210z" />
    <glyph glyph-name="amacron" unicode="&#x101;" horiz-adv-x="599" 
d="M34 0zM477 514.5q55 -47.5 55 -153.5v-295h64v-52q-20 -14 -55.5 -21t-70.5 -7q-37 0 -61 14.5t-27 41.5q-59 -56 -142 -56q-92 0 -149 41.5t-57 115.5q0 66 46 111t120.5 67t158.5 22v6q-1 66 -23.5 93t-80.5 27q-42 0 -88.5 -12t-72.5 -30l-33 75q36 29 107.5 44.5
t139.5 15.5q114 0 169 -47.5zM251.5 242q-42.5 -26 -42.5 -78q0 -41 20.5 -62.5t60.5 -21.5q44 0 69 21v167q-65 0 -107.5 -26zM452 773v-117h-276v117h276z" />
    <glyph glyph-name="Abreve" unicode="&#x102;" horiz-adv-x="781" 
d="M2 0zM550 874q-24 -38 -65.5 -60.5t-92.5 -22.5t-93 21.5t-66 60t-24 85.5h103q17 -68 80 -68t81 68h101q0 -46 -24 -84zM67 88l241 670h163l234 -671l74 -20v-67h-334v67l65 22l-21 75h-264l-22 -73l73 -23v-68h-274v68zM398 478l-36 134l-109 -358h210z" />
    <glyph glyph-name="abreve" unicode="&#x103;" horiz-adv-x="599" 
d="M34 0zM477 514.5q55 -47.5 55 -153.5v-295h64v-52q-20 -14 -55.5 -21t-70.5 -7q-37 0 -61 14.5t-27 41.5q-59 -56 -142 -56q-92 0 -149 41.5t-57 115.5q0 66 46 111t120.5 67t158.5 22v6q-1 66 -23.5 93t-80.5 27q-42 0 -88.5 -12t-72.5 -30l-33 75q36 29 107.5 44.5
t139.5 15.5q114 0 169 -47.5zM251.5 242q-42.5 -26 -42.5 -78q0 -41 20.5 -62.5t60.5 -21.5q44 0 69 21v167q-65 0 -107.5 -26zM478.5 741q-24.5 -39 -66 -62t-91.5 -23q-52 0 -93.5 23t-65.5 62t-24 86h103q18 -73 80 -73q31 0 51.5 20t29.5 53h101q0 -47 -24.5 -86z" />
    <glyph glyph-name="Aogonek" unicode="&#x104;" horiz-adv-x="781" 
d="M67 88l241 670h163l234 -671l74 -20v-67h-116q-54 -18 -100 -51t-46 -67q0 -28 37 -28q29 0 51.5 6t64.5 21l18 -66q-93 -66 -222 -66q-46 0 -75 22.5t-29 57.5q0 32 27.5 66.5t69.5 62.5t84 42h-98v67l65 22l-21 75h-264l-22 -73l73 -23v-68h-274v68zM398 478l-36 134
l-109 -358h210z" />
    <glyph glyph-name="aogonek" unicode="&#x105;" horiz-adv-x="599" 
d="M477 514.5q55 -47.5 55 -153.5v-295h64v-52q-56 -34 -86.5 -64t-30.5 -63q0 -42 58 -42q21 0 56 7v-72q-23 -16 -53 -24.5t-63 -8.5q-58 0 -96 24t-38 71q0 81 102 147q-27 4 -45 18t-18 35q-59 -56 -142 -56q-92 0 -149 41.5t-57 115.5q0 67 47 112t121 66.5t157 21.5v4
q0 67 -23 94.5t-81 27.5q-42 0 -88.5 -12t-72.5 -30l-33 75q36 29 107.5 44.5t139.5 15.5q114 0 169 -47.5zM250.5 241.5q-41.5 -26.5 -41.5 -77.5q0 -41 20.5 -62.5t60.5 -21.5q44 0 69 21v167q-67 0 -108.5 -26.5z" />
    <glyph glyph-name="Cacute" unicode="&#x106;" horiz-adv-x="720" 
d="M33 0zM650 739l20 -5l-10 -190h-102l-36 100q-7 12 -28.5 21.5t-76.5 9.5q-61 0 -104 -37t-65 -100t-22 -140q0 -84 23.5 -159.5t69 -122t109.5 -46.5q45 0 76 8.5t41 30.5l40 98h85v-174q-7 0 -46 -11q-53 -16 -100.5 -26t-107.5 -10q-114 0 -201 45t-134.5 128.5
t-47.5 194.5q0 115 57 209t155.5 148t217.5 54q86 0 187 -26zM517 938l94 -94q-31 -24 -106.5 -43.5t-130.5 -22.5l-49 52z" />
    <glyph glyph-name="cacute" unicode="&#x107;" horiz-adv-x="554" 
d="M37 0zM448.5 555.5q49.5 -6.5 71.5 -18.5v-155h-89l-39 92q-20 12 -64 12q-57 0 -84.5 -56.5t-27.5 -141.5q0 -93 41 -149t118 -56q37 0 76 9t61 25l26 -61q-39 -34 -97.5 -52t-132.5 -18q-83 0 -144.5 34t-94 96t-32.5 144q0 90 40.5 158.5t113.5 106t166 37.5
q42 0 91.5 -6.5zM416 904l124 -95q-31 -50 -96 -90.5t-139 -66.5l-43 44z" />
    <glyph glyph-name="Ccaron" unicode="&#x10c;" horiz-adv-x="720" 
d="M33 0zM650 739l20 -5l-10 -190h-102l-36 100q-7 12 -28.5 21.5t-76.5 9.5q-61 0 -104 -37t-65 -100t-22 -140q0 -84 23.5 -159.5t69 -122t109.5 -46.5q45 0 76 8.5t41 30.5l40 98h85v-174q-7 0 -46 -11q-53 -16 -100.5 -26t-107.5 -10q-114 0 -201 45t-134.5 128.5
t-47.5 194.5q0 115 57 209t155.5 148t217.5 54q86 0 187 -26zM262 938l137 -63l143 63l54 -36l-139 -122h-113l-137 122z" />
    <glyph glyph-name="ccaron" unicode="&#x10d;" horiz-adv-x="554" 
d="M37 0zM448.5 555.5q49.5 -6.5 71.5 -18.5v-155h-89l-39 92q-20 12 -64 12q-57 0 -84.5 -56.5t-27.5 -141.5q0 -93 41 -149t118 -56q37 0 76 9t61 25l26 -61q-39 -34 -97.5 -52t-132.5 -18q-83 0 -144.5 34t-94 96t-32.5 144q0 90 40.5 158.5t113.5 106t166 37.5
q42 0 91.5 -6.5zM200 867l130 -101l126 100l71 -36l-135 -178h-124l-132 179z" />
    <glyph glyph-name="Dcaron" unicode="&#x10e;" horiz-adv-x="789" 
d="M44 0zM115 88v580l-69 10v80h160q22 0 41 1t34 2q62 4 96 4q186 0 283 -93t97 -271q0 -123 -48.5 -214.5t-137 -141.5t-207.5 -50q-26 0 -76 2q-39 3 -79 3h-165v68zM365 71q26 0 40 2q54 4 92 47t57.5 108t19.5 137q0 322 -208 322q-51 0 -76 -14v-586q25 -16 75 -16z
M219 938l137 -63l143 63l54 -36l-139 -122h-113l-137 122z" />
    <glyph glyph-name="dcaron" unicode="&#x10f;" horiz-adv-x="751" 
d="M36 0zM585 783v-717h69v-52q-20 -11 -58 -19.5t-90 -8.5q-60 0 -81 35q-27 -19 -69.5 -27t-87.5 -8q-69 0 -122 37t-81.5 100.5t-28.5 140.5q0 86 43 154t115.5 106t159.5 38q33 0 58 -4v118l-108 28v68l249 24zM271 467.5q-28 -28.5 -41.5 -73.5t-13.5 -93
q-2 -60 12 -114t43.5 -88t73.5 -34q42 0 67 10v404q-26 17 -74 17q-39 0 -67 -28.5zM631 513q5 45 6 87.5t1 73.5q0 33 -8 65t-17 43l7 21l127 32q14 -15 23 -59.5t9 -86.5q0 -54 -17.5 -111t-41.5 -97l-84 19z" />
    <glyph glyph-name="Dcroat" unicode="&#x110;" horiz-adv-x="787" 
d="M24 0zM115 88v256h-91v101h91v223l-69 10v80h160q22 0 41 1t34 2q62 4 96 4q186 0 283 -93t97 -271q0 -123 -48.5 -214.5t-137 -141.5t-207.5 -50q-26 0 -76 2q-39 3 -79 3h-165v68zM365 71q26 0 40 2q54 4 92 47t57.5 108t19.5 137q0 161 -52 240.5t-156 81.5
q-51 0 -76 -14v-228h133v-101h-133v-257q25 -16 75 -16z" />
    <glyph glyph-name="dcroat" unicode="&#x111;" horiz-adv-x="675" 
d="M585 570v-504h69v-52q-20 -11 -58 -19.5t-90 -8.5q-60 0 -81 35q-27 -19 -69.5 -27t-87.5 -8q-69 0 -122 34.5t-81.5 93.5t-28.5 130q0 91 42 153.5t114.5 93.5t161.5 31q33 0 58 -4v52h-189v62h189v44l-108 28v68l249 24l32 -13v-151h78v-62h-78zM412 439q-26 17 -74 17
q-61 0 -91.5 -50t-30.5 -145q0 -43 13.5 -88.5t43 -76.5t72.5 -31q42 0 67 10v364z" />
    <glyph glyph-name="Emacron" unicode="&#x112;" horiz-adv-x="696" 
d="M49 0zM121 87v580l-69 11v80h554l15 -167h-100l-46 78l-181 11v-254l125 5l27 73h88v-238h-88l-27 77l-125 3v-268l215 14l62 96l101 -18l-26 -170h-597v68zM506 924v-117h-276v117h276z" />
    <glyph glyph-name="emacron" unicode="&#x113;" horiz-adv-x="605" 
d="M36 0zM504.5 506.5q58.5 -55.5 58.5 -161.5q0 -44 -7 -86h-340q7 -87 45 -131t110 -44q80 0 155 33l26 -61q-39 -33 -104.5 -51.5t-125.5 -18.5q-137 0 -211.5 71.5t-74.5 201.5q0 88 38 157t106 107.5t155 38.5q111 0 169.5 -55.5zM216 337h179q4 36 4 61q0 96 -79 96
q-91 0 -104 -157zM462 773v-117h-276v117h276z" />
    <glyph glyph-name="Edotaccent" unicode="&#x116;" horiz-adv-x="696" 
d="M49 0zM121 87v580l-69 11v80h554l15 -167h-100l-46 78l-181 11v-254l125 5l27 73h88v-238h-88l-27 77l-125 3v-268l215 14l62 96l101 -18l-26 -170h-597v68zM436.5 921q25.5 -17 25.5 -52t-31.5 -57t-72.5 -22q-35 0 -60.5 17.5t-25.5 49.5q0 35 30.5 58t69.5 23
t64.5 -17z" />
    <glyph glyph-name="edotaccent" unicode="&#x117;" horiz-adv-x="605" 
d="M36 0zM504.5 506.5q58.5 -55.5 58.5 -161.5q0 -44 -7 -86h-340q7 -87 45 -131t110 -44q80 0 155 33l26 -61q-39 -33 -104.5 -51.5t-125.5 -18.5q-137 0 -211.5 71.5t-74.5 201.5q0 88 38 157t106 107.5t155 38.5q111 0 169.5 -55.5zM216 337h179q4 36 4 61q0 96 -79 96
q-91 0 -104 -157zM387 778.5q25 -17.5 25 -51.5q0 -36 -32 -57.5t-71 -21.5q-37 0 -62 18.5t-25 49.5q0 35 31.5 57.5t68.5 22.5q40 0 65 -17.5z" />
    <glyph glyph-name="Eogonek" unicode="&#x118;" horiz-adv-x="696" 
d="M121 87v580l-69 11v80h554l15 -167h-100l-46 78l-181 11v-254l125 5l27 73h88v-238h-88l-27 77l-125 3v-268l215 14l62 96l101 -18l-26 -170h-20q-56 -19 -100 -51.5t-44 -66.5q0 -28 36 -28q29 0 51.5 6t64.5 21l17 -66q-92 -66 -221 -66q-47 0 -75.5 22.5t-28.5 61.5
q0 30 27.5 63.5t70 61.5t83.5 42h-458v68z" />
    <glyph glyph-name="eogonek" unicode="&#x119;" horiz-adv-x="605" 
d="M504.5 506.5q58.5 -55.5 58.5 -161.5q0 -44 -7 -86h-340q7 -87 45 -131t110 -44q80 0 155 33l26 -61q-122 -105 -122 -162q0 -24 26.5 -36t65.5 -12q27 0 51 6v-67q-22 -16 -64.5 -26t-75.5 -10q-57 0 -92.5 20.5t-35.5 64.5q0 52 27 89t80 73q-46 -10 -99 -10
q-133 3 -205 74t-72 199q0 88 38 157t106 107.5t155 38.5q111 0 169.5 -55.5zM216 337h179q4 36 4 61q0 96 -79 96q-91 0 -104 -157z" />
    <glyph glyph-name="Ecaron" unicode="&#x11a;" horiz-adv-x="696" 
d="M49 0zM121 87v580l-69 11v80h554l15 -167h-100l-46 78l-181 11v-254l125 5l27 73h88v-238h-88l-27 77l-125 3v-268l215 14l62 96l101 -18l-26 -170h-597v68zM219 938l137 -63l143 63l54 -36l-139 -122h-113l-137 122z" />
    <glyph glyph-name="ecaron" unicode="&#x11b;" horiz-adv-x="605" 
d="M36 0zM504.5 506.5q58.5 -55.5 58.5 -161.5q0 -44 -7 -86h-340q7 -87 45 -131t110 -44q80 0 155 33l26 -61q-39 -33 -104.5 -51.5t-125.5 -18.5q-137 0 -211.5 71.5t-74.5 201.5q0 88 38 157t106 107.5t155 38.5q111 0 169.5 -55.5zM216 337h179q4 36 4 61q0 96 -79 96
q-91 0 -104 -157zM190 867l130 -101l126 100l71 -36l-135 -178h-124l-132 179z" />
    <glyph glyph-name="Gbreve" unicode="&#x11e;" horiz-adv-x="774" 
d="M32 0zM571.5 757.5q73.5 -7.5 113.5 -19.5l-11 -167h-88l-45 88q-9 10 -39 19.5t-76 9.5q-67 0 -113.5 -39t-69.5 -103.5t-23 -141.5q0 -146 46 -243t146 -97q42 0 82 18t44 44v125l-103 14v81h302v-81l-46 -12v-227q-16 2 -24 2q-24 0 -52 -5t-72 -14q-55 -11 -91.5 -17
t-70.5 -6q-103 0 -182.5 49.5t-123 135.5t-43.5 194q0 122 50.5 212.5t142 139t211.5 48.5q62 0 135.5 -7.5zM582 854q-24 -38 -65.5 -60.5t-92.5 -22.5t-93 21.5t-66 60t-24 85.5h103q17 -68 80 -68t81 68h101q0 -46 -24 -84z" />
    <glyph glyph-name="gbreve" unicode="&#x11f;" horiz-adv-x="623" 
d="M33 0zM474 516q22 46 109 46h43v-118h-101q9 -27 9 -60q0 -97 -70 -146t-182 -49q-50 0 -86 7q-8 -19 -8 -35q0 -29 17.5 -42.5t52.5 -13.5h115q82 0 132.5 -13.5t76.5 -48t26 -97.5q0 -67 -45 -113.5t-118.5 -69t-160.5 -22.5q-114 0 -182 33.5t-68 110.5
q0 42 22.5 76.5t59.5 55.5q-32 13 -43 33.5t-11 58.5q0 25 20.5 56.5t45.5 52.5q-95 46 -95 150q0 63 36.5 107t97.5 65.5t135 21.5q112 0 172 -46zM224.5 469.5q-22.5 -24.5 -22.5 -64.5q0 -65 21 -101.5t71 -36.5q41 0 61 31.5t20 79.5q0 56 -23 86t-67 30
q-38 0 -60.5 -24.5zM180 -67q0 -57 38.5 -86t98.5 -29q69 0 101 18t32 71q0 54 -24 73.5t-86 19.5h-86q-42 0 -60 2q-14 -28 -14 -69zM448.5 741q-24.5 -39 -66 -62t-91.5 -23q-52 0 -93.5 23t-65.5 62t-24 86h103q18 -73 80 -73q31 0 51.5 20t29.5 53h101q0 -47 -24.5 -86z
" />
    <glyph glyph-name="Gcommaaccent" unicode="&#x122;" horiz-adv-x="774" 
d="M32 0zM571.5 757.5q73.5 -7.5 113.5 -19.5l-11 -167h-88l-45 88q-9 10 -39 19.5t-76 9.5q-67 0 -113.5 -39t-69.5 -103.5t-23 -141.5q0 -146 46 -243t146 -97q42 0 82 18t44 44v125l-103 14v81h302v-81l-46 -12v-227q-16 2 -24 2q-24 0 -52 -5t-72 -14q-55 -11 -91.5 -17
t-70.5 -6q-103 0 -182.5 49.5t-123 135.5t-43.5 194q0 122 50.5 212.5t142 139t211.5 48.5q62 0 135.5 -7.5zM481.5 -58.5q35.5 -38.5 35.5 -98.5q0 -50 -38 -95t-86 -61l-62 25v11q26 22 36.5 37.5t10.5 37.5q0 27 -19 46t-42 19v38l72 79q57 0 92.5 -38.5z" />
    <glyph glyph-name="gcommaaccent" unicode="&#x123;" horiz-adv-x="623" 
d="M33 0zM474 516q22 46 109 46h43v-118h-101q9 -27 9 -60q0 -97 -70 -146t-182 -49q-50 0 -86 7q-8 -19 -8 -35q0 -29 17.5 -42.5t52.5 -13.5h115q82 0 132.5 -13.5t76.5 -48t26 -97.5q0 -67 -45 -113.5t-118.5 -69t-160.5 -22.5q-114 0 -182 33.5t-68 110.5
q0 42 22.5 76.5t59.5 55.5q-32 13 -43 33.5t-11 58.5q0 25 20.5 56.5t45.5 52.5q-95 46 -95 150q0 63 36.5 107t97.5 65.5t135 21.5q112 0 172 -46zM224.5 469.5q-22.5 -24.5 -22.5 -64.5q0 -65 21 -101.5t71 -36.5q41 0 61 31.5t20 79.5q0 56 -23 86t-67 30
q-38 0 -60.5 -24.5zM180 -67q0 -57 38.5 -86t98.5 -29q69 0 101 18t32 71q0 54 -24 73.5t-86 19.5h-86q-42 0 -60 2q-14 -28 -14 -69zM231.5 689.5q-35.5 38.5 -35.5 98.5q0 50 38 95t86 61l62 -25v-11q-26 -22 -36.5 -37.5t-10.5 -37.5q0 -27 19 -46t42 -19v-38l-72 -79
q-57 0 -92.5 38.5z" />
    <glyph glyph-name="hbar" unicode="&#x127;" horiz-adv-x="696" 
d="M99 80v490h-78v62h78v44l-66 28v68l211 24l28 -9v-155h89v-62h-89v-23l-10 -50q72 65 181 65q69 0 104.5 -30.5t47 -85t10.5 -140.5v-226l67 -14v-66l-310 1v65l71 14v202q0 62 -5.5 97t-25 55.5t-60.5 20.5q-42 0 -70 -22v-354l48 -13v-66h-291v66z" />
    <glyph glyph-name="Itilde" unicode="&#x128;" horiz-adv-x="414" 
d="M30 884.5q26 23.5 58.5 38.5t56.5 15q22 0 41 -7t46 -21q20 -11 32 -16t24 -5q43 0 81 34l44 -47q-16 -38 -61 -65.5t-86 -27.5q-24 0 -43.5 7.5t-44.5 21.5q-21 11 -33.5 16t-25.5 5q-40 0 -82 -35l-42 38q9 25 35 48.5zM119 88v579l-92 11v80h355v-80l-87 -12v-577
l92 -21v-68h-360v68z" />
    <glyph glyph-name="itilde" unicode="&#x129;" horiz-adv-x="365" 
d="M0 0zM104 80v304l-62 70v46l193 62l42 -12v-471l70 -13v-66h-308v66zM15.5 764.5q25.5 23.5 57.5 38.5t58 15q27 0 47.5 -7.5t42.5 -21.5q16 -10 28 -15t25 -5q24 0 42.5 9.5t38.5 25.5l44 -48q-16 -39 -62.5 -71t-84.5 -32q-26 0 -46 7.5t-46 22.5q-19 11 -30.5 16
t-24.5 5q-18 0 -39.5 -10t-42.5 -26l-42 48q9 25 34.5 48.5z" />
    <glyph glyph-name="Imacron" unicode="&#x12a;" horiz-adv-x="414" 
d="M27 0zM345 924v-117h-276v117h276zM119 88v579l-92 11v80h355v-80l-87 -12v-577l92 -21v-68h-360v68z" />
    <glyph glyph-name="imacron" unicode="&#x12b;" horiz-adv-x="365" 
d="M39 0zM104 80v304l-62 70v46l193 62l42 -12v-471l70 -13v-66h-308v66zM319 773v-117h-276v117h276z" />
    <glyph glyph-name="Iogonek" unicode="&#x12e;" horiz-adv-x="414" 
d="M292.5 -25q-34.5 -19 -58.5 -44t-24 -49q0 -28 36 -28q21 0 37 4.5t41 14.5l19 8l17 -66q-77 -66 -202 -66q-46 0 -75 22.5t-29 59.5q0 31 27.5 64.5t70 61.5t84.5 43h-209v68l92 20v579l-92 11v80h355v-80l-87 -12v-577l92 -21v-68h-32q-28 -6 -62.5 -25z" />
    <glyph glyph-name="iogonek" unicode="&#x12f;" horiz-adv-x="365" 
d="M104 673q-29 26 -29 66q0 30 17.5 55t45 39.5t56.5 14.5q48 0 74 -24.5t26 -67.5q0 -48 -35.5 -78.5t-83.5 -30.5q-42 0 -71 26zM350 -185q-92 -66 -221 -66q-47 0 -75.5 22.5t-28.5 61.5q0 31 27.5 64.5t70 61t83.5 41.5h-167v66l65 14v304l-62 70v46l193 62l42 -12
v-471l70 -13v-66h-22q-52 -17 -98 -49.5t-46 -68.5q0 -28 36 -28q28 0 53 6.5t63 20.5z" />
    <glyph glyph-name="Idotaccent" unicode="&#x130;" horiz-adv-x="414" 
d="M27 0zM119 88v579l-92 11v80h355v-80l-87 -12v-577l92 -21v-68h-360v68zM274.5 921q25.5 -17 25.5 -52t-31.5 -57t-72.5 -22q-35 0 -60.5 17.5t-25.5 49.5q0 35 30.5 58t69.5 23t64.5 -17z" />
    <glyph glyph-name="dotlessi" unicode="&#x131;" horiz-adv-x="365" 
d="M104 80v304l-62 70v46l193 62l42 -12v-471l70 -13v-66h-308v66z" />
    <glyph glyph-name="IJ" unicode="&#x132;" horiz-adv-x="798" 
d="M119 88v579l-92 11v80h355v-80l-87 -12v-577l92 -21v-68h-360v68zM448.5 -95.5q35.5 28.5 54.5 72.5q16 45 20 94t4 127v469l-72 11v80h318v-80l-69 -11v-406q0 -91 -7 -166.5t-23 -114.5q-21 -51 -69 -90.5t-105.5 -61t-106.5 -21.5l-34 49q54 20 89.5 48.5z" />
    <glyph glyph-name="ij" unicode="&#x133;" horiz-adv-x="699" 
d="M39 0zM268 823.5q26 -24.5 26 -67.5q0 -48 -35.5 -78.5t-83.5 -30.5q-42 0 -71 26t-29 66q0 30 17.5 55t45 39.5t56.5 14.5q48 0 74 -24.5zM277 550v-471l70 -13v-66h-308v66l65 14v304l-62 70v46l193 62zM613.5 823.5q26.5 -24.5 26.5 -67.5q0 -46 -35 -77.5t-84 -31.5
q-42 0 -71 26t-29 66q0 30 17.5 55t45 39.5t56.5 14.5q47 0 73.5 -24.5zM632 549v-572q0 -109 -48 -175.5t-137 -66.5q-24 0 -57 6t-45 12v92q10 -2 27.5 -4t32.5 -2q25 0 37 20t14.5 51t2.5 87v387l-54 72v43l187 63z" />
    <glyph glyph-name="Jcircumflex" unicode="&#x134;" horiz-adv-x="383" 
d="M388 815l-55 -35l-133 63l-137 -63l-55 35l135 123h113zM359 678l-69 -11v-406q0 -91 -7 -166.5t-23 -114.5q-21 -51 -69 -90.5t-105.5 -61t-106.5 -21.5l-34 49q54 20 89.5 48.5t54.5 72.5q16 45 20 94t4 127v469l-72 11v80h318v-80z" />
    <glyph glyph-name="jcircumflex" unicode="&#x135;" horiz-adv-x="334" 
d="M115 896h124l135 -179l-71 -36l-126 101l-130 -101l-64 36zM40 456v43l187 63l40 -13v-572q0 -109 -48 -175.5t-137 -66.5q-24 0 -57 6t-45 12v92q10 -2 27.5 -4t32.5 -2q25 0 37 20t14.5 51t2.5 87v387z" />
    <glyph glyph-name="Kcommaaccent" unicode="&#x136;" horiz-adv-x="750" 
d="M21 0zM115 89v577l-94 12v80h354v-80l-87 -12v-277l224 278l-77 11l-2 80h302v-80l-91 -12l-210 -232q30 -27 62.5 -73t82.5 -125q46 -73 70.5 -108t41.5 -42l63 -18v-68h-206q-20 1 -40.5 35.5t-55.5 110.5q-31 70 -56.5 116.5t-52.5 71.5l-55 -62v-183l98 -21v-68h-364
v68zM452.5 -58.5q35.5 -38.5 35.5 -98.5q0 -50 -38 -95t-86 -61l-62 25v11q26 22 36.5 37.5t10.5 37.5q0 27 -19 46t-42 19v38l72 79q57 0 92.5 -38.5z" />
    <glyph glyph-name="kcommaaccent" unicode="&#x137;" horiz-adv-x="663" 
d="M21 0zM99 81v579l-78 35v69l221 32l30 -13v-436l-6 -69l159 171l-90 10v87h312v-87l-99 -9l-118 -113l167 -260l50 -10v-67h-289v67l41 14l-82 153l-50 -57l4 -40v-58l58 -13v-66h-295v66zM395.5 -58.5q35.5 -38.5 35.5 -98.5q0 -50 -38 -95t-86 -61l-62 25v11
q26 22 36.5 37.5t10.5 37.5q0 27 -19 46t-42 19v38l72 79q57 0 92.5 -38.5z" />
    <glyph glyph-name="kgreenlandic" unicode="&#x138;" horiz-adv-x="663" 
d="M99 81v319l-66 46v62l181 54l58 -16v-200l-6 -68l159 171l-90 10v87h312v-87l-99 -9l-118 -113l167 -260l50 -10v-67h-289v67l41 14l-82 153l-50 -57l4 -40v-58l58 -13v-66h-295v66z" />
    <glyph glyph-name="Lacute" unicode="&#x139;" horiz-adv-x="631" 
d="M45 0zM115 87v571l-67 10v90h331v-90l-89 -11v-577l176 19l81 115l75 -27l-34 -187h-543v68zM317 938l94 -94q-31 -24 -106.5 -43.5t-130.5 -22.5l-49 52z" />
    <glyph glyph-name="lacute" unicode="&#x13a;" horiz-adv-x="359" 
d="M26 0zM92 79v597l-66 28v68l210 24l29 -9v-706l85 -15v-66h-316v66zM272 1085l124 -95q-31 -50 -96 -90.5t-139 -66.5l-43 44z" />
    <glyph glyph-name="Lcommaaccent" unicode="&#x13b;" horiz-adv-x="631" 
d="M45 0zM115 87v571l-67 10v90h331v-90l-89 -11v-577l176 19l81 115l75 -27l-34 -187h-543v68zM383.5 -58.5q35.5 -38.5 35.5 -98.5q0 -50 -38 -95t-86 -61l-62 25v11q26 22 36.5 37.5t10.5 37.5q0 27 -19 46t-42 19v38l72 79q57 0 92.5 -38.5z" />
    <glyph glyph-name="lcommaaccent" unicode="&#x13c;" horiz-adv-x="359" 
d="M26 0zM92 79v597l-66 28v68l210 24l29 -9v-706l85 -15v-66h-316v66zM239.5 -58.5q35.5 -38.5 35.5 -98.5q0 -50 -38 -95t-86 -61l-62 25v11q26 22 36.5 37.5t10.5 37.5q0 27 -19 46t-42 19v38l72 79q57 0 92.5 -38.5z" />
    <glyph glyph-name="Lcaron" unicode="&#x13d;" horiz-adv-x="631" 
d="M45 0zM115 87v571l-67 10v90h331v-90l-89 -11v-577l176 19l81 115l75 -27l-34 -187h-543v68zM456 513q5 45 6 87.5t1 73.5q0 33 -8 65t-17 43l7 21l127 32q14 -15 23 -59.5t9 -86.5q0 -54 -17.5 -111t-41.5 -97l-84 19z" />
    <glyph glyph-name="lcaron" unicode="&#x13e;" horiz-adv-x="359" 
d="M26 0zM92 79v597l-66 28v68l210 24l29 -9v-706l85 -15v-66h-316v66zM311 513q5 45 6 87.5t1 73.5q0 33 -8 65t-17 43l7 21l127 32q14 -15 23 -59.5t9 -86.5q0 -54 -17.5 -111t-41.5 -97l-84 19z" />
    <glyph glyph-name="Ldot" unicode="&#x13f;" horiz-adv-x="697" 
d="M379 668l-89 -11v-577l176 19l81 115l75 -27l-34 -187h-543v68l70 19v571l-67 10v90h331v-90zM677 489q27 -26 27 -69q0 -47 -36 -77t-83 -30q-41 0 -70 26t-29 65q0 29 17.5 55t45 41t54.5 15q47 0 74 -26z" />
    <glyph glyph-name="ldot" unicode="&#x140;" horiz-adv-x="559" 
d="M263 787v-706l86 -15v-66h-316v66l57 13v597l-66 28v68l211 24zM533.5 470.5q26.5 -25.5 26.5 -69.5q0 -46 -36 -76.5t-82 -30.5q-40 0 -69.5 25.5t-29.5 65.5q0 29 17 55t44.5 41t54.5 15q48 0 74.5 -25.5z" />
    <glyph glyph-name="Lslash" unicode="&#x141;" horiz-adv-x="629" 
d="M379 668l-89 -11v-196q52 22 76 33l126 54v-133l-202 -81v-254l176 19l81 115l75 -27l-34 -187h-543v68l70 19v177l-82 -33v59v60l82 35v273l-67 10v90h331v-90z" />
    <glyph glyph-name="lslash" unicode="&#x142;" horiz-adv-x="359" 
d="M92 79v236l-57 -19v121l57 21v238l-66 28v68l210 24l29 -9v-286l95 36v-129l-95 -33v-294l85 -15v-66h-316v66z" />
    <glyph glyph-name="Nacute" unicode="&#x143;" horiz-adv-x="833" 
d="M38 0zM805 669l-67 -11v-658h-192l-266 448l-53 132l1 -488l99 -24v-68h-289v68l77 22v567l-73 11v90h248l294 -511l43 -116v524l-88 14v89h266v-89zM547 938l94 -94q-31 -24 -106.5 -43.5t-130.5 -22.5l-49 52z" />
    <glyph glyph-name="nacute" unicode="&#x144;" horiz-adv-x="716" 
d="M460 904l125 -95q-30 -49 -95.5 -90.5t-139.5 -66.5l-43 44zM108 79v321l-66 47v61l181 54l37 -9v-73q38 38 94.5 60t109.5 22q89 0 125 -55t36 -165v-263l68 -13v-66h-311v66l70 14v240q0 54 -7 80.5t-27.5 37.5t-62.5 11q-13 0 -39 -7.5t-35 -14.5v-347l60 -14v-66
h-294v66z" />
    <glyph glyph-name="Ncommaaccent" unicode="&#x145;" horiz-adv-x="833" 
d="M38 0zM805 669l-67 -11v-658h-192l-266 448l-53 132l1 -488l99 -24v-68h-289v68l77 22v567l-73 11v90h248l294 -511l43 -116v524l-88 14v89h266v-89zM489.5 -58.5q35.5 -38.5 35.5 -98.5q0 -50 -38 -95t-86 -61l-62 25v11q26 22 36.5 37.5t10.5 37.5q0 27 -19 46t-42 19
v38l72 79q57 0 92.5 -38.5z" />
    <glyph glyph-name="ncommaaccent" unicode="&#x146;" horiz-adv-x="716" 
d="M42 0zM108 79v321l-66 47v61l181 54l37 -9v-73q38 38 94.5 60t109.5 22q89 0 125 -55t36 -165v-263l68 -13v-66h-311v66l70 14v240q0 54 -7 80.5t-27.5 37.5t-62.5 11q-13 0 -39 -7.5t-35 -14.5v-347l60 -14v-66h-294v66zM419.5 -58.5q35.5 -38.5 35.5 -98.5
q0 -50 -38 -95t-86 -61l-62 25v11q26 22 36.5 37.5t10.5 37.5q0 27 -19 46t-42 19v38l72 79q57 0 92.5 -38.5z" />
    <glyph glyph-name="Ncaron" unicode="&#x147;" horiz-adv-x="833" 
d="M38 0zM805 669l-67 -11v-658h-192l-266 448l-53 132l1 -488l99 -24v-68h-289v68l77 22v567l-73 11v90h248l294 -511l43 -116v524l-88 14v89h266v-89zM284 938l137 -63l143 63l54 -36l-139 -122h-113l-137 122z" />
    <glyph glyph-name="ncaron" unicode="&#x148;" horiz-adv-x="716" 
d="M42 0zM108 79v321l-66 47v61l181 54l37 -9v-73q38 38 94.5 60t109.5 22q89 0 125 -55t36 -165v-263l68 -13v-66h-311v66l70 14v240q0 54 -7 80.5t-27.5 37.5t-62.5 11q-13 0 -39 -7.5t-35 -14.5v-347l60 -14v-66h-294v66zM230 867l130 -101l126 100l71 -36l-135 -178
h-124l-132 179z" />
    <glyph glyph-name="Omacron" unicode="&#x14c;" horiz-adv-x="781" 
d="M34 0zM529 924v-117h-276v117h276zM584 717q79 -48 122.5 -132t43.5 -190q0 -117 -44.5 -210t-126 -146t-188.5 -53q-105 0 -186.5 48t-126 133t-44.5 192q0 105 41.5 193t115.5 143q92 70 210 70q104 0 183 -48zM262 602q-36 -83 -36 -233q0 -75 20 -145t58.5 -115
t92.5 -45q66 0 101.5 40t48 108.5t12.5 172.5q0 88 -21 156t-58 106t-84 38q-98 0 -134 -83z" />
    <glyph glyph-name="omacron" unicode="&#x14d;" horiz-adv-x="652" 
d="M35 0zM464 773v-117h-276v117h276zM545 492q72 -71 72 -203q0 -91 -37 -159t-103.5 -105t-154.5 -37q-138 0 -212.5 75.5t-72.5 210.5q3 134 83 209.5t216 79.5q137 0 209 -71zM246.5 435.5q-25.5 -55.5 -25.5 -147.5t25 -160t82 -68q61 0 83.5 61t22.5 159
q0 92 -23 151.5t-79 59.5q-60 0 -85.5 -55.5z" />
    <glyph glyph-name="Ohungarumlaut" unicode="&#x150;" horiz-adv-x="781" 
d="M34 0zM584 717q79 -48 122.5 -132t43.5 -190q0 -117 -44.5 -210t-126 -146t-188.5 -53q-105 0 -186.5 48t-126 133t-44.5 192q0 105 41.5 193t115.5 143q92 70 210 70q104 0 183 -48zM262 602q-36 -83 -36 -233q0 -75 20 -145t58.5 -115t92.5 -45q66 0 101.5 40t48 108.5
t12.5 172.5q0 88 -21 156t-58 106t-84 38q-98 0 -134 -83zM323 1019l108 -81q-34 -48 -88 -101t-92 -69l-70 48zM601 1019l112 -81q-46 -59 -97 -108.5t-88 -61.5l-67 48z" />
    <glyph glyph-name="ohungarumlaut" unicode="&#x151;" horiz-adv-x="652" 
d="M35 0zM545 492q72 -71 72 -203q0 -91 -37 -159t-103.5 -105t-154.5 -37q-138 0 -212.5 75.5t-72.5 210.5q3 134 83 209.5t216 79.5q137 0 209 -71zM246.5 435.5q-25.5 -55.5 -25.5 -147.5t25 -160t82 -68q61 0 83.5 61t22.5 159q0 92 -23 151.5t-79 59.5
q-60 0 -85.5 -55.5zM233 897l108 -81q-34 -48 -88 -101t-92 -69l-70 48zM511 897l112 -81q-46 -59 -97 -108.5t-88 -61.5l-67 48z" />
    <glyph glyph-name="OE" unicode="&#x152;" horiz-adv-x="1085" 
d="M475 758h515l15 -167h-86l-45 78l-181 11v-258l127 5l22 72h78v-239h-78l-22 78l-127 3v-263l223 14l62 96l87 -18l-26 -170h-548q-50 -14 -100 -14q-105 0 -186.5 48t-126 133t-44.5 192q0 113 48 206t131.5 146.5t187.5 53.5q40 0 74 -7zM261.5 601.5
q-35.5 -83.5 -35.5 -232.5q0 -75 19.5 -145t58.5 -115t93 -45q44 0 73.5 17t49.5 51v457q-24 46 -53.5 71t-70.5 25q-99 0 -134.5 -83.5z" />
    <glyph glyph-name="oe" unicode="&#x153;" horiz-adv-x="1059" 
d="M961 510q58 -52 62 -152q2 -44 -6 -99h-341q8 -87 46 -131t109 -44q80 0 156 33l26 -61q-39 -33 -105 -51.5t-126 -18.5q-161 0 -234 96q-38 -45 -99.5 -69.5t-126.5 -24.5q-138 0 -212.5 75.5t-72.5 210.5q3 134 83 209.5t216 79.5q160 2 232 -99q39 47 97 72.5
t131 25.5q107 0 165 -52zM705.5 450q-25.5 -44 -28.5 -113h178q4 36 4 61q0 96 -79 96q-49 0 -74.5 -44zM246 434q-25 -57 -25 -146q0 -92 25 -160t82 -68q61 0 83.5 61t22.5 159q0 92 -23 151.5t-79 59.5q-61 0 -86 -57z" />
    <glyph glyph-name="Racute" unicode="&#x154;" horiz-adv-x="745" 
d="M30 0zM585 717q81 -48 81 -150q0 -87 -40.5 -144t-124.5 -86q19 -12 26 -19q22 -21 42.5 -52.5t46.5 -77.5q29 -49 44.5 -72t30.5 -30l63 -18v-68h-206q-22 0 -42 36.5t-48 109.5q-34 85 -58 127t-53 42l-59 -1v-227l93 -19v-68h-351v68l85 21v573l-76 12v84h110
q46 0 128 4q52 3 94 3q133 0 214 -48zM311 684q-17 -1 -23 -5v-284q30 -4 50 -4q84 0 122.5 36.5t38.5 121.5q0 63 -41 99.5t-111 36.5q-19 0 -36 -1zM476 938l94 -94q-31 -24 -106.5 -43.5t-130.5 -22.5l-49 52z" />
    <glyph glyph-name="racute" unicode="&#x155;" horiz-adv-x="472" 
d="M42 0zM108 79v321l-66 47v61l181 54l35 -9v-95q7 27 30.5 51t53.5 38.5t56 14.5q41 0 53 -6v-154q-11 11 -37.5 17t-45.5 6q-28 0 -52.5 -5.5t-34.5 -12.5v-324l114 -17v-66h-347v66zM293 904l124 -95q-31 -50 -96 -90.5t-139 -66.5l-43 44z" />
    <glyph glyph-name="Rcommaaccent" unicode="&#x156;" horiz-adv-x="745" 
d="M30 0zM585 717q81 -48 81 -150q0 -87 -40.5 -144t-124.5 -86q19 -12 26 -19q22 -21 42.5 -52.5t46.5 -77.5q29 -49 44.5 -72t30.5 -30l63 -18v-68h-206q-22 0 -42 36.5t-48 109.5q-34 85 -58 127t-53 42l-59 -1v-227l93 -19v-68h-351v68l85 21v573l-76 12v84h110
q46 0 128 4q52 3 94 3q133 0 214 -48zM311 684q-17 -1 -23 -5v-284q30 -4 50 -4q84 0 122.5 36.5t38.5 121.5q0 63 -41 99.5t-111 36.5q-19 0 -36 -1zM499.5 -58.5q35.5 -38.5 35.5 -98.5q0 -50 -38 -95t-86 -61l-62 25v11q26 22 36.5 37.5t10.5 37.5q0 27 -19 46t-42 19v38
l72 79q57 0 92.5 -38.5z" />
    <glyph glyph-name="rcommaaccent" unicode="&#x157;" horiz-adv-x="472" 
d="M42 0zM108 79v321l-66 47v61l181 54l35 -9v-95q7 27 30.5 51t53.5 38.5t56 14.5q41 0 53 -6v-154q-11 11 -37.5 17t-45.5 6q-28 0 -52.5 -5.5t-34.5 -12.5v-324l114 -17v-66h-347v66zM277.5 -58.5q35.5 -38.5 35.5 -98.5q0 -50 -38 -95t-86 -61l-62 25v11
q26 22 36.5 37.5t10.5 37.5q0 27 -19 46t-42 19v38l72 79q57 0 92.5 -38.5z" />
    <glyph glyph-name="Rcaron" unicode="&#x158;" horiz-adv-x="745" 
d="M30 0zM585 717q81 -48 81 -150q0 -87 -40.5 -144t-124.5 -86q19 -12 26 -19q22 -21 42.5 -52.5t46.5 -77.5q29 -49 44.5 -72t30.5 -30l63 -18v-68h-206q-22 0 -42 36.5t-48 109.5q-34 85 -58 127t-53 42l-59 -1v-227l93 -19v-68h-351v68l85 21v573l-76 12v84h110
q46 0 128 4q52 3 94 3q133 0 214 -48zM311 684q-17 -1 -23 -5v-284q30 -4 50 -4q84 0 122.5 36.5t38.5 121.5q0 63 -41 99.5t-111 36.5q-19 0 -36 -1zM218 938l137 -63l143 63l54 -36l-139 -122h-113l-137 122z" />
    <glyph glyph-name="rcaron" unicode="&#x159;" horiz-adv-x="472" 
d="M0 0zM108 79v321l-66 47v61l181 54l35 -9v-95q7 27 30.5 51t53.5 38.5t56 14.5q41 0 53 -6v-154q-11 11 -37.5 17t-45.5 6q-28 0 -52.5 -5.5t-34.5 -12.5v-324l114 -17v-66h-347v66zM64 867l130 -101l126 100l71 -36l-135 -178h-124l-132 179z" />
    <glyph glyph-name="Sacute" unicode="&#x15a;" horiz-adv-x="643" 
d="M64 0zM182.5 -1.5q-77.5 12.5 -115.5 32.5v198h73l46 -118q22 -30 54.5 -39.5t82.5 -9.5q53 0 84.5 28t31.5 80q0 61 -112 120q-99 53 -149.5 85.5t-82 76.5t-31.5 105q0 62 36 109.5t96.5 73t129.5 25.5q53 0 130 -10t107 -25v-162h-81l-45 103q-12 10 -42.5 16.5
t-51.5 6.5q-49 0 -81.5 -20.5t-32.5 -59.5t23 -69.5t62.5 -56t113.5 -64.5q89 -46 137 -97t48 -121q0 -69 -39 -119t-105 -75.5t-147 -25.5q-62 0 -139.5 12.5zM395 938l94 -94q-31 -24 -106.5 -43.5t-130.5 -22.5l-49 52z" />
    <glyph glyph-name="Scedilla" unicode="&#x15e;" horiz-adv-x="643" 
d="M614 206q0 -96 -72.5 -153.5t-185.5 -65.5q-2 -30 1 -51q46 -4 75 -30.5t29 -63.5q0 -53 -41.5 -77.5t-109.5 -24.5q-23 0 -50 4.5t-55 10.5v73q11 -2 29 -4.5t32 -2.5q16 0 25 7.5t9 20.5t-8.5 20t-21.5 7l-29 -1q0 17 7 54.5t15 59.5q-58 5 -112.5 16t-83.5 26v198h73
l46 -118q22 -30 54.5 -39.5t82.5 -9.5q53 0 84.5 28t31.5 80q0 61 -112 120q-99 53 -149.5 85.5t-82 76.5t-31.5 105q0 62 36 109.5t96.5 73t129.5 25.5q53 0 130 -10t107 -25v-162h-81l-45 103q-12 10 -42.5 16.5t-51.5 6.5q-49 0 -81.5 -20.5t-32.5 -59.5t23 -69.5
t62.5 -56t113.5 -64.5q89 -46 137 -97t48 -121h1z" />
    <glyph glyph-name="scedilla" unicode="&#x15f;" horiz-adv-x="535" 
d="M506 165q0 -80 -58 -122.5t-153 -51.5q-1 -14 0 -29.5t3 -25.5q46 -4 75 -30.5t29 -63.5q0 -53 -41.5 -77.5t-109.5 -24.5q-23 0 -50 4.5t-55 10.5v73q11 -2 29 -4.5t32 -2.5q16 0 25 7.5t9 20.5t-8.5 20t-21.5 7l-29 -1q0 17 7 55t15 60q-43 4 -85 15t-70 27v129h80
l31 -54q29 -29 49 -41t52 -12q39 0 59.5 16.5t20.5 44.5q-1 25 -32.5 45t-94.5 48q-86 40 -130 85t-44 112q1 51 36 86.5t88 53t110 17.5q45 2 104 -6.5t90 -21.5v-134h-86l-27 61q-14 17 -33 28t-39 11q-31 0 -51.5 -12.5t-20.5 -32.5q0 -26 15.5 -45t42.5 -34.5t79 -39.5
q79 -36 118.5 -73t39.5 -99v1z" />
    <glyph glyph-name="Scaron" unicode="&#x160;" horiz-adv-x="643" 
d="M64 0zM182.5 -1.5q-77.5 12.5 -115.5 32.5v198h73l46 -118q22 -30 54.5 -39.5t82.5 -9.5q53 0 84.5 28t31.5 80q0 61 -112 120q-99 53 -149.5 85.5t-82 76.5t-31.5 105q0 62 36 109.5t96.5 73t129.5 25.5q53 0 130 -10t107 -25v-162h-81l-45 103q-12 10 -42.5 16.5
t-51.5 6.5q-49 0 -81.5 -20.5t-32.5 -59.5t23 -69.5t62.5 -56t113.5 -64.5q89 -46 137 -97t48 -121q0 -69 -39 -119t-105 -75.5t-147 -25.5q-62 0 -139.5 12.5zM177 938l137 -63l143 63l54 -36l-139 -122h-113l-137 122z" />
    <glyph glyph-name="scaron" unicode="&#x161;" horiz-adv-x="535" 
d="M146 867l130 -101l127 100l71 -36l-136 -178h-123l-132 179zM129 161l31 -54q29 -29 49 -41t52 -12q39 0 59.5 16.5t20.5 44.5q-1 25 -32.5 45t-94.5 48q-86 40 -130 85t-44 112q1 51 36 86.5t88 53t110 17.5q45 2 104 -6.5t90 -21.5v-134h-86l-27 61q-14 17 -33 28
t-39 11q-31 0 -51.5 -12.5t-20.5 -32.5q0 -26 15.5 -45t42.5 -34.5t79 -39.5q79 -36 118.5 -73t39.5 -99q0 -91 -73 -133.5t-188 -42.5q-50 0 -105.5 12t-90.5 32v129h80z" />
    <glyph glyph-name="Tcaron" unicode="&#x164;" horiz-adv-x="711" 
d="M23 0zM226 938l137 -63l143 63l54 -36l-139 -122h-113l-137 122zM279 87v589l-134 -13l-34 -105l-88 -4l12 204h653v-198l-69 -9l-38 112l-129 13v-588l110 -20v-68h-395v68z" />
    <glyph glyph-name="tcaron" unicode="&#x165;" horiz-adv-x="451" 
d="M14 0zM249 546h167v-87h-160v-188q0 -66 3 -102t16 -59t41 -23q18 0 45.5 5.5t39.5 11.5l26 -55q-30 -30 -85.5 -45.5t-112.5 -15.5q-55 0 -85.5 19t-43 58t-12.5 103v291h-74v55q64 10 94 40q18 18 30.5 46t28.5 77h82v-131zM339 654q5 45 6 87.5t1 73.5q0 33 -8 65
t-17 43l7 21l127 32q14 -15 23 -59.5t9 -86.5q0 -54 -17.5 -111t-41.5 -97l-84 19z" />
    <glyph glyph-name="Umacron" unicode="&#x16a;" horiz-adv-x="787" 
d="M20 0zM773 678l-70 -12v-340q0 -164 -70.5 -252t-215.5 -88q-163 0 -242.5 77.5t-79.5 235.5q0 122 2 368l-77 11v80h333v-80l-83 -11v-369q0 -112 39 -168.5t129 -56.5q86 0 121 66.5t35 185.5l-2 341l-82 12v80h263v-80zM574 904v-117h-276v117h276z" />
    <glyph glyph-name="umacron" unicode="&#x16b;" horiz-adv-x="650" 
d="M26 0zM26 458v60l186 44l26 -8v-340q0 -68 15.5 -100t59.5 -32q24 0 49 6.5t38 18.5v309l-62 34v68l204 44l27 -8v-488h56v-52q-17 -12 -62 -20t-76 -8t-50.5 13.5t-19.5 40.5v19q-24 -29 -73 -51t-88 -22q-103 0 -143.5 49t-40.5 156v233zM462 773v-117h-276v117h276z
" />
    <glyph glyph-name="Uring" unicode="&#x16e;" horiz-adv-x="787" 
d="M773 758v-80l-70 -12v-340q0 -164 -70.5 -252t-215.5 -88q-163 0 -242.5 77.5t-79.5 235.5q0 122 2 368l-77 11v80h281q-17 26 -17 59q0 56 41 88.5t104 32.5t104.5 -33t41.5 -88q0 -33 -16 -59h214zM385 859.5q-17 -16.5 -17 -42.5q0 -25 17 -41.5t44 -16.5q25 0 43 16
t18 42q0 25 -17.5 42t-43.5 17q-27 0 -44 -16.5zM437 73q86 0 121 66.5t35 185.5l-2 341l-82 12v37q-36 -18 -81 -18q-41 0 -75 17v-36l-83 -11v-369q0 -112 39 -168.5t129 -56.5h-1z" />
    <glyph glyph-name="uring" unicode="&#x16f;" horiz-adv-x="650" 
d="M26 0zM26 458v60l186 44l26 -8v-340q0 -68 15.5 -100t59.5 -32q24 0 49 6.5t38 18.5v309l-62 34v68l204 44l27 -8v-488h56v-52q-17 -12 -62 -20t-76 -8t-50.5 13.5t-19.5 40.5v19q-24 -29 -73 -51t-88 -22q-103 0 -143.5 49t-40.5 156v233zM397 877.5
q33 -18.5 52.5 -49.5t19.5 -66q0 -38 -20.5 -69t-53.5 -48.5t-70 -17.5q-38 0 -71 18t-52.5 49t-19.5 68t19.5 68t52.5 48.5t71 17.5q39 0 72 -18.5zM278.5 809q-18.5 -18 -18.5 -47q0 -28 18.5 -46.5t46.5 -18.5t46.5 18.5t18.5 46.5q0 27 -19 46t-46 19q-28 0 -46.5 -18z
" />
    <glyph glyph-name="Uhungarumlaut" unicode="&#x170;" horiz-adv-x="787" 
d="M20 0zM773 678l-70 -12v-340q0 -164 -70.5 -252t-215.5 -88q-163 0 -242.5 77.5t-79.5 235.5q0 122 2 368l-77 11v80h333v-80l-83 -11v-369q0 -112 39 -168.5t129 -56.5q86 0 121 66.5t35 185.5l-2 341l-82 12v80h263v-80zM323 1019l108 -81q-34 -48 -88 -101t-92 -69
l-70 48zM601 1019l112 -81q-46 -59 -97 -108.5t-88 -61.5l-67 48z" />
    <glyph glyph-name="uhungarumlaut" unicode="&#x171;" horiz-adv-x="650" 
d="M26 0zM26 458v60l186 44l26 -8v-340q0 -68 15.5 -100t59.5 -32q24 0 49 6.5t38 18.5v309l-62 34v68l204 44l27 -8v-488h56v-52q-17 -12 -62 -20t-76 -8t-50.5 13.5t-19.5 40.5v19q-24 -29 -73 -51t-88 -22q-103 0 -143.5 49t-40.5 156v233zM233 897l108 -81
q-34 -48 -88 -101t-92 -69l-70 48zM511 897l112 -81q-46 -59 -97 -108.5t-88 -61.5l-67 48z" />
    <glyph glyph-name="Uogonek" unicode="&#x172;" horiz-adv-x="787" 
d="M772 757v-80l-70 -12v-340q0 -147 -56.5 -233t-172.5 -103q-44 -18 -79 -48t-35 -60q0 -28 36 -28q21 0 37 4.5t41 14.5l19 8l17 -66q-77 -66 -202 -66q-46 0 -75 22.5t-29 59.5q0 42 46.5 86t108.5 72q-133 13 -198 90t-65 220q0 123 2 369l-77 11v80h333v-80l-83 -11
v-369q0 -112 39 -168.5t129 -56.5q86 0 121 66.5t35 185.5l-2 341l-82 12v80z" />
    <glyph glyph-name="uogonek" unicode="&#x173;" horiz-adv-x="650" 
d="M586 -2q-52 -18 -96.5 -50t-44.5 -67q0 -28 36 -28q28 0 53 6.5t63 20.5l17 -66q-92 -66 -221 -66q-47 0 -75.5 22.5t-28.5 61.5q0 42 49.5 88t111.5 72q-33 13 -33 48v19q-24 -29 -73 -51t-88 -22q-103 0 -143.5 49t-40.5 156v233l-46 34v60l186 44l26 -8v-340
q0 -68 15.5 -100t59.5 -32q24 0 49 6.5t38 18.5v309l-62 34v68l204 44l27 -8v-488h56v-52q-11 -8 -38 -15z" />
    <glyph glyph-name="Ydieresis" unicode="&#x178;" horiz-adv-x="723" 
d="M6 0zM288 90v160l-228 419l-54 9v80h308v-78l-52 -10l123 -259l14 -46l17 50l104 251l-78 12l-1 80h275v-80l-64 -18l-191 -395v-173l132 -24v-68h-423v68zM310.5 921q25.5 -17 25.5 -52t-31.5 -57t-72.5 -22q-35 0 -60.5 17.5t-25.5 49.5q0 35 30.5 58t69.5 23t64.5 -17
zM575.5 921.5q23.5 -16.5 23.5 -51.5q0 -34 -28.5 -56.5t-70.5 -22.5q-38 0 -63.5 18.5t-25.5 49.5q0 34 31.5 56.5t69.5 22.5q40 0 63.5 -16.5z" />
    <glyph glyph-name="Zacute" unicode="&#x179;" horiz-adv-x="678" 
d="M25 0zM655 684l-355 -523l-71 -81l272 23l97 130l73 -20l-54 -213h-572l-20 68l361 523l81 89l-280 -23l-62 -119l-75 14l21 206h561zM461 938l94 -94q-31 -24 -106.5 -43.5t-130.5 -22.5l-49 52z" />
    <glyph glyph-name="zacute" unicode="&#x17a;" horiz-adv-x="562" 
d="M25 0zM539 486l-232 -338l-60 -74l177 17l29 84h90l-7 -175h-488l-23 49l57 90l213 290l41 44l-168 -10l-32 -99h-89v182h467zM333 904l124 -95q-31 -50 -96 -90.5t-139 -66.5l-43 44z" />
    <glyph glyph-name="Zdotaccent" unicode="&#x17b;" horiz-adv-x="678" 
d="M25 0zM655 684l-355 -523l-71 -81l272 23l97 130l73 -20l-54 -213h-572l-20 68l361 523l81 89l-280 -23l-62 -119l-75 14l21 206h561zM409.5 921q25.5 -17 25.5 -52t-31.5 -57t-72.5 -22q-35 0 -60.5 17.5t-25.5 49.5q0 35 30.5 58t69.5 23t64.5 -17z" />
    <glyph glyph-name="zdotaccent" unicode="&#x17c;" horiz-adv-x="562" 
d="M25 0zM539 486l-232 -338l-60 -74l177 17l29 84h90l-7 -175h-488l-23 49l57 90l213 290l41 44l-168 -10l-32 -99h-89v182h467zM358 778.5q25 -17.5 25 -51.5q0 -36 -32 -57.5t-71 -21.5q-37 0 -62 18.5t-25 49.5q0 35 31.5 57.5t68.5 22.5q40 0 65 -17.5z" />
    <glyph glyph-name="Zcaron" unicode="&#x17d;" horiz-adv-x="678" 
d="M25 0zM655 684l-355 -523l-71 -81l272 23l97 130l73 -20l-54 -213h-572l-20 68l361 523l81 89l-280 -23l-62 -119l-75 14l21 206h561zM203 938l137 -63l143 63l54 -36l-139 -122h-113l-137 122z" />
    <glyph glyph-name="zcaron" unicode="&#x17e;" horiz-adv-x="562" 
d="M25 0zM539 486l-232 -338l-60 -74l177 17l29 84h90l-7 -175h-488l-23 49l57 90l213 290l41 44l-168 -10l-32 -99h-89v182h467zM159 867l130 -101l126 100l71 -36l-135 -178h-124l-132 179z" />
    <glyph glyph-name="florin" unicode="&#x192;" horiz-adv-x="481" 
d="M50 446l4 51l92 39l5 51q5 66 41 126t92 97t120 37q23 0 50 -4.5t44 -11.5l-10 -127q-56 27 -97 27t-55.5 -19.5t-19.5 -72.5l-7 -93h129v-100h-137l-48 -619h-161l48 619h-90z" />
    <glyph glyph-name="Scommaaccent" unicode="&#x218;" horiz-adv-x="643" 
d="M64 0zM182.5 -1.5q-77.5 12.5 -115.5 32.5v198h73l46 -118q22 -30 54.5 -39.5t82.5 -9.5q53 0 84.5 28t31.5 80q0 61 -112 120q-99 53 -149.5 85.5t-82 76.5t-31.5 105q0 62 36 109.5t96.5 73t129.5 25.5q53 0 130 -10t107 -25v-162h-81l-45 103q-12 10 -42.5 16.5
t-51.5 6.5q-49 0 -81.5 -20.5t-32.5 -59.5t23 -69.5t62.5 -56t113.5 -64.5q89 -46 137 -97t48 -121q0 -69 -39 -119t-105 -75.5t-147 -25.5q-62 0 -139.5 12.5zM389.5 -58.5q35.5 -38.5 35.5 -98.5q0 -50 -38 -95t-86 -61l-62 25v11q26 22 36.5 37.5t10.5 37.5q0 27 -19 46
t-42 19v38l72 79q57 0 92.5 -38.5z" />
    <glyph glyph-name="scommaaccent" unicode="&#x219;" horiz-adv-x="535" 
d="M40 0zM129 161l31 -54q29 -29 49 -41t52 -12q39 0 59.5 16.5t20.5 44.5q-1 25 -32.5 45t-94.5 48q-86 40 -130 85t-44 112q1 51 36 86.5t88 53t110 17.5q45 2 104 -6.5t90 -21.5v-134h-86l-27 61q-14 17 -33 28t-39 11q-31 0 -51.5 -12.5t-20.5 -32.5q0 -26 15.5 -45
t42.5 -34.5t79 -39.5q79 -36 118.5 -73t39.5 -99q0 -91 -73 -133.5t-188 -42.5q-50 0 -105.5 12t-90.5 32v129h80zM326.5 -58.5q35.5 -38.5 35.5 -98.5q0 -50 -38 -95t-86 -61l-62 25v11q26 22 36.5 37.5t10.5 37.5q0 27 -19 46t-42 19v38l72 79q57 0 92.5 -38.5z" />
    <glyph glyph-name="uni021A" unicode="&#x21a;" horiz-adv-x="711" 
d="M23 0zM279 87v589l-134 -13l-34 -105l-88 -4l12 204h653v-198l-69 -9l-38 112l-129 13v-588l110 -20v-68h-395v68zM439.5 -58.5q35.5 -38.5 35.5 -98.5q0 -50 -38 -95t-86 -61l-62 25v11q26 22 36.5 37.5t10.5 37.5q0 27 -19 46t-42 19v38l72 79q57 0 92.5 -38.5z" />
    <glyph glyph-name="uni021B" unicode="&#x21b;" horiz-adv-x="451" 
d="M14 0zM249 546h167v-87h-160v-188q0 -66 3 -102t16 -59t41 -23q18 0 45.5 5.5t39.5 11.5l26 -55q-30 -30 -85.5 -45.5t-112.5 -15.5q-55 0 -85.5 19t-43 58t-12.5 103v291h-74v55q64 10 94 40q18 18 30.5 46t28.5 77h82v-131zM279.5 -58.5q35.5 -38.5 35.5 -98.5
q0 -50 -38 -95t-86 -61l-62 25v11q26 22 36.5 37.5t10.5 37.5q0 27 -19 46t-42 19v38l72 79q57 0 92.5 -38.5z" />
    <glyph glyph-name="uni0237" unicode="&#x237;" horiz-adv-x="334" 
d="M40 456v43l187 63l40 -13v-572q0 -109 -48 -175.5t-137 -66.5q-24 0 -57 6t-45 12v92q10 -2 27.5 -4t32.5 -2q25 0 37 20t14.5 51t2.5 87v387z" />
    <glyph glyph-name="circumflex" unicode="&#x2c6;" horiz-adv-x="519" 
d="M196 867h124l135 -179l-71 -36l-126 101l-130 -101l-64 36z" />
    <glyph glyph-name="caron" unicode="&#x2c7;" horiz-adv-x="518" 
d="M130 867l130 -101l126 100l71 -36l-135 -178h-124l-132 179z" />
    <glyph glyph-name="breve" unicode="&#x2d8;" horiz-adv-x="701" 
d="M508.5 741q-24.5 -39 -66 -62t-91.5 -23q-52 0 -93.5 23t-65.5 62t-24 86h103q18 -73 80 -73q31 0 51.5 20t29.5 53h101q0 -47 -24.5 -86z" />
    <glyph glyph-name="dotaccent" unicode="&#x2d9;" horiz-adv-x="346" 
d="M243 778.5q25 -17.5 25 -51.5q0 -36 -32 -57.5t-71 -21.5q-37 0 -62 18.5t-25 49.5q0 35 31.5 57.5t68.5 22.5q40 0 65 -17.5z" />
    <glyph glyph-name="ring" unicode="&#x2da;" horiz-adv-x="310" 
d="M227 877.5q33 -18.5 52.5 -49.5t19.5 -66q0 -38 -20.5 -69t-53.5 -48.5t-70 -17.5q-38 0 -71 18t-52.5 49t-19.5 68t19.5 68t52.5 48.5t71 17.5q39 0 72 -18.5zM108.5 809q-18.5 -18 -18.5 -47q0 -28 18.5 -46.5t46.5 -18.5t46.5 18.5t18.5 46.5q0 27 -19 46t-46 19
q-28 0 -46.5 -18z" />
    <glyph glyph-name="ogonek" unicode="&#x2db;" horiz-adv-x="375" 
d="M195 0q-52 -17 -98 -49.5t-46 -68.5q0 -28 36 -28q28 0 53 6.5t63 20.5l17 -66q-92 -66 -221 -66q-47 0 -75.5 22.5t-28.5 61.5q0 31 27.5 64.5t70 61t83.5 41.5l58 5z" />
    <glyph glyph-name="tilde" unicode="&#x2dc;" horiz-adv-x="528" 
d="M89.5 764.5q25.5 23.5 57.5 38.5t58 15q27 0 47.5 -7.5t42.5 -21.5q16 -10 28 -15t25 -5q24 0 42.5 9.5t38.5 25.5l44 -48q-16 -39 -62.5 -71t-84.5 -32q-26 0 -46 7.5t-46 22.5q-19 11 -30.5 16t-24.5 5q-18 0 -39.5 -10t-42.5 -26l-42 48q9 25 34.5 48.5z" />
    <glyph glyph-name="hungarumlaut" unicode="&#x2dd;" horiz-adv-x="476" 
d="M133 897l108 -81q-34 -48 -88 -101t-92 -69l-70 48zM411 897l112 -81q-46 -59 -97 -108.5t-88 -61.5l-67 48z" />
    <glyph glyph-name="uni0326" unicode="&#x326;" horiz-adv-x="375" 
d="M-135.5 -58.5q35.5 -38.5 35.5 -98.5q0 -50 -38 -95t-86 -61l-62 25v11q26 22 36.5 37.5t10.5 37.5q0 27 -19 46t-42 19v38l72 79q57 0 92.5 -38.5z" />
    <glyph glyph-name="Omega" unicode="&#x3a9;" horiz-adv-x="1041" 
d="M158 264l21 -122h172q-51 26 -98.5 77.5t-77.5 112t-30 113.5q0 99 48.5 171.5t134 110.5t193.5 38q105 0 186.5 -34.5t127.5 -102t46 -161.5q0 -77 -60.5 -169t-137.5 -156h157l49 126l69 -4l-30 -264h-335v117q30 25 54.5 89.5t38 141.5t13.5 135q0 99 -47 153.5
t-135 54.5q-101 0 -145.5 -56.5t-44.5 -168.5q0 -83 37 -187t86 -162l1 -117h-374v261z" />
    <glyph glyph-name="mu" unicode="&#x3bc;" horiz-adv-x="625" 
d="M97 -174v598l-46 34v60l186 44l26 -8v-340q0 -68 15.5 -100t59.5 -32q24 0 49 6.5t38 18.5v309l-62 34v68l204 44l27 -8v-488h56v-52q-17 -12 -62 -20t-76 -8t-50.5 13.5t-19.5 40.5v19q-24 -29 -73 -51t-88 -22h-18v-160h-166z" />
    <glyph glyph-name="pi" unicode="&#x3c0;" horiz-adv-x="799" 
d="M698 462.5q-38 -53.5 -107 -58.5l-10 -225q-2 -33 4 -58.5t23 -25.5q22 0 41 13.5t27 37.5h87q-16 -63 -65 -108t-107 -45q-78 0 -112.5 32.5t-29.5 96.5l33 282h-150l-1 -194q-4 -73 -17 -111.5t-52 -73.5q-22 -20 -78 -37l-120 68q7 0 35 12.5t39 20.5q39 25 53.5 59
t17.5 89l14 167h-48q-27 1 -46.5 -12t-27.5 -37l-70 15q-1 7 0.5 20t6.5 27q15 55 58 92t96 37h383q34 0 58.5 12t38.5 40h70q-6 -82 -44 -135.5z" />
    <glyph glyph-name="uni0901" unicode="&#x901;" 
d="M-42 1009l-111 -112l-112 112l112 111zM-263.5 862.5q36.5 -28.5 86.5 -28.5q60 0 105 33.5t72 78.5l100 -90q-43 -57 -95 -88t-126 -31q-76 0 -141.5 56.5t-103.5 128.5l33 18q33 -49 69.5 -77.5z" />
    <glyph glyph-name="uni0902" unicode="&#x902;" 
d="M-42 834l-111 -112l-112 112l112 111z" />
    <glyph glyph-name="uni0903" unicode="&#x903;" horiz-adv-x="307" 
d="M263 433l-111 -112l-112 112l112 111zM263 97l-111 -112l-112 112l112 111z" />
    <glyph glyph-name="uni0904" unicode="&#x904;" horiz-adv-x="871" 
d="M870 555h-87v-593h-23l-111 63v178h-2q-23 -7 -40 -7q-27 0 -50.5 8.5t-56.5 34.5h-3q13 -30 13 -66q0 -49 -22 -89.5t-60.5 -63.5t-86.5 -23q-98 0 -178 77.5t-148 186.5l33 31q60 -80 119.5 -125t118.5 -45q52 0 83.5 27.5t31.5 64.5q0 47 -34 88q-65 -22 -138 -29
l-52 95l9 17q59 6 100 14t67 25q18 11 25.5 30t7.5 46t-22 47.5t-58 20.5q-44 0 -79.5 -18.5t-82.5 -60.5l-57 113q93 69 183 69q44 0 93 -35t81.5 -86.5t32.5 -95.5q0 -42 -12.5 -67.5t-37.5 -49.5q27 -12 61 -19.5t60 -7.5q33 0 57 7t45 22v217h-122l-46 91v22h199
q1 4 1 12q0 37 -27.5 65t-84.5 28q-18 0 -74 -6q-79 -9 -110 -9q-61 1 -123.5 18t-102.5 47t-40 66q0 43 23 100l57 -9q-15 -42 -15 -62q0 -18 20 -32t67 -14q60 0 174 10q84 6 100 6q47 0 88.5 -19.5t66.5 -50.5q21 -26 33.5 -57t12.5 -59q0 -14 -2 -34h77l49 -92z" />
    <glyph glyph-name="uni0905" unicode="&#x905;" horiz-adv-x="871" 
d="M870 555h-87v-593h-23l-111 63v178h-2q-23 -7 -40 -7q-27 0 -50.5 8.5t-56.5 34.5h-3q13 -30 13 -66q0 -49 -22 -89.5t-60.5 -63.5t-86.5 -23q-98 0 -178 77.5t-148 186.5l33 31q60 -80 119.5 -125t118.5 -45q52 0 83.5 27.5t31.5 64.5q0 47 -34 88q-65 -22 -138 -29
l-52 95l9 17q59 6 100 14t67 25q18 11 25.5 30t7.5 46t-22 47.5t-58 20.5q-44 0 -79.5 -18.5t-82.5 -60.5l-57 113q93 69 183 69q44 0 93 -35t81.5 -86.5t32.5 -95.5q0 -42 -12.5 -67.5t-37.5 -49.5q27 -12 61 -19.5t60 -7.5q33 0 57 7t45 22v217h-122l-46 91v22h340l49 -92
z" />
    <glyph glyph-name="uni0906" unicode="&#x906;" horiz-adv-x="1182" 
d="M1181 555h-90v-593h-23l-111 63v530h-174v-593h-23l-111 63v178h-2q-23 -7 -40 -7q-27 0 -50.5 8.5t-56.5 34.5h-3q13 -30 13 -66q0 -49 -22 -89.5t-60.5 -63.5t-86.5 -23q-98 0 -178 77.5t-148 186.5l33 31q60 -80 119.5 -125t118.5 -45q52 0 83.5 27.5t31.5 64.5
q0 47 -34 88q-65 -22 -138 -29l-52 95l9 17q59 6 100 14t67 25q18 11 25.5 30t7.5 46t-22 47.5t-58 20.5q-44 0 -79.5 -18.5t-82.5 -60.5l-57 113q93 69 183 69q44 0 93 -35t81.5 -86.5t32.5 -95.5q0 -42 -12.5 -67.5t-37.5 -49.5q27 -12 61 -19.5t60 -7.5q33 0 57 7t45 22
v217h-122l-46 91v22h651l49 -92z" />
    <glyph glyph-name="uni0907" unicode="&#x907;" horiz-adv-x="533" 
d="M156 319q0 -12 5 -24.5t13 -12.5q24 1 52 7t50.5 12.5t28.5 8.5q45 13 52 13q26 0 53 -25.5t45 -66t18 -82.5q0 -52 -29 -96t-75 -70.5t-94 -30.5l88 -130l-95 -49l-51 182q-48 7 -84.5 26t-56.5 45.5t-20 54.5q1 33 24.5 50.5t50.5 17.5q2 0 20 -2l50 -82q45 0 97 15.5
t87.5 39.5t35.5 47q0 15 -5.5 27t-12.5 18q-17 0 -78 -19q-68 -20 -87 -20q-23 0 -61 26.5t-66.5 67t-28.5 80.5q0 142 112 142h100v67h-304l-46 91v22h540l49 -92v-21h-105v-180h-202q-70 0 -70 -57z" />
    <glyph glyph-name="uni0908" unicode="&#x908;" horiz-adv-x="533" 
d="M481 669l49 -92v-21h-105v-180h-201q-70 0 -70 -57q0 -12 5 -24.5t13 -12.5q24 1 52 7t50.5 12.5t28.5 8.5q45 13 52 13q26 0 53 -25.5t45 -66t18 -82.5q0 -52 -29 -96t-75 -70.5t-94 -30.5l88 -130l-95 -49l-51 182q-48 7 -84.5 26t-56.5 45.5t-20 54.5q1 33 24.5 50.5
t50.5 17.5q2 0 20 -2l50 -82q45 0 97 15.5t87.5 39.5t35.5 47q0 15 -5.5 27t-12.5 18q-17 0 -78 -19q-68 -20 -87 -20q-23 0 -61 26.5t-66.5 67t-28.5 80.5q0 142 112 142h100v67h-304l-46 91v22h355q-51 43 -81.5 92t-30.5 97q0 46 23.5 79.5t60 50t73.5 16.5
q59 0 115.5 -36t101.5 -99l-29 -37q-21 19 -60 36t-73 17q-30 0 -51.5 -20.5t-21.5 -56.5q0 -68 53 -139h104z" />
    <glyph glyph-name="uni0909" unicode="&#x909;" horiz-adv-x="613" 
d="M614 557h-174q28 -32 47.5 -67.5t19.5 -63.5q0 -62 -44 -104q59 -53 83 -91.5t24 -85.5q0 -49 -22 -89.5t-60 -63.5t-86 -23q-189 0 -367 264l33 31q146 -170 278 -170q52 0 83.5 27.5t31.5 64.5q0 55 -48 102q-43 -21 -93 -21q-31 0 -62 13l-52 115l9 17q8 -1 28.5 -4.5
t35.5 -3.5q57 0 91.5 21t34.5 54q0 18 -11.5 38.5t-29.5 38.5h-373l-47 91v22h619l50 -92z" />
    <glyph glyph-name="uni090A" unicode="&#x90a;" horiz-adv-x="884" 
d="M885 557h-445q28 -32 47.5 -67.5t19.5 -63.5q0 -62 -44 -104l30 -28q121 106 194 106q39 0 75.5 -27.5t59 -72.5t22.5 -94q0 -83 -38 -186l-146 49q36 44 68.5 105t32.5 89q0 18 -15 28t-38 10q-63 0 -147 -101q9 -25 9 -55q0 -49 -22 -89.5t-60 -63.5t-86 -23
q-189 0 -367 264l33 31q146 -170 278 -170q52 0 83.5 27.5t31.5 64.5q0 55 -48 102q-43 -21 -93 -21q-31 0 -62 13l-52 115l9 17q8 -1 28.5 -4.5t35.5 -3.5q57 0 91.5 21t34.5 54q0 18 -11.5 38.5t-29.5 38.5h-373l-47 91v22h890l50 -92z" />
    <glyph glyph-name="uni090B" unicode="&#x90b;" horiz-adv-x="903" 
d="M903 577v-21h-373v-204q58 6 104 36l-31 76q11 11 31.5 20t39.5 9q40 0 67 -24t27 -59q0 -32 -27 -67l81 -192q-133 -44 -133 -91q0 -15 15.5 -24t49.5 -9q26 0 54 11t49 28l54 -108q-24 -14 -59 -25t-59 -11q-37 0 -77 25t-66.5 63.5t-26.5 76.5q0 39 19.5 70.5
t59.5 62.5l-28 68q-66 -36 -144 -35v-290h-23l-111 63v171l-233 -169l-78 87l311 203q-75 47 -152 47q-33 0 -66 -9.5t-76 -25.5l-67 119q25 10 72.5 22t78.5 12q78 0 210 -109v182h-405l-47 91v22h910z" />
    <glyph glyph-name="uni090C" unicode="&#x90c;" horiz-adv-x="823" 
d="M823 577v-21h-221v-119q65 -22 114.5 -71.5t49.5 -101.5q0 -45 -25 -81.5t-72 -83.5q-36 -36 -53 -59t-17 -47q0 -17 13 -28.5t32 -11.5q57 0 138 118l77 -81q-37 -37 -59.5 -56t-52.5 -31.5t-69 -12.5q-45 0 -88.5 20.5t-71.5 55t-28 73.5q0 29 19.5 53t60.5 61
q47 41 71 73t25 73q0 27 -24.5 42.5t-56.5 15.5q-34 0 -66 -31.5t-54.5 -79t-32.5 -91.5l-115 59q11 62 41 113q-43 28 -91 28q-27 0 -51.5 -14.5t-39.5 -42t-15 -63.5q0 -65 25 -125.5t74 -131.5l-35 -29q-43 35 -86.5 89t-73 118.5t-29.5 126.5q0 51 23 92.5t63 65
t88 23.5t85.5 -21.5t90.5 -74.5q36 44 82 66v122h-477l-47 91v22h829z" />
    <glyph glyph-name="uni090D" unicode="&#x90d;" horiz-adv-x="641" 
d="M0 0zM630 -76q26 -29 26 -59q0 -38 -25 -65t-71 -27q-42 0 -69.5 15.5t-55.5 41.5v2l82 93l-302 204q-69 47 -96.5 68t-38.5 39.5t-11 45.5v274h-78l-47 91v22h648l49 -92v-21h-114v-208q0 -132 -103 -175l-111 75v13q41 13 60.5 25.5t19.5 36.5v233h-190v-291
q0 -29 9 -43.5t34 -30.5l283 -188q75 -50 101 -79zM428 768q-52 -31 -126 -31q-76 0 -141.5 56.5t-103.5 128.5l33 18q33 -49 69.5 -77.5t86.5 -28.5q60 0 105 33.5t72 78.5l100 -90q-43 -57 -95 -88z" />
    <glyph glyph-name="uni090E" unicode="&#x90e;" horiz-adv-x="641" 
d="M-50 981q-15 -42 -15 -62q0 -18 20 -32t67 -14q60 0 174 10q84 6 100 6q47 0 88.5 -19.5t66.5 -50.5q21 -26 33.5 -57t12.5 -59q0 -14 -2 -34h97l49 -92v-21h-114v-208q0 -132 -103 -175l-111 75v13q41 13 60.5 25.5t19.5 36.5v233h-190v-291q0 -29 9 -43.5t34 -30.5
l283 -188q75 -50 101 -79t26 -59q0 -38 -25 -65t-71 -27q-42 0 -69.5 15.5t-55.5 41.5v2l82 93l-302 204q-69 47 -96.5 68t-38.5 39.5t-11 45.5v274h-78l-47 91v22h487q1 4 1 12q0 37 -27.5 65t-84.5 28q-18 0 -74 -6q-79 -9 -110 -9q-61 1 -123.5 18t-102.5 47t-40 66
q0 43 23 100z" />
    <glyph glyph-name="uni090F" unicode="&#x90f;" horiz-adv-x="641" 
d="M630 -76q26 -29 26 -59q0 -38 -25 -65t-71 -27q-42 0 -69.5 15.5t-55.5 41.5v2l82 93l-302 204q-69 47 -96.5 68t-38.5 39.5t-11 45.5v274h-78l-47 91v22h648l49 -92v-21h-114v-208q0 -132 -103 -175l-111 75v13q41 13 60.5 25.5t19.5 36.5v233h-190v-291q0 -29 9 -43.5
t34 -30.5l283 -188q75 -50 101 -79z" />
    <glyph glyph-name="uni0910" unicode="&#x910;" horiz-adv-x="641" 
d="M0 0zM630 -76q26 -29 26 -59q0 -38 -25 -65t-71 -27q-42 0 -69.5 15.5t-55.5 41.5v2l82 93l-302 204q-69 47 -96.5 68t-38.5 39.5t-11 45.5v274h-78l-47 91v22h648l49 -92v-21h-114v-208q0 -132 -103 -175l-111 75v13q41 13 60.5 25.5t19.5 36.5v233h-190v-291
q0 -29 9 -43.5t34 -30.5l283 -188q75 -50 101 -79zM309.5 935q51.5 -54 107.5 -159q63 -126 83 -170h-53q-8 18 -33.5 54.5t-40.5 55.5q-58 78 -95 116l-135 -46q-45 40 -45 105q0 46 28 72t65 26q67 0 118.5 -54z" />
    <glyph glyph-name="uni0911" unicode="&#x911;" horiz-adv-x="1182" 
d="M15 0zM1181 555h-90v-593h-23l-111 63v530h-174v-593h-23l-111 63v178h-2q-23 -7 -40 -7q-27 0 -50.5 8.5t-56.5 34.5h-3q13 -30 13 -66q0 -49 -22 -89.5t-60.5 -63.5t-86.5 -23q-98 0 -178 77.5t-148 186.5l33 31q60 -80 119.5 -125t118.5 -45q52 0 83.5 27.5t31.5 64.5
q0 47 -34 88q-65 -22 -138 -29l-52 95l9 17q59 6 100 14t67 25q18 11 25.5 30t7.5 46t-22 47.5t-58 20.5q-44 0 -79.5 -18.5t-82.5 -60.5l-57 113q93 69 183 69q44 0 93 -35t81.5 -86.5t32.5 -95.5q0 -42 -12.5 -67.5t-37.5 -49.5q27 -12 61 -19.5t60 -7.5q33 0 57 7t45 22
v217h-122l-46 91v22h651l49 -92zM1183 768q-52 -31 -126 -31q-76 0 -141.5 56.5t-103.5 128.5l33 18q33 -49 69.5 -77.5t86.5 -28.5q60 0 105 33.5t72 78.5l100 -90q-43 -57 -95 -88z" />
    <glyph glyph-name="uni0912" unicode="&#x912;" horiz-adv-x="1182" 
d="M515 981q-15 -42 -15 -62q0 -18 20 -32t67 -14q60 0 174 10q84 6 100 6q47 0 88.5 -19.5t66.5 -50.5q21 -26 33.5 -57t12.5 -59q0 -14 -2 -34h73l49 -92v-21h-90v-593h-23l-111 63v530h-174v-593h-23l-111 63v178h-2q-23 -7 -40 -7q-27 0 -50.5 8.5t-56.5 34.5h-3
q14 -29 14 -66q0 -49 -22 -89.5t-60.5 -63.5t-86.5 -23q-98 0 -178 77.5t-148 186.5l33 31q60 -80 119.5 -125t118.5 -45q52 0 83.5 27.5t31.5 64.5q0 47 -34 88q-65 -22 -138 -29l-52 95l9 17q59 6 100 14t67 25q18 11 25.5 30t7.5 46t-22 47.5t-58 20.5q-44 0 -79.5 -18.5
t-82.5 -60.5l-57 113q93 69 183 69q44 0 93 -35t81.5 -86.5t32.5 -95.5q0 -42 -12.5 -67.5t-38.5 -50.5q28 -12 61.5 -19.5t59.5 -7.5q33 0 56.5 7t44.5 22v217h-122l-46 91v22h514q1 4 1 12q0 37 -27.5 65t-84.5 28q-18 0 -74 -6q-79 -9 -110 -9q-61 1 -123.5 18t-102.5 47
t-40 66q0 43 23 100z" />
    <glyph glyph-name="uni0913" unicode="&#x913;" horiz-adv-x="1182" 
d="M15 0zM1181 555h-90v-593h-23l-111 63v530h-174v-593h-23l-111 63v178h-2q-23 -7 -40 -7q-27 0 -50.5 8.5t-56.5 34.5h-3q13 -30 13 -66q0 -49 -22 -89.5t-60.5 -63.5t-86.5 -23q-98 0 -178 77.5t-148 186.5l33 31q60 -80 119.5 -125t118.5 -45q52 0 83.5 27.5t31.5 64.5
q0 47 -34 88q-65 -22 -138 -29l-52 95l9 17q59 6 100 14t67 25q18 11 25.5 30t7.5 46t-22 47.5t-58 20.5q-44 0 -79.5 -18.5t-82.5 -60.5l-57 113q93 69 183 69q44 0 93 -35t81.5 -86.5t32.5 -95.5q0 -42 -12.5 -67.5t-37.5 -49.5q27 -12 61 -19.5t60 -7.5q33 0 57 7t45 22
v217h-122l-46 91v22h651l49 -92zM879.5 949q51.5 -54 107.5 -159q63 -126 83 -170h-53q-8 18 -33.5 54.5t-40.5 55.5q-58 78 -95 116l-135 -46q-45 40 -45 105q0 46 28 72t65 26q67 0 118.5 -54z" />
    <glyph glyph-name="uni0914" unicode="&#x914;" horiz-adv-x="1182" 
d="M15 0zM1181 555h-90v-593h-23l-111 63v530h-174v-593h-23l-111 63v178h-2q-23 -7 -40 -7q-27 0 -50.5 8.5t-56.5 34.5h-3q13 -30 13 -66q0 -49 -22 -89.5t-60.5 -63.5t-86.5 -23q-98 0 -178 77.5t-148 186.5l33 31q60 -80 119.5 -125t118.5 -45q52 0 83.5 27.5t31.5 64.5
q0 47 -34 88q-65 -22 -138 -29l-52 95l9 17q59 6 100 14t67 25q18 11 25.5 30t7.5 46t-22 47.5t-58 20.5q-44 0 -79.5 -18.5t-82.5 -60.5l-57 113q93 69 183 69q44 0 93 -35t81.5 -86.5t32.5 -95.5q0 -42 -12.5 -67.5t-37.5 -49.5q27 -12 61 -19.5t60 -7.5q33 0 57 7t45 22
v217h-122l-46 91v22h651l49 -92zM1026 804q21 -51 54 -145h-63q-8 29 -37 95q-33 70 -72.5 137t-62.5 88l-153 -22h-2q-17 27 -17 70q0 46 28 72t65 26q131 0 260 -321zM848.5 858.5q60.5 -49.5 96 -101.5t83.5 -132h-53q-8 13 -36.5 48.5t-40.5 50.5l-34 42l-212 -22h-3
q-22 30 -22 77q0 41 28 64t65 23q68 0 128.5 -49.5z" />
    <glyph glyph-name="uni0915" unicode="&#x915;" horiz-adv-x="875" 
d="M523 556v-158q65 47 116 47q48 0 92.5 -27.5t72.5 -72t28 -93.5q0 -92 -47 -210l-125 69q30 45 59.5 108t29.5 89q0 19 -15 28.5t-43 9.5q-69 0 -167 -83v-300h-22l-118 66l13 130l-3 1q-41 -29 -77.5 -45t-79.5 -16q-52 0 -95.5 23.5t-70 68t-26.5 106.5q0 47 17.5 88.5
t54 67.5t90.5 26q55 0 101.5 -36t79.5 -89l1 202h-398l-47 91v22h882l49 -92v-21h-352zM198 210q89 0 188 74v6q-21 25 -63.5 46.5t-86.5 21.5q-31 0 -65 -10t-57 -29.5t-23 -45.5q0 -25 31 -43.5t76 -18.5v-1z" />
    <glyph glyph-name="uni0916" unicode="&#x916;" horiz-adv-x="880" 
d="M880 576v-21h-89v-593h-23l-111 63l2 43q-54 -37 -132.5 -63t-152.5 -26q-102 0 -266 211l-22 28q-32 42 -44 62.5t-12 40.5q0 22 17.5 44.5t36.5 33.5l59 -31q8 14 14 40.5t6 56.5q0 33 -7 91h-165l-47 91v22h887zM371 79q70 0 152.5 33t136.5 81v29l-1 1
q-39 -29 -72.5 -45.5t-68.5 -16.5q-45 0 -87 23.5t-67.5 65t-25.5 94.5q0 51 23 90.5t62 60.5t85 21q41 0 76 -26.5t72 -67.5h1v133h-380q14 -79 14 -147q0 -64 -35 -116.5t-83 -97.5q30 -40 84.5 -77t113.5 -37v-1zM482 265q41 0 89 26t85 66v3q-24 22 -58.5 33.5
t-64.5 11.5q-41 0 -74.5 -12.5t-53 -33t-19.5 -43.5q0 -19 27 -34.5t70 -15.5z" />
    <glyph glyph-name="uni0917" unicode="&#x917;" horiz-adv-x="662" 
d="M662 578v-21h-90v-593h-23l-112 63v530h-201q13 -88 20.5 -153t7.5 -120q0 -51 -21.5 -88t-90.5 -37q-37 0 -63 22.5t-38.5 54t-12.5 58.5q0 29 5 52l99 -13v223h-151l-47 91v22h668z" />
    <glyph glyph-name="uni0918" unicode="&#x918;" horiz-adv-x="687" 
d="M687 577v-21h-90v-593h-22l-114 63l3 112l-2 2q-47 -31 -85.5 -45t-89.5 -14q-35 0 -69.5 16t-63.5 43q-30 29 -48 62t-18 59q0 41 17.5 78t47.5 64q-69 28 -102 54.5t-34 69.5q0 7 2 29h-28l-47 91v22h694zM246 186q51 0 111.5 28.5t106.5 68.5v273h-313
q-16 -21 -16 -52q3 -31 72 -65q28 12 57 12q67 0 93 -13l16 -93l-10 -23q-26 10 -53 10q-43 0 -76.5 -15.5t-51.5 -38.5t-18 -45q0 -21 26 -34t54 -13h2z" />
    <glyph glyph-name="uni0919" unicode="&#x919;" horiz-adv-x="787" 
d="M787 577v-21h-300v-191h-260q-70 0 -70 -57q0 -17 10.5 -37t21.5 -20q32 0 62 7t69 20q36 11 54.5 15.5t36.5 4.5q30 0 61.5 -28t52 -73t20.5 -92q-1 -86 -41.5 -134t-110.5 -48q-87 0 -185 55t-191 158l37 37q73 -76 137.5 -106.5t147.5 -30.5q34 0 69.5 10t59.5 30.5
t24 50.5q0 16 -12 33t-32 25q-22 -1 -42.5 -6.5t-53.5 -16.5q-39 -13 -62 -19t-49 -5t-64.5 30.5t-66.5 75t-28 92.5q0 142 112 142h160v78h-364l-46 91v22h795zM781 313l-111 -112l-112 112l112 111z" />
    <glyph glyph-name="uni091A" unicode="&#x91a;" horiz-adv-x="670" 
d="M669 576v-21h-90v-593h-22l-119 66l9 89l-1 1q-31 -23 -66.5 -36.5t-67.5 -13.5q-77 0 -145 73q-29 30 -44 57.5t-15 60.5q0 38 14 76h-69l-47 91v22h354l49 -92v-21h-135q-33 -20 -55.5 -51.5t-22.5 -56.5q0 -27 15.5 -40t37.5 -13q48 0 100.5 24.5t96.5 58.5v299h-455
l-47 91v22h677z" />
    <glyph glyph-name="uni091B" unicode="&#x91b;" horiz-adv-x="845" 
d="M622 556v-95q52 -24 84.5 -69t33.5 -109q0 -55 -41 -120q47 -26 73 -61t26 -84q0 -36 -16.5 -90t-36.5 -95l-125 86q44 39 73 74.5t29 67.5q0 15 -14 28.5t-41 27.5q-59 -71 -140 -119t-156 -48q-64 0 -122 33t-93.5 79.5t-35.5 82.5q0 51 26 93q-32 15 -53.5 28.5
t-40 38t-18.5 58.5q0 57 44 91t108 34q23 0 46 -5.5t32 -10.5l33 -96q-13 5 -41.5 11.5t-45.5 6.5q-26 0 -42 -18t-16 -49t26 -51q36 33 76 33q38 0 78 -7l36 -99l-10 -23q-29 10 -61 10q-31 0 -54 -10.5t-35.5 -26.5t-12.5 -31q0 -27 31 -47.5t69 -20.5q57 0 130.5 31.5
t125.5 83.5q-74 35 -123.5 90t-49.5 118q0 45 30.5 72t79.5 33v74h-497l-47 91v22h852l49 -92v-21h-223zM524.5 265.5q24.5 -35.5 61.5 -53.5q36 52 36 109q0 31 -19.5 54t-51.5 23q-22 0 -36.5 -15t-14.5 -44q0 -38 24.5 -73.5z" />
    <glyph glyph-name="uni091C" unicode="&#x91c;" horiz-adv-x="745" 
d="M745 556h-90v-593h-22l-111 63v319h-176q90 -88 90 -166q0 -72 -40.5 -113.5t-101.5 -41.5q-76 0 -134.5 57t-96 147t-54.5 192l45 13q31 -126 83 -206t129 -80q40 0 64 18t24 53q0 46 -53.5 99t-124.5 95l21 46h325v98h-531l-47 91v22h752l49 -92v-21z" />
    <glyph glyph-name="uni091D" unicode="&#x91d;" horiz-adv-x="838" 
d="M838 577v-21h-87v-593h-23l-111 63v158h-2q-16 -6 -28.5 -9t-29.5 -3q-25 0 -46.5 7t-59.5 29h-3q14 -40 14 -83q0 -48 -27.5 -86.5t-70.5 -61t-89 -25.5l88 -130l-95 -49l-51 182q-48 7 -84.5 26t-56.5 45.5t-20 54.5q1 33 24.5 50.5t50.5 17.5q8 0 14 -2l56 -82
q49 0 97.5 10.5t80 29.5t31.5 42q0 21 -11 39t-24 26q-13 -1 -52 -16q-61 -23 -85 -23t-62.5 26.5t-67.5 67t-29 80.5q0 142 112 142h94v67h-295l-46 91v22h845zM618 317v239h-198v-180h-195q-70 0 -70 -57q0 -10 8 -21.5t15 -11.5q28 0 48.5 4.5t53.5 13.5q17 5 34.5 9.5
t33.5 4.5q17 0 36 -13q62 -15 130 -15q58 0 104 27z" />
    <glyph glyph-name="uni091E" unicode="&#x91e;" horiz-adv-x="829" 
d="M835 556h-91v-603h-23l-111 63v203q-14 -7 -30 -7q-17 0 -32 7t-44 29h-2q-9 -62 -54 -102.5t-108 -40.5q-70 0 -131 38.5t-107.5 92t-95.5 125.5l36 26q71 -87 130.5 -132t129.5 -45q47 0 77.5 27.5t30.5 66.5q0 29 -16 47t-39 18q-26 0 -47.5 -12t-59.5 -42l-77 83
q22 21 61.5 41t66.5 20q50 0 105.5 -35.5t81.5 -86.5q26 -6 47 -6q43 0 75 22v203h-618l-46 91v22h840l49 -92z" />
    <glyph glyph-name="uni091F" unicode="&#x91f;" horiz-adv-x="576" 
d="M576 577v-21h-139v-216q-141 -8 -229 -41t-88 -100q0 -47 36.5 -66t90.5 -19q120 0 253 87l61 -119q-81 -45 -135.5 -63t-129.5 -18q-72 0 -124 31.5t-79 85.5t-27 120q0 102 68 155.5t169 65.5v97h-312l-47 91v22h583z" />
    <glyph glyph-name="uni0920" unicode="&#x920;" horiz-adv-x="644" 
d="M645 555h-183q20 -37 20 -66q0 -30 -23 -72q54 -38 86.5 -91.5t32.5 -111.5q0 -71 -35 -126t-96.5 -86t-138.5 -31q-68 0 -123.5 37.5t-87 99t-31.5 130.5q0 103 74 160t200 65q8 24 8 49q0 21 -13 44h-344l-47 91v22h651l49 -92zM483.5 306q-22.5 23 -45.5 33
q-141 -8 -229 -41t-88 -100q0 -37 22 -63t54.5 -38.5t63.5 -12.5q85 0 140 24t80 62.5t25 84.5q0 28 -22.5 51z" />
    <glyph glyph-name="uni0921" unicode="&#x921;" horiz-adv-x="624" 
d="M624 577v-21h-117v-191h-280q-70 0 -70 -57q0 -17 10.5 -37t21.5 -20q35 0 67.5 7t75.5 20q39 11 59 15.5t40 4.5q30 0 61.5 -28t52 -73t20.5 -92q-1 -86 -46.5 -134t-125.5 -48q-87 0 -185 55t-191 158l37 37q73 -76 137.5 -106.5t147.5 -30.5q63 0 118 23.5t55 67.5
q0 16 -12 33t-32 25q-25 -1 -48 -6.5t-60 -16.5q-41 -12 -66 -17.5t-53 -6.5q-26 1 -64.5 30.5t-66.5 75t-28 92.5q0 142 112 142h180v78h-384l-46 91v22h632z" />
    <glyph glyph-name="uni0922" unicode="&#x922;" horiz-adv-x="573" 
d="M274 360q-76 0 -122.5 -31t-46.5 -87q0 -60 47 -102.5t108 -61.5q-22 44 -22 82q1 73 40.5 107t92.5 34q43 0 80 -23.5t59 -65t22 -91.5q0 -53 -28.5 -91t-71 -58t-83.5 -20q-63 1 -133 37t-118 107.5t-48 171.5q0 110 56.5 159t143.5 49h76v80h-336l-46 91v22h581
l48 -92v-21h-114v-197h-186zM300 117q-3 -25 6 -48h12q44 0 82.5 10t61.5 27t23 37q-1 24 -26.5 40.5t-54.5 16.5q-36 0 -69 -23t-34 -60h-1z" />
    <glyph glyph-name="uni0923" unicode="&#x923;" horiz-adv-x="830" 
d="M830 556h-89v-593h-23l-111 63v530h-123v-272q0 -51 -27 -93.5t-71.5 -66.5t-96.5 -24q-34 0 -72 31t-89 88q-37 39 -51.5 65t-14.5 63v209h-69l-47 91v22h835l49 -92v-21zM348 556h-152v-268q0 -46 21.5 -60t60.5 -14q40 0 55 31t15 68v243z" />
    <glyph glyph-name="uni0924" unicode="&#x924;" horiz-adv-x="636" 
d="M636 556h-90v-593h-22l-112 63v319h-141q-51 0 -74.5 -22.5t-23.5 -69.5q0 -101 144 -247l-42 -45q-97 79 -162.5 161.5t-65.5 167.5q0 79 45.5 123.5t153.5 44.5h166v98h-421l-47 91v22h642l50 -92v-21z" />
    <glyph glyph-name="uni0925" unicode="&#x925;" horiz-adv-x="730" 
d="M729 578v-21h-89v-593h-23l-111 63v110l-2 1q-20 -11 -56.5 -21t-71.5 -10q-89 0 -161.5 54.5t-116.5 159.5q67 17 111 49q-71 35 -118 88.5t-47 114.5q0 51 38.5 78.5t97.5 27.5q53 0 105 -22t86.5 -67.5t34.5 -111.5q0 -60 -49.5 -114t-133.5 -96q14 -27 41 -42t61 -15
q90 0 181 62v283h-59l-47 91v22h280zM218 595q-21 0 -36 -15t-15 -44q0 -38 24 -73.5t60 -53.5q37 46 37 108q0 31 -19.5 54t-51.5 23z" />
    <glyph glyph-name="uni0926" unicode="&#x926;" horiz-adv-x="573" 
d="M573 577v-21h-114v-197h-186q-72 0 -115.5 -28.5t-43.5 -80.5q0 -37 26.5 -65t68 -42.5t84.5 -14.5q28 0 44 4l-39 89q14 19 43 34.5t54 15.5q55 0 86 -31t31 -81q0 -35 -19 -64.5t-55 -49.5l131 -179l-95 -49l-90 207q-40 -12 -91 -12q-54 0 -108 30t-89.5 90t-35.5 144
q0 106 53.5 153t136.5 47h76v80h-336l-46 91v22h581z" />
    <glyph glyph-name="uni0927" unicode="&#x927;" horiz-adv-x="724" 
d="M725 557h-90v-593h-22l-114 63l3 112l-2 2q-47 -31 -85.5 -45t-89.5 -14q-40 0 -78 20t-67 52q-25 27 -39.5 56.5t-14.5 51.5q0 36 13.5 68.5t36.5 58.5q-65 44 -98 87.5t-33 104.5q0 52 32 80.5t95 28.5q25 0 54 -11t47 -24q64 -46 64 -96q0 -23 -12.5 -38.5
t-39.5 -15.5q-23 0 -41 7v74q-12 10 -32 10q-22 0 -35.5 -14t-13.5 -40q0 -32 15.5 -59.5t44.5 -55.5q40 24 79 24q67 0 93 -13l16 -93l-10 -23q-26 10 -53 10q-43 0 -76.5 -15.5t-51.5 -38.5t-18 -45q0 -21 26 -34t54 -13q51 0 111.5 28.5t106.5 68.5v273h-99l-47 91v22
h321l49 -92z" />
    <glyph glyph-name="uni0928" unicode="&#x928;" horiz-adv-x="644" 
d="M644 577v-21h-90v-593h-22l-112 63v283l-213 -25l14 -100q-30 -4 -53 -4q-27 0 -58.5 12.5t-54 38.5t-22.5 63q0 69 37 90.5t88 21.5q78 0 218 -20l44 -6v176h-429l-47 91v22h650z" />
    <glyph glyph-name="uni0929" unicode="&#x929;" horiz-adv-x="644" 
d="M644 577v-21h-90v-593h-22l-112 63v283l-213 -25l14 -100q-30 -4 -53 -4q-27 0 -58.5 12.5t-54 38.5t-22.5 63q0 69 37 90.5t88 21.5q78 0 218 -20l44 -6v176h-429l-47 91v22h650zM251 133l111 -111l-111 -112l-112 112z" />
    <glyph glyph-name="uni092A" unicode="&#x92a;" horiz-adv-x="602" 
d="M601 577v-21h-90v-593h-22l-111 63v150l-2 1q-17 -9 -43.5 -17t-48.5 -8t-47 17.5t-44 36t-63 65.5q-40 44 -53 67.5t-13 60.5v157h-73l-47 91v22h608zM321 277.5q31 11.5 57 29.5v249h-180v-234q0 -28 17 -42t45 -14q30 0 61 11.5z" />
    <glyph glyph-name="uni092B" unicode="&#x92b;" horiz-adv-x="862" 
d="M510 555v-135q64 48 118 48q47 0 91.5 -27.5t72.5 -72.5t28 -94q0 -92 -47 -210l-125 70q30 43 59.5 107t29.5 90q0 18 -15 28t-43 10q-67 0 -168 -84v-322h-22l-118 66l16 152l-2 1q-16 -10 -46.5 -20t-54.5 -10q-30 0 -63.5 29t-90.5 90q-40 44 -53 67.5t-13 60.5v157
h-73l-47 91v22h869l49 -92v-21zM257 265q56 0 117 39l1 251h-178v-234q0 -29 18 -42.5t43 -13.5h-1z" />
    <glyph glyph-name="uni092C" unicode="&#x92c;" horiz-adv-x="670" 
d="M671 577v-21h-91v-593h-22l-118 66l8 120l-5 1q-50 -34 -92 -51.5t-94 -17.5q-48 0 -97.5 24t-82 70t-32.5 108q0 66 29 115.5t75 76t94 26.5q56 0 107.5 -38t93.5 -88h1v181h-454l-47 91v22h676zM232 376l106 -157q61 31 108 79v2q-30 33 -72.5 57.5t-80.5 24.5
q-32 0 -61 -6zM304 204l-107 162q-47 -18 -75 -47.5t-28 -58.5q0 -31 33.5 -52.5t87.5 -21.5q42 0 89 18z" />
    <glyph glyph-name="uni092D" unicode="&#x92d;" horiz-adv-x="786" 
d="M785 577v-21h-90v-593h-22l-111 63v172h-190q-12 -95 -90 -95q-37 0 -62.5 26t-38.5 62t-13 67q0 29 5 52h71v53q-86 36 -143 91t-57 117q0 51 37.5 79.5t94.5 28.5q47 0 93.5 -19t76.5 -59t30 -99v-192h187v246h-143l-47 91v22h364zM187 473q22 -29 58 -51q12 70 12 110
q0 26 -11.5 43.5t-32.5 17.5q-20 0 -34 -15t-14 -45q0 -31 22 -60z" />
    <glyph glyph-name="uni092E" unicode="&#x92e;" horiz-adv-x="670" 
d="M669 577v-21h-90v-593h-22l-111 63v192h-200q-12 -95 -90 -95q-37 0 -62.5 26t-38.5 62t-13 67q0 29 5 52h71v226h-127l-47 91v22h677zM446 330v226h-197v-226h197z" />
    <glyph glyph-name="uni092F" unicode="&#x92f;" horiz-adv-x="680" 
d="M680 556h-90v-593h-22l-111 63v110l-2 1q-20 -11 -56.5 -21t-71.5 -10q-93 0 -169.5 61t-117.5 178q80 25 116 52t36 67q0 45 -38 92h-163l-47 91v22h687l49 -92v-21zM457 273v283h-202q65 -79 65 -127q0 -35 -44.5 -74t-110.5 -62q8 -38 40 -60t71 -22q90 0 181 62z" />
    <glyph glyph-name="uni0930" unicode="&#x930;" horiz-adv-x="436" 
d="M435 555h-142q13 -74 13 -147q0 -64 -34.5 -116.5t-82.5 -97.5l213 -184l-71 -53l-223 254q-31 36 -46 61t-15 49q0 22 17.5 44.5t36.5 33.5l59 -31q8 13 13.5 40t5.5 57q0 42 -6 91h-182l-47 91v22h443l49 -92z" />
    <glyph glyph-name="uni0931" unicode="&#x931;" horiz-adv-x="457" 
d="M456 555h-163q13 -74 13 -147q0 -64 -34.5 -116.5t-82.5 -97.5l213 -184l-71 -53l-223 254q-31 36 -46 61t-15 49q0 22 17.5 44.5t36.5 33.5l59 -31q8 13 13.5 40t5.5 57q0 42 -6 91h-182l-47 91v22h464l49 -92zM114 93l111 -111l-111 -112l-112 112z" />
    <glyph glyph-name="uni0932" unicode="&#x932;" horiz-adv-x="815" 
d="M815 556h-90v-593h-22l-112 63v328q-8 3 -16 3q-34 0 -66 -30t-54.5 -75t-32.5 -87l-115 69q10 52 40 100q-38 21 -80 21q-45 0 -75.5 -31.5t-30.5 -78.5q0 -126 170 -263l-31 -33q-107 65 -185.5 148.5t-78.5 185.5q0 50 23 91t63 65t88 25q46 0 82.5 -20t85.5 -68
q30 34 68.5 53.5t81.5 19.5q30 0 63 -38v145h-600l-47 91v22h821l50 -92v-21z" />
    <glyph glyph-name="uni0933" unicode="&#x933;" horiz-adv-x="835" 
d="M679 558v-95q49 -30 77.5 -82t28.5 -122q0 -54 -18.5 -101.5t-56.5 -77.5t-95 -30q-54 0 -99 30.5t-81 78.5q-28 -60 -64 -92.5t-96 -32.5q-62 0 -114.5 27t-84 79t-31.5 123q0 57 19.5 107.5t59.5 82t99 31.5q55 0 100.5 -29.5t79.5 -74.5q26 52 59 82t84 33v61h-555
l-47 91v22h842l49 -92v-21zM727 301q0 36 -26 60t-76 24q-47 0 -78 -23.5t-49 -57.5t-42 -93q56 -39 111 -39q38 0 75.5 17t61.5 47t24 65h-1zM208 147q42 0 70.5 22.5t47 54.5t44.5 90l9 21q-45 29 -95 29q-47 0 -88.5 -17t-66.5 -47t-25 -67q0 -36 27 -61t78 -25h-1z" />
    <glyph glyph-name="uni0934" unicode="&#x934;" horiz-adv-x="835" 
d="M679 558v-95q49 -30 77.5 -82t28.5 -122q0 -54 -18.5 -101.5t-56.5 -77.5t-95 -30q-54 0 -99 30.5t-81 78.5q-28 -60 -64 -92.5t-96 -32.5q-62 0 -114.5 27t-84 79t-31.5 123q0 57 19.5 107.5t59.5 82t99 31.5q55 0 100.5 -29.5t79.5 -74.5q26 52 59 82t84 33v61h-555
l-47 91v22h842l49 -92v-21zM727 301q0 36 -26 60t-76 24q-47 0 -78 -23.5t-49 -57.5t-42 -93q56 -39 111 -39q38 0 75.5 17t61.5 47t24 65h-1zM208 147q42 0 70.5 22.5t47 54.5t44.5 90l9 21q-45 29 -95 29q-47 0 -88.5 -17t-66.5 -47t-25 -67q0 -36 27 -61t78 -25h-1z
M444 31l111 -111l-111 -112l-112 112z" />
    <glyph glyph-name="uni0935" unicode="&#x935;" horiz-adv-x="665" 
d="M666 577v-21h-90v-593h-22l-119 66l9 120l-5 1q-50 -34 -93 -51.5t-98 -17.5q-49 0 -95.5 24t-77 69.5t-30.5 108.5q0 67 26.5 116.5t71.5 75.5t98 26q56 0 107 -38t92 -88h1v181h-450l-47 91v22h672zM207 186q57 0 124.5 34t111.5 78v2q-30 34 -72.5 58t-79.5 24
q-53 0 -98.5 -19t-72 -47.5t-26.5 -55.5q0 -32 29.5 -53t82.5 -21h1z" />
    <glyph glyph-name="uni0936" unicode="&#x936;" horiz-adv-x="783" 
d="M694 556v-593h-23l-111 63v530h-145q35 -45 35 -108q0 -53 -27 -113t-74.5 -109t-106.5 -70l106 -159l-99 -51l-56 198l-21 -1q-37 0 -69.5 12t-51.5 31t-19 41q0 24 13 44.5t33 32t39 11.5q13 0 23 -4l39 -59q58 25 95 70q-79 36 -132.5 93t-53.5 121q0 8 2 20h-99
l-47 91v22h790l49 -92v-21h-89zM312.5 534.5q-19.5 21.5 -51.5 21.5q-21 0 -36 -15t-15 -44q0 -40 27 -77t66 -54q29 55 29 119q0 28 -19.5 49.5z" />
    <glyph glyph-name="uni0937" unicode="&#x937;" horiz-adv-x="621" 
d="M621 577v-21h-90v-593h-22l-111 63v112l-2 1q-18 -9 -49 -17t-53 -8q-32 0 -68 30.5t-91 88.5q-43 46 -57 69t-14 59v195h-73l-47 91v22h628zM198 556l200 -253v253h-200zM386 263l-188 237v-216q0 -28 19.5 -42t52.5 -14q55 0 116 35z" />
    <glyph glyph-name="uni0938" unicode="&#x938;" horiz-adv-x="707" 
d="M708 577v-21h-90v-593h-23l-111 63v171h-2q-40 -13 -78 -13q-36 0 -74 17.5t-83 54.5h-3q-24 -30 -58 -62l213 -184l-71 -53l-223 254q-31 36 -46 61t-15 49q0 22 17.5 44.5t36.5 33.5l59 -31q8 13 13.5 40t5.5 57q0 42 -6 91h-179l-47 91v22h714zM485 330v226h-192
q13 -74 13 -147q0 -39 -16 -77q47 -22 91 -22q60 0 104 20z" />
    <glyph glyph-name="uni0939" unicode="&#x939;" horiz-adv-x="596" 
d="M170 363q-14 -12 -14 -35q0 -32 27 -59q61 43 144 43q55 0 106 -31.5t83.5 -75.5t32.5 -78q0 -41 -31.5 -86.5t-72.5 -78.5l-97 87v2q57 37 84 63.5t27 55.5q0 22 -21.5 35.5t-64.5 13.5q-57 0 -96.5 -34t-39.5 -83q0 -72 62 -130.5t185 -125.5l-27 -37
q-99 49 -170.5 94.5t-123 106.5t-51.5 133q0 44 28 83q-28 34 -43 65t-15 65q0 132 102 132h175v68h-369l-46 91v22h604l48 -92v-21h-104v-181h-276q-32 0 -46 -12z" />
    <glyph glyph-name="uni093A" unicode="&#x93a;" 
d="M-89 895v-260h-134v260h134z" />
    <glyph glyph-name="uni093B" unicode="&#x93b;" horiz-adv-x="313" 
d="M313 577v-21h-89v-593h-23l-111 63v530h-99l-47 91v22h146v226h134v-226h40z" />
    <glyph glyph-name="uni093C" unicode="&#x93c;" 
d="M-42 -176l-111 -112l-112 112l112 111z" />
    <glyph glyph-name="uni093D" unicode="&#x93d;" horiz-adv-x="531" 
d="M470 577v-21h-236q-17 0 -27.5 -9t-10.5 -24q0 -13 12.5 -30t38.5 -45l20 -21l19 -20q45 -47 73 -80.5t48 -74t20 -81.5q0 -50 -22 -90.5t-60 -63.5t-84 -23q-76 0 -137 55.5t-108 138.5l35 28q35 -43 71.5 -70t80.5 -27q51 0 83 27t32 65q0 45 -29.5 87.5t-86.5 99.5
l-15 15q-43 43 -67.5 80t-24.5 70q0 50 27 78t78 28h221z" />
    <glyph glyph-name="uni093E" unicode="&#x93e;" horiz-adv-x="313" 
d="M313 577v-21h-89v-593h-23l-111 63v530h-99l-47 91v22h320z" />
    <glyph glyph-name="uni093F" unicode="&#x93f;" horiz-adv-x="313" 
d="M193.5 865.5q-39.5 -29.5 -39.5 -82.5q0 -28 9.5 -59t22.5 -55h78l49 -92v-21h-89v-593h-23l-111 63v530h-99l-47 91v22h157q-86 104 -86 182q0 47 28 84t78.5 58t115.5 21q110 0 247.5 -86t273.5 -201l-29 -38q-111 84 -228 145t-207 61q-61 0 -100.5 -29.5z" />
    <glyph glyph-name="uni0940" unicode="&#x940;" horiz-adv-x="307" 
d="M313 577v-21h-89v-593h-23l-111 63v530h-99l-47 91v22h160q-45 93 -93 154.5t-104 61.5q-35 0 -55 -22.5t-20 -58.5q0 -43 27 -90v-2l-47 -23q-49 31 -84 74t-35 92q0 38 21.5 72.5t61 56t90.5 21.5q71 0 127 -50.5t94 -119.5t80 -166h97z" />
    <glyph glyph-name="uni0941" unicode="&#x941;" 
d="M-383.5 -203q74.5 -58 161.5 -58q47 0 77.5 21t30.5 48q0 19 -14 32t-36 13q-23 0 -43 -6t-52 -21l-61 90q18 9 48.5 18t51.5 9q42 0 89 -23.5t78.5 -61.5t31.5 -79q0 -40 -21.5 -73t-59 -52.5t-83.5 -19.5q-83 0 -155.5 46t-128 110t-114.5 150l36 26
q89 -111 163.5 -169z" />
    <glyph glyph-name="uni0942" unicode="&#x942;" 
d="M-44.5 -221q-74.5 58 -161.5 58q-47 0 -77.5 -21t-30.5 -48q0 -19 14 -32t36 -13q23 0 43 6t52 21l61 -90q-18 -9 -48.5 -18t-51.5 -9q-42 0 -89 23.5t-78.5 61.5t-31.5 79q0 40 21.5 73t59 52.5t83.5 19.5q83 0 155.5 -46t128 -110t114.5 -150l-36 -26
q-89 111 -163.5 169z" />
    <glyph glyph-name="uni0943" unicode="&#x943;" 
d="M-34 -35q-89 0 -142 -19.5t-54 -53.5q0 -18 24 -30.5t61 -12.5q29 0 63 11.5t57 27.5l54 -108q-24 -14 -59 -25t-59 -11q-45 0 -93.5 26.5t-81 67.5t-32.5 82q1 62 55 99.5t156 55.5z" />
    <glyph glyph-name="uni0944" unicode="&#x944;" horiz-adv-x="600" 
d="M-647 -30q-96 -17 -133.5 -39t-37.5 -49q0 -14 21.5 -23.5t63.5 -9.5q26 0 54 11t49 28l54 -108q-22 -13 -55 -24t-57 -12q-30 -22 -30 -44q0 -15 15.5 -24t49.5 -9q26 0 54 11t49 28l54 -108q-24 -14 -59 -25t-59 -11q-37 0 -77.5 25t-66.5 64t-26 77q2 26 6 40
q-45 24 -75.5 63.5t-30.5 78.5q1 39 16.5 68.5t56 56.5t115.5 53z" />
    <glyph glyph-name="uni0945" unicode="&#x945;" 
d="M5 768q-52 -31 -126 -31q-76 0 -141.5 56.5t-103.5 128.5l33 18q33 -49 69.5 -77.5t86.5 -28.5q60 0 105 33.5t72 78.5l100 -90q-43 -57 -95 -88z" />
    <glyph glyph-name="uni0946" unicode="&#x946;" 
d="M-659 981q-15 -42 -15 -62q0 -18 20 -32t67 -14q60 0 174 10q84 6 100 6q47 0 88.5 -19.5t66.5 -50.5q21 -26 33.5 -57t12.5 -59q0 -29 -8 -61h-68q11 17 11 39q0 37 -27.5 65t-84.5 28q-18 0 -74 -6q-79 -9 -110 -9q-61 1 -123.5 18t-102.5 47t-40 66q0 43 23 100z" />
    <glyph glyph-name="uni0947" unicode="&#x947;" 
d="M-336.5 935q51.5 -54 107.5 -159q63 -126 83 -170h-53q-8 18 -33.5 54.5t-40.5 55.5q-58 78 -95 116l-135 -46q-45 40 -45 105q0 46 28 72t65 26q67 0 118.5 -54z" />
    <glyph glyph-name="uni0948" unicode="&#x948;" 
d="M-152 785q21 -51 54 -145h-63q-8 29 -37 95q-33 70 -72.5 137t-62.5 88l-153 -22h-2q-17 27 -17 70q0 46 28 72t65 26q131 0 260 -321zM-329.5 839.5q60.5 -49.5 96 -101.5t83.5 -132h-53q-8 13 -36.5 48.5t-40.5 50.5l-34 42l-212 -22h-3q-22 30 -22 77q0 41 28 64
t65 23q68 0 128.5 -49.5z" />
    <glyph glyph-name="uni0949" unicode="&#x949;" horiz-adv-x="313" 
d="M0 0zM313 577v-21h-89v-593h-23l-111 63v530h-99l-47 91v22h320zM315 768q-52 -31 -126 -31q-76 0 -141.5 56.5t-103.5 128.5l33 18q33 -49 69.5 -77.5t86.5 -28.5q60 0 105 33.5t72 78.5l100 -90q-43 -57 -95 -88z" />
    <glyph glyph-name="uni094A" unicode="&#x94a;" horiz-adv-x="313" 
d="M-358 981q-15 -42 -15 -62q0 -18 20 -32t67 -14q60 0 174 10q84 6 100 6q47 0 88.5 -19.5t66.5 -50.5q21 -26 33.5 -57t12.5 -59q0 -14 -2 -34h77l49 -92v-21h-89v-593h-23l-111 63v530h-99l-47 91v22h179q1 4 1 12q0 37 -27.5 65t-84.5 28q-18 0 -74 -6q-79 -9 -110 -9
q-61 1 -123.5 18t-102.5 47t-40 66q0 43 23 100z" />
    <glyph glyph-name="uni094B" unicode="&#x94b;" horiz-adv-x="313" 
d="M313 577v-21h-89v-593h-23l-111 63v530h-99l-47 91v22h160q-26 37 -35 47q-62 83 -94 116l-135 -46q-45 40 -45 105q0 46 28 72t65 26q67 0 119 -54.5t106 -158.5l54 -107h97z" />
    <glyph glyph-name="uni094C" unicode="&#x94c;" horiz-adv-x="307" 
d="M313 577v-21h-89v-593h-23l-111 63v530h-99l-47 91v22h118l-28 35l-34 43l-214 -22h-1q-22 30 -22 77q0 41 28 64t65 23q79 0 146 -64t124 -156h17q-14 35 -27 63q-33 71 -72.5 138.5t-63.5 89.5l-154 -22h-1q-17 27 -17 70q0 46 28 72t65 26q132 0 263 -329
q24 -59 41 -108h59z" />
    <glyph glyph-name="uni094D" unicode="&#x94d;" 
d="M-79.5 -198.5q-49.5 29.5 -107.5 46.5l-132 -40q-15 12 -25 31t-10 39q0 30 19 46.5t52 16.5q35 0 92 -25t124 -72t131 -108l-28 -24q-66 60 -115.5 89.5z" />
    <glyph glyph-name="uni0950" unicode="&#x950;" horiz-adv-x="1178" 
d="M810 791l-111 -112l-112 112l112 111zM588.5 644.5q36.5 -28.5 86.5 -28.5q60 0 105 33.5t72 78.5l100 -90q-43 -57 -95 -88t-126 -31q-76 0 -141.5 56.5t-103.5 128.5l33 18q33 -49 69.5 -77.5zM365 637q49 -35 81.5 -86.5t32.5 -95.5t-13.5 -70t-41.5 -52q8 -6 22 -20
l43 -43q44 -46 70.5 -66t54.5 -20q32 0 61 33.5t73 104.5q35 57 60.5 91t57 58t66.5 24q33 0 65.5 -17t59.5 -47q31 -33 49 -75t18 -82q0 -50 -22.5 -86.5t-58 -55.5t-73.5 -19q-37 0 -82 30.5t-79 73.5q-39 -64 -72.5 -98.5t-70.5 -34.5q-43 0 -73.5 19.5t-62.5 50.5
q-11 11 -16 15l-2 -1q-2 -34 -12 -62q-18 -49 -60 -78.5t-97 -29.5q-98 0 -178 77.5t-148 186.5l33 31q60 -80 119.5 -125t118.5 -45q52 0 83.5 27.5t31.5 64.5q0 47 -34 88q-65 -22 -138 -29l-52 95l9 17q59 6 100 14t67 25q18 11 25.5 30t7.5 46t-22 47.5t-58 20.5
q-44 0 -79.5 -18.5t-82.5 -60.5l-57 113q93 69 183 69q44 0 93 -35zM871 316q-13 -19 -39 -61q16 -20 36 -31.5t42 -11.5q29 0 55.5 14.5t43.5 43t17 66.5q0 27 -12 43.5t-36 16.5q-51 0 -107 -80z" />
    <glyph glyph-name="uni0951" unicode="&#x951;" 
d="M-110 1021v-263h-94v263h94z" />
    <glyph glyph-name="uni0952" unicode="&#x952;" 
d="M-385 -177h462v-90h-462v90z" />
    <glyph glyph-name="uni0953" unicode="&#x953;" 
d="M-395 989l103 38l164 -230v-7l-84 -38l-183 230v7z" />
    <glyph glyph-name="uni0954" unicode="&#x954;" 
d="M55 989v-7l-183 -230l-84 38v7l165 230z" />
    <glyph glyph-name="uni0956" unicode="&#x956;" 
d="M-45 -61l37 -31q-31 -60 -90.5 -101.5t-126.5 -41.5q-68 0 -127.5 41.5t-90.5 101.5l38 31q71 -69 180 -69t180 69z" />
    <glyph glyph-name="uni0957" unicode="&#x957;" 
d="M-45 -61l37 -31q-31 -60 -90.5 -101.5t-126.5 -41.5q-68 0 -127.5 41.5t-90.5 101.5l38 31q71 -69 180 -69t180 69zM-45 -227l37 -31q-31 -60 -90.5 -101.5t-126.5 -41.5q-68 0 -127.5 41.5t-90.5 101.5l38 31q71 -69 180 -69t180 69z" />
    <glyph glyph-name="uni0958" unicode="&#x958;" horiz-adv-x="875" 
d="M0 0zM523 556v-158q65 47 116 47q48 0 92.5 -27.5t72.5 -72t28 -93.5q0 -92 -47 -210l-125 69q30 45 59.5 108t29.5 89q0 19 -15 28.5t-43 9.5q-69 0 -167 -83v-300h-22l-118 66l13 130l-3 1q-41 -29 -77.5 -45t-79.5 -16q-52 0 -95.5 23.5t-70 68t-26.5 106.5
q0 47 17.5 88.5t54 67.5t90.5 26q55 0 101.5 -36t79.5 -89l1 202h-398l-47 91v22h882l49 -92v-21h-352zM198 210q89 0 188 74v6q-21 25 -63.5 46.5t-86.5 21.5q-31 0 -65 -10t-57 -29.5t-23 -45.5q0 -25 31 -43.5t76 -18.5v-1zM346 -40l-111 -112l-112 112l112 111z" />
    <glyph glyph-name="uni0959" unicode="&#x959;" horiz-adv-x="880" 
d="M0 0zM880 576v-21h-89v-593h-23l-111 63l2 43q-54 -37 -132.5 -63t-152.5 -26q-102 0 -266 211l-22 28q-32 42 -44 62.5t-12 40.5q0 22 17.5 44.5t36.5 33.5l59 -31q8 14 14 40.5t6 56.5q0 33 -7 91h-165l-47 91v22h887zM371 79q70 0 152.5 33t136.5 81v29l-1 1
q-39 -29 -72.5 -45.5t-68.5 -16.5q-45 0 -87 23.5t-67.5 65t-25.5 94.5q0 51 23 90.5t62 60.5t85 21q41 0 76 -26.5t72 -67.5h1v133h-380q14 -79 14 -147q0 -64 -35 -116.5t-83 -97.5q30 -40 84.5 -77t113.5 -37v-1zM482 265q41 0 89 26t85 66v3q-24 22 -58.5 33.5
t-64.5 11.5q-41 0 -74.5 -12.5t-53 -33t-19.5 -43.5q0 -19 27 -34.5t70 -15.5zM206 0l-111 -112l-112 112l112 111z" />
    <glyph glyph-name="uni095A" unicode="&#x95a;" horiz-adv-x="662" 
d="M0 0zM662 578v-21h-90v-593h-23l-112 63v530h-201q13 -88 20.5 -153t7.5 -120q0 -51 -21.5 -88t-90.5 -37q-37 0 -63 22.5t-38.5 54t-12.5 58.5q0 29 5 52l99 -13v223h-151l-47 91v22h668zM264 0l-111 -112l-112 112l112 111z" />
    <glyph glyph-name="uni095B" unicode="&#x95b;" horiz-adv-x="745" 
d="M0 0zM745 556h-90v-593h-22l-111 63v319h-176q90 -88 90 -166q0 -72 -40.5 -113.5t-101.5 -41.5q-76 0 -134.5 57t-96 147t-54.5 192l45 13q31 -126 83 -206t129 -80q40 0 64 18t24 53q0 46 -53.5 99t-124.5 95l21 46h325v98h-531l-47 91v22h752l49 -92v-21zM482 -150
l-111 -112l-112 112l112 111z" />
    <glyph glyph-name="uni095C" unicode="&#x95c;" horiz-adv-x="624" 
d="M0 0zM624 577v-21h-117v-191h-280q-70 0 -70 -57q0 -17 10.5 -37t21.5 -20q35 0 67.5 7t75.5 20q39 11 59 15.5t40 4.5q30 0 61.5 -28t52 -73t20.5 -92q-1 -86 -46.5 -134t-125.5 -48q-87 0 -185 55t-191 158l37 37q73 -76 137.5 -106.5t147.5 -30.5q63 0 118 23.5
t55 67.5q0 16 -12 33t-32 25q-25 -1 -48 -6.5t-60 -16.5q-41 -12 -66 -17.5t-53 -6.5q-26 1 -64.5 30.5t-66.5 75t-28 92.5q0 142 112 142h180v78h-384l-46 91v22h632zM482 -230l-111 -112l-112 112l112 111z" />
    <glyph glyph-name="uni095D" unicode="&#x95d;" horiz-adv-x="573" 
d="M0 0zM274 360q-76 0 -122.5 -31t-46.5 -87q0 -60 47 -102.5t108 -61.5q-22 44 -22 82q1 73 40.5 107t92.5 34q43 0 80 -23.5t59 -65t22 -91.5q0 -53 -28.5 -91t-71 -58t-83.5 -20q-63 1 -133 37t-118 107.5t-48 171.5q0 110 56.5 159t143.5 49h76v80h-336l-46 91v22h581
l48 -92v-21h-114v-197h-186zM300 117q-3 -25 6 -48h12q44 0 82.5 10t61.5 27t23 37q-1 24 -26.5 40.5t-54.5 16.5q-36 0 -69 -23t-34 -60h-1zM457 -178l-111 -112l-112 112l112 111z" />
    <glyph glyph-name="uni095E" unicode="&#x95e;" horiz-adv-x="862" 
d="M0 0zM510 555v-135q64 48 118 48q47 0 91.5 -27.5t72.5 -72.5t28 -94q0 -92 -47 -210l-125 70q30 43 59.5 107t29.5 90q0 18 -15 28t-43 10q-67 0 -168 -84v-322h-22l-118 66l16 152l-2 1q-16 -10 -46.5 -20t-54.5 -10q-30 0 -63.5 29t-90.5 90q-40 44 -53 67.5t-13 60.5
v157h-73l-47 91v22h869l49 -92v-21zM257 265q56 0 117 39l1 251h-178v-234q0 -29 18 -42.5t43 -13.5h-1zM196 100l-111 -112l-112 112l112 111z" />
    <glyph glyph-name="uni095F" unicode="&#x95f;" horiz-adv-x="680" 
d="M0 0zM680 556h-90v-593h-22l-111 63v110l-2 1q-20 -11 -56.5 -21t-71.5 -10q-93 0 -169.5 61t-117.5 178q80 25 116 52t36 67q0 45 -38 92h-163l-47 91v22h687l49 -92v-21zM457 273v283h-202q65 -79 65 -127q0 -35 -44.5 -74t-110.5 -62q8 -38 40 -60t71 -22q90 0 181 62
zM185 40l-111 -112l-112 112l112 111z" />
    <glyph glyph-name="uni0960" unicode="&#x960;" horiz-adv-x="903" 
d="M903 577v-21h-373v-204q58 6 104 36l-31 76q11 11 31.5 20t39.5 9q40 0 67 -24t27 -59q0 -32 -27 -67l81 -192q-133 -44 -133 -91q0 -15 15.5 -24t49.5 -9q26 0 54 11t49 28l54 -108q-22 -13 -55 -24t-57 -12q-30 -22 -30 -44q0 -15 15.5 -24t49.5 -9q26 0 54 11t49 28
l54 -108q-24 -14 -59 -25t-59 -11q-37 0 -77 25t-66.5 63.5t-26.5 76.5q0 24 7 45q-37 25 -62 62.5t-25 73.5q0 40 19.5 71.5t59.5 62.5l-28 68q-66 -36 -144 -35v-290h-23l-111 63v171l-233 -169l-78 87l311 203q-75 47 -152 47q-33 0 -66 -9.5t-76 -25.5l-67 119
q25 10 72.5 22t78.5 12q78 0 210 -109v182h-405l-47 91v22h910z" />
    <glyph glyph-name="uni0961" unicode="&#x961;" horiz-adv-x="823" 
d="M823 577v-21h-221v-119q65 -22 114.5 -71.5t49.5 -101.5q0 -45 -25 -81.5t-72 -83.5q-36 -36 -53 -59t-17 -47q0 -17 13 -28.5t32 -11.5q57 0 138 118l77 -81q-43 -43 -70 -64t-62 -30q-17 -22 -17 -39q0 -21 14 -34.5t44 -13.5q32 0 69.5 36.5t73.5 89.5l78 -82l-16 -16
q-31 -31 -52.5 -48.5t-51 -30t-66.5 -12.5q-36 0 -75 17t-65 44t-26 55q0 16 5 31q-61 12 -106.5 54t-45.5 92q0 29 19.5 53t60.5 61q47 41 71 73t25 73q0 27 -24.5 42.5t-56.5 15.5q-34 0 -66 -31.5t-54.5 -79t-32.5 -91.5l-115 59q11 62 41 113q-43 28 -91 28
q-27 0 -51.5 -14.5t-39.5 -42t-15 -63.5q0 -65 25 -125.5t74 -131.5l-35 -29q-43 35 -86.5 89t-73 118.5t-29.5 126.5q0 51 23 92.5t63 65t88 23.5t85.5 -21.5t90.5 -74.5q36 44 82 66v122h-477l-47 91v22h829z" />
    <glyph glyph-name="uni0962" unicode="&#x962;" 
d="M-111 -87q36 -19 58.5 -44.5t22.5 -52.5t-15.5 -49t-44.5 -51q-20 -20 -29 -31.5t-9 -22.5q0 -6 4 -10.5t10 -4.5q14 0 37.5 16.5t46.5 42.5l46 -50q-26 -26 -51.5 -40t-55.5 -14q-26 0 -53 11.5t-45 33t-18 49.5q0 17 11 31t35 37q26 25 38.5 41.5t12.5 36.5q0 9 -8 15
t-23 6q-35 0 -53.5 -35.5t-31.5 -85.5l-85 43q11 41 24 64q-17 10 -32 10q-28 0 -42.5 -16t-14.5 -44q0 -68 53 -144l-24 -20q-51 42 -86.5 96t-35.5 101t32 75t80 28q28 0 49.5 -12t45.5 -34q12 15 27.5 25t40.5 14v100h83v-115z" />
    <glyph glyph-name="uni0963" unicode="&#x963;" 
d="M-111 -87q36 -19 58.5 -44.5t22.5 -52.5t-15.5 -49t-44.5 -51q-20 -20 -29 -31.5t-9 -22.5q0 -6 4 -10.5t10 -4.5q14 0 37.5 16.5t46.5 42.5l46 -50q-39 -39 -73 -49q-8 -11 -8 -22q0 -20 24 -20q17 0 42.5 21t41.5 43l49 -49q-4 -4 -23.5 -22.5t-41 -28t-45.5 -9.5
q-22 0 -46 10t-40.5 26.5t-16.5 35.5q0 5 2 13q-36 8 -62 32.5t-26 58.5q0 17 11 31t35 37q26 25 38.5 41.5t12.5 36.5q0 9 -8 15t-23 6q-35 0 -53.5 -35.5t-31.5 -85.5l-85 43q11 41 24 64q-17 10 -32 10q-28 0 -42.5 -16t-14.5 -44q0 -68 53 -144l-24 -20q-51 42 -86.5 96
t-35.5 101t32 75t80 28q28 0 49.5 -12t45.5 -34q12 15 27.5 25t40.5 14v100h83v-115z" />
    <glyph glyph-name="uni0964" unicode="&#x964;" horiz-adv-x="544" 
d="M378 633v-670h-23l-111 63v670h23z" />
    <glyph glyph-name="uni0965" unicode="&#x965;" horiz-adv-x="808" 
d="M378 633v-670h-23l-111 63v670h23zM642 633v-670h-23l-111 63v670h23z" />
    <glyph glyph-name="uni0966" unicode="&#x966;" horiz-adv-x="631" 
d="M125 377q38 56 94 92t106 36q58 0 108.5 -27t81 -75.5t30.5 -109.5q0 -59 -39 -116t-95.5 -93t-104.5 -36q-62 0 -112 29t-78.5 79t-28.5 111q0 54 38 110zM224.5 215.5q22.5 -45.5 54 -69t56.5 -23.5q24 0 45.5 14t35 39t13.5 55q0 52 -19 98t-49.5 73.5t-63.5 27.5
q-38 0 -66.5 -30.5t-28.5 -76.5q0 -62 22.5 -107.5z" />
    <glyph glyph-name="uni0967" unicode="&#x967;" horiz-adv-x="631" 
d="M382 651q48 -26 81.5 -69t33.5 -90q0 -79 -131 -227l-77 -85l156 -158q47 -51 68.5 -81.5t21.5 -57.5q0 -40 -27.5 -64.5t-61.5 -24.5q-38 0 -72 25t-54 67v2l90 67q-32 48 -75.5 91.5t-122.5 113.5l-59 52v1l137 133q-62 39 -94 62t-55 54t-23 69q0 41 23.5 74.5
t63.5 52.5t88 19q41 0 89 -26zM263 581.5q-23 -34.5 -23 -81.5q0 -26 24.5 -58t58.5 -55q57 80 57 147q0 35 -18.5 58.5t-43.5 23.5q-32 0 -55 -34.5z" />
    <glyph glyph-name="uni0968" unicode="&#x968;" horiz-adv-x="631" 
d="M416 635q51 -42 85 -104t34 -115q0 -46 -32 -97t-85.5 -92.5t-115.5 -58.5l183 -276l-109 -56l-134 322q-41 -2 -76 9.5t-55.5 32t-20.5 42.5q0 28 12 51t30 36.5t35 13.5q13 0 23 -4l47 -72q59 12 106.5 43t74 73t26.5 84q0 41 -22 74t-58 33q-56 0 -100 -18t-106 -60
l-82 116q76 32 130 48.5t112 16.5q47 0 98 -42z" />
    <glyph glyph-name="uni0969" unicode="&#x969;" horiz-adv-x="631" 
d="M581 223q0 -59 -33.5 -108.5t-85.5 -79.5t-105 -34l88 -130l-95 -49l-51 182q-48 7 -84.5 26t-56.5 45.5t-20 54.5q1 33 24.5 50.5t50.5 17.5q2 0 20 -2l50 -82q41 0 90 22t82.5 57t33.5 70q-1 32 -24.5 49.5t-59.5 17.5q-13 0 -20 -1q-40 -21 -86 -32.5t-84 -11.5
q-26 0 -48 25t-22 63q0 18 54.5 34.5t137.5 23.5q58 34 58 86q0 25 -21.5 41t-58.5 16q-87 0 -206 -38l-61 116q132 25 221 25q47 0 98 -33.5t85 -83.5t34 -94q0 -46 -32 -83q66 -49 97.5 -91t31.5 -68z" />
    <glyph glyph-name="uni096A" unicode="&#x96a;" horiz-adv-x="631" 
d="M381 362q80 -74 117.5 -125.5t37.5 -89.5q0 -59 -63 -92.5t-149 -33.5q-50 0 -97.5 22t-77 60.5t-29.5 86.5q0 43 28 87.5t98 115.5q-65 58 -180 141q-15 11 -34.5 25t-40.5 31l53 67q2 -1 66 -57q129 -110 184 -158l64 63q108 103 207 204l53 -124q-165 -152 -238 -221z
M288 83q26 0 50.5 18t40 47.5t15.5 62.5q0 34 -57 91l-9 9q-58 -59 -79.5 -95t-21.5 -71q0 -27 18.5 -44.5t43.5 -17.5h-1z" />
    <glyph glyph-name="uni096B" unicode="&#x96b;" horiz-adv-x="631" 
d="M582 -182l-154 324q-57 -45 -113 -45q-44 0 -100 29t-95.5 76.5t-39.5 100.5q0 69 32 175t76 201l105 -85q-113 -232 -113 -338q0 -25 19.5 -46t40.5 -22q24 0 61 18t75 47l-44 89q14 16 35 27.5t46 11.5q43 0 70 -28.5t27 -76.5q0 -23 -12.5 -49.5t-33.5 -50.5l212 -309
z" />
    <glyph glyph-name="uni096C" unicode="&#x96c;" horiz-adv-x="631" 
d="M297 684l69 -125q-33 5 -54 5q-89 0 -136.5 -22t-47.5 -76q0 -23 16.5 -45.5t37.5 -35.5q45 27 98.5 41.5t97.5 14.5q27 0 47.5 -21.5t20.5 -59.5q0 -13 -29 -28.5t-74.5 -27t-91.5 -13.5q-53 -38 -53 -89q0 -22 14 -44.5t36.5 -36.5t48.5 -14q51 0 124 26l-39 88
q46 34 94 34q44 0 71.5 -24t27.5 -69q0 -27 -16 -55t-45 -51l139 -190l-95 -49l-91 208q-55 -30 -118 -30q-42 0 -104 47.5t-109 109.5t-47 99q0 51 43 96q-47 39 -80.5 86t-33.5 82q0 78 52.5 124t182.5 46q30 0 44 -1z" />
    <glyph glyph-name="uni096D" unicode="&#x96d;" horiz-adv-x="631" 
d="M138.5 345.5q45.5 -127.5 103 -183t117.5 -55.5q74 0 113.5 44.5t50.5 119.5q-30 -20 -63 -20q-68 0 -138 63q-49 44 -72 87.5t-23 108.5q0 39 22.5 72.5t57 53.5t67.5 20q52 0 88.5 -23t68.5 -74q32 -53 54.5 -129t22.5 -142q0 -93 -32.5 -159.5t-84 -100t-106.5 -33.5
q-95 0 -170.5 79t-124 229t-65.5 358l47 15q21 -203 66.5 -330.5zM383 532.5q-25 -15.5 -38.5 -40.5t-13.5 -52q0 -80 78 -80q25 0 56 12t57 33q-10 63 -32.5 103t-48.5 40q-33 0 -58 -15.5z" />
    <glyph glyph-name="uni096E" unicode="&#x96e;" horiz-adv-x="631" 
d="M506 630l-209 -236q-76 -86 -103 -138.5t-27 -104.5q0 -42 28 -75t77 -33q50 0 100.5 36t121.5 104l16 15l87 -79q-77 -88 -141.5 -121t-141.5 -33q-58 0 -118.5 34.5t-100 87t-39.5 102.5q0 89 110 214l305 348z" />
    <glyph glyph-name="uni096F" unicode="&#x96f;" horiz-adv-x="631" 
d="M296 678q51 -32 86.5 -82t35.5 -99q0 -43 -25 -81t-65.5 -64t-87.5 -36q184 -158 304 -289q44 -48 67 -82t23 -62q0 -40 -27.5 -64.5t-61.5 -24.5q-38 0 -72 25t-54 67v2l90 67q-104 128 -351 343q-16 15 -27 24.5t-19 16.5q-43 39 -64.5 67.5t-29.5 56t-8 64.5
q0 48 22.5 90t67 67.5t105.5 25.5q40 0 91 -32zM177.5 584.5q-30.5 -17.5 -47 -45t-16.5 -55.5q0 -22 6 -42t24 -40q43 8 79 28.5t57 47.5t21 51q0 31 -15 52t-38 21q-40 0 -70.5 -17.5z" />
    <glyph glyph-name="uni0970" unicode="&#x970;" horiz-adv-x="447" 
d="M82 350.5q30 39.5 72.5 64t74.5 24.5q42 0 80.5 -18t62 -52.5t23.5 -80.5t-30.5 -86t-73 -64t-73.5 -24q-43 0 -81.5 19.5t-61.5 54.5t-23 80q0 43 30 82.5zM167.5 239.5q14.5 -28.5 34 -44t34.5 -15.5q21 0 40 19t19 47q0 32 -13 61.5t-32 48t-37 18.5q-22 0 -41 -19.5
t-19 -47.5q0 -39 14.5 -67.5z" />
    <glyph glyph-name="uni0971" unicode="&#x971;" horiz-adv-x="313" 
d="M268 614l-111 -112l-112 112l112 111z" />
    <glyph glyph-name="uni0972" unicode="&#x972;" horiz-adv-x="871" 
d="M15 0zM870 555h-87v-593h-23l-111 63v178h-2q-23 -7 -40 -7q-27 0 -50.5 8.5t-56.5 34.5h-3q13 -30 13 -66q0 -49 -22 -89.5t-60.5 -63.5t-86.5 -23q-98 0 -178 77.5t-148 186.5l33 31q60 -80 119.5 -125t118.5 -45q52 0 83.5 27.5t31.5 64.5q0 47 -34 88
q-65 -22 -138 -29l-52 95l9 17q59 6 100 14t67 25q18 11 25.5 30t7.5 46t-22 47.5t-58 20.5q-44 0 -79.5 -18.5t-82.5 -60.5l-57 113q93 69 183 69q44 0 93 -35t81.5 -86.5t32.5 -95.5q0 -42 -12.5 -67.5t-37.5 -49.5q27 -12 61 -19.5t60 -7.5q33 0 57 7t45 22v217h-122
l-46 91v22h340l49 -92zM875 768q-52 -31 -126 -31q-76 0 -141.5 56.5t-103.5 128.5l33 18q33 -49 69.5 -77.5t86.5 -28.5q60 0 105 33.5t72 78.5l100 -90q-43 -57 -95 -88z" />
    <glyph glyph-name="uni0973" unicode="&#x973;" horiz-adv-x="871" 
d="M15 0zM870 555h-87v-593h-23l-111 63v178h-2q-23 -7 -40 -7q-27 0 -50.5 8.5t-56.5 34.5h-3q13 -30 13 -66q0 -49 -22 -89.5t-60.5 -63.5t-86.5 -23q-98 0 -178 77.5t-148 186.5l33 31q60 -80 119.5 -125t118.5 -45q52 0 83.5 27.5t31.5 64.5q0 47 -34 88
q-65 -22 -138 -29l-52 95l9 17q59 6 100 14t67 25q18 11 25.5 30t7.5 46t-22 47.5t-58 20.5q-44 0 -79.5 -18.5t-82.5 -60.5l-57 113q93 69 183 69q44 0 93 -35t81.5 -86.5t32.5 -95.5q0 -42 -12.5 -67.5t-37.5 -49.5q27 -12 61 -19.5t60 -7.5q33 0 57 7t45 22v217h-122
l-46 91v22h340l49 -92zM784 895v-260h-134v260h134z" />
    <glyph glyph-name="uni0974" unicode="&#x974;" horiz-adv-x="1182" 
d="M15 0zM1181 555h-90v-593h-23l-111 63v530h-174v-593h-23l-111 63v178h-2q-23 -7 -40 -7q-27 0 -50.5 8.5t-56.5 34.5h-3q13 -30 13 -66q0 -49 -22 -89.5t-60.5 -63.5t-86.5 -23q-98 0 -178 77.5t-148 186.5l33 31q60 -80 119.5 -125t118.5 -45q52 0 83.5 27.5t31.5 64.5
q0 47 -34 88q-65 -22 -138 -29l-52 95l9 17q59 6 100 14t67 25q18 11 25.5 30t7.5 46t-22 47.5t-58 20.5q-44 0 -79.5 -18.5t-82.5 -60.5l-57 113q93 69 183 69q44 0 93 -35t81.5 -86.5t32.5 -95.5q0 -42 -12.5 -67.5t-37.5 -49.5q27 -12 61 -19.5t60 -7.5q33 0 57 7t45 22
v217h-122l-46 91v22h651l49 -92zM1092 895v-260h-134v260h134z" />
    <glyph glyph-name="uni0976" unicode="&#x976;" horiz-adv-x="871" 
d="M15 0zM870 555h-87v-593h-23l-111 63v178h-2q-23 -7 -40 -7q-27 0 -50.5 8.5t-56.5 34.5h-3q13 -30 13 -66q0 -49 -22 -89.5t-60.5 -63.5t-86.5 -23q-98 0 -178 77.5t-148 186.5l33 31q60 -80 119.5 -125t118.5 -45q52 0 83.5 27.5t31.5 64.5q0 47 -34 88
q-65 -22 -138 -29l-52 95l9 17q59 6 100 14t67 25q18 11 25.5 30t7.5 46t-22 47.5t-58 20.5q-44 0 -79.5 -18.5t-82.5 -60.5l-57 113q93 69 183 69q44 0 93 -35t81.5 -86.5t32.5 -95.5q0 -42 -12.5 -67.5t-37.5 -49.5q27 -12 61 -19.5t60 -7.5q33 0 57 7t45 22v217h-122
l-46 91v22h340l49 -92zM897 -61l37 -31q-31 -60 -90.5 -101.5t-126.5 -41.5q-68 0 -127.5 41.5t-90.5 101.5l38 31q71 -69 180 -69t180 69z" />
    <glyph glyph-name="uni0977" unicode="&#x977;" horiz-adv-x="871" 
d="M15 0zM870 555h-87v-593h-23l-111 63v178h-2q-23 -7 -40 -7q-27 0 -50.5 8.5t-56.5 34.5h-3q13 -30 13 -66q0 -49 -22 -89.5t-60.5 -63.5t-86.5 -23q-98 0 -178 77.5t-148 186.5l33 31q60 -80 119.5 -125t118.5 -45q52 0 83.5 27.5t31.5 64.5q0 47 -34 88
q-65 -22 -138 -29l-52 95l9 17q59 6 100 14t67 25q18 11 25.5 30t7.5 46t-22 47.5t-58 20.5q-44 0 -79.5 -18.5t-82.5 -60.5l-57 113q93 69 183 69q44 0 93 -35t81.5 -86.5t32.5 -95.5q0 -42 -12.5 -67.5t-37.5 -49.5q27 -12 61 -19.5t60 -7.5q33 0 57 7t45 22v217h-122
l-46 91v22h340l49 -92zM897 -61l37 -31q-31 -60 -90.5 -101.5t-126.5 -41.5q-68 0 -127.5 41.5t-90.5 101.5l38 31q71 -69 180 -69t180 69zM897 -227l37 -31q-31 -60 -90.5 -101.5t-126.5 -41.5q-68 0 -127.5 41.5t-90.5 101.5l38 31q71 -69 180 -69t180 69z" />
    <glyph glyph-name="uni0979" unicode="&#x979;" horiz-adv-x="745" 
d="M745 556h-90v-593h-22l-111 63v319h-176q90 -88 90 -166q0 -72 -40.5 -113.5t-101.5 -41.5q-76 0 -134.5 57t-96 147t-54.5 192l45 13q31 -126 83 -206t129 -80q40 0 64 18t24 53q0 46 -53.5 99t-124.5 95l21 46h325v98h-531l-47 91v22h752l49 -92v-21zM246 -70l-83 -84
l-84 84l84 83zM376 13l83 -83l-83 -84l-84 84zM269 -94l83 -83l-83 -84l-84 84z" />
    <glyph glyph-name="uni097A" unicode="&#x97a;" horiz-adv-x="680" 
d="M680 577v-21h-90v-593h-22l-111 63v110l-2 1q-20 -11 -56.5 -21t-71.5 -10q-93 0 -169.5 61t-117.5 178q80 25 116 52t36 67q0 45 -38 92h-163l-47 91v22h687zM255 557l21 -27l181 -225v251h-201zM442 264l-123 152q-8 -32 -51 -66.5t-103 -55.5q8 -38 40 -60t71 -22
q82 0 166 52z" />
    <glyph glyph-name="uni097B" unicode="&#x97b;" horiz-adv-x="662" 
d="M662 577v-21h-90v-619h-508l-37 71v22h410v526h-201q13 -90 20.5 -153.5t7.5 -118.5q0 -51 -21.5 -88t-90.5 -37q-37 0 -63 22.5t-38.5 54t-12.5 58.5q0 29 5 52l99 -13v223h-151l-47 91v22h668z" />
    <glyph glyph-name="uni097C" unicode="&#x97c;" horiz-adv-x="745" 
d="M745 577v-21h-90v-699h-591l-37 71v22h495v395h-176q90 -88 90 -166q0 -72 -40.5 -113.5t-101.5 -41.5q-76 0 -134.5 57t-96 147t-54.5 192l45 13q31 -126 83 -206t129 -80q40 0 64 18t24 53q0 46 -53.5 99t-124.5 95l21 46h325v98h-531l-47 91v22h752z" />
    <glyph glyph-name="uni097D" unicode="&#x97d;" horiz-adv-x="568" 
d="M357 631q54 -41 90 -101.5t36 -113.5q0 -40 -25.5 -79t-66.5 -61q-29 -16 -90 -32v-281h-23l-111 63v296l9 17q115 10 166 41q23 13 36.5 36.5t13.5 52.5q0 40 -28.5 70t-66.5 30q-42 0 -74.5 -18.5t-76.5 -60.5l-57 113q40 28 88 48.5t77 20.5q49 0 103 -41z" />
    <glyph glyph-name="uni097E" unicode="&#x97e;" horiz-adv-x="624" 
d="M624 577v-21h-117v-191h-280q-70 0 -70 -57q0 -17 10.5 -37t21.5 -20q35 0 67.5 7t75.5 20q39 11 59 15.5t40 4.5q30 0 61.5 -28t52 -73t20.5 -92q-1 -86 -46.5 -134t-125.5 -48q-87 0 -185 55t-191 158l37 37q73 -76 137.5 -106.5t147.5 -30.5q63 0 118 23.5t55 67.5
q0 16 -12 33t-32 25q-25 -1 -48 -6.5t-60 -16.5q-41 -12 -66 -17.5t-53 -6.5q-26 1 -64.5 30.5t-66.5 75t-28 92.5q0 142 112 142h180v78h-384l-46 91v22h632zM597 -221v-22h-533l-37 71v22h533z" />
    <glyph glyph-name="uni097F" unicode="&#x97f;" horiz-adv-x="670" 
d="M670 577v-21h-91v-619h-515l-37 71v22h412l8 119l-5 1q-49 -34 -90.5 -51.5t-94.5 -17.5q-48 0 -97.5 24t-82 70t-32.5 108q0 66 29 115.5t75 76t94 26.5q56 0 107.5 -38t93.5 -88h1v181h-454l-47 91v22h676zM232 376l106 -157q63 31 107 79v2q-30 33 -72.5 57.5
t-80.5 24.5q-31 0 -60 -6zM121 318.5q-28 -29.5 -28 -58.5q0 -31 33.5 -52.5t87.5 -21.5q40 0 89 17l-108 162q-46 -17 -74 -46.5z" />
    <glyph glyph-name="uni2000" unicode="&#x2000;" horiz-adv-x="500" 
 />
    <glyph glyph-name="uni2001" unicode="&#x2001;" horiz-adv-x="1000" 
 />
    <glyph glyph-name="uni2002" unicode="&#x2002;" horiz-adv-x="500" 
 />
    <glyph glyph-name="uni2003" unicode="&#x2003;" horiz-adv-x="1000" 
 />
    <glyph glyph-name="uni2004" unicode="&#x2004;" horiz-adv-x="333" 
 />
    <glyph glyph-name="uni2005" unicode="&#x2005;" horiz-adv-x="250" 
 />
    <glyph glyph-name="uni2006" unicode="&#x2006;" horiz-adv-x="167" 
 />
    <glyph glyph-name="uni2007" unicode="&#x2007;" horiz-adv-x="629" 
 />
    <glyph glyph-name="uni2008" unicode="&#x2008;" horiz-adv-x="353" 
 />
    <glyph glyph-name="uni2009" unicode="&#x2009;" horiz-adv-x="200" 
 />
    <glyph glyph-name="uni200A" unicode="&#x200a;" horiz-adv-x="100" 
 />
    <glyph glyph-name="uni200C" unicode="&#x200c;" horiz-adv-x="600" 
 />
    <glyph glyph-name="uni200D" unicode="&#x200d;" horiz-adv-x="600" 
 />
    <glyph glyph-name="endash" unicode="&#x2013;" horiz-adv-x="737" 
d="M648 468v-115h-559l3 115h556z" />
    <glyph glyph-name="emdash" unicode="&#x2014;" horiz-adv-x="1179" 
d="M1090 468v-114h-1001v114h1001z" />
    <glyph glyph-name="quoteleft" unicode="&#x2018;" horiz-adv-x="450" 
d="M129 452q-34 59 -34 130q4 96 63 173t148 110l50 -46v-21q-22 -8 -44 -34t-36.5 -58.5t-14.5 -59.5q0 -32 24 -62.5t53 -33.5v-38l-113 -141q-62 22 -96 81z" />
    <glyph glyph-name="quoteright" unicode="&#x2019;" horiz-adv-x="450" 
d="M94 438q22 9 44.5 35t37 58t14.5 59q0 35 -24 64.5t-54 32.5v38l113 141q61 -22 95.5 -79t34.5 -124q0 -64 -28 -122.5t-75.5 -102.5t-106.5 -65l-51 44v21z" />
    <glyph glyph-name="quotesinglbase" unicode="&#x201a;" horiz-adv-x="450" 
d="M225 215q62 -22 96 -78.5t34 -124.5q0 -96 -55.5 -166t-154.5 -110l-51 46v21q38 15 66.5 55.5t28.5 81.5q0 35 -24 64.5t-53 32.5v37z" />
    <glyph glyph-name="quotedblleft" unicode="&#x201c;" horiz-adv-x="750" 
d="M131 452q-35 61 -35 129q0 61 28 118t76 100t106 65l51 -46v-20q-23 -9 -45 -34.5t-36 -58t-14 -59.5q0 -35 23.5 -64.5t53.5 -32.5v-37l-113 -141q-60 20 -95 81zM430.5 453q-34.5 61 -34.5 128q0 61 28 118t76 100t105 65l52 -46v-20q-36 -14 -66 -62t-30 -90
q0 -34 24.5 -64t53.5 -33v-37l-114 -141q-60 21 -94.5 82z" />
    <glyph glyph-name="quotedblright" unicode="&#x201d;" horiz-adv-x="751" 
d="M94 437q23 8 45.5 33.5t36.5 58t14 59.5q0 36 -24 65t-54 32v38l114 141q61 -22 95.5 -79t34.5 -124q0 -65 -27.5 -124t-75.5 -102t-107 -64l-52 45v21zM394 437q22 7 44.5 33t37 59t14.5 59q0 32 -23.5 63t-53.5 34v38l112 141q60 -21 95.5 -79t35.5 -124
q0 -63 -28 -122.5t-76 -103.5t-106 -64l-52 45v21z" />
    <glyph glyph-name="quotedblbase" unicode="&#x201e;" horiz-adv-x="727" 
d="M227 217q42 -15 72 -48.5t45 -76.5t12 -86q-1 -62 -29.5 -119.5t-76 -100t-104.5 -63.5l-52 46v21q23 8 45.5 33.5t36.5 58t14 59.5q0 36 -23.5 65t-53.5 32v38zM502 217q60 -22 95 -79.5t35 -123.5q0 -64 -28 -122.5t-76 -102.5t-107 -66l-51 46v21q22 7 44.5 33t37 59
t14.5 59q0 33 -23.5 63.5t-53.5 33.5v38z" />
    <glyph glyph-name="dagger" unicode="&#x2020;" horiz-adv-x="547" 
d="M213 535l-150 -19v131l151 -23l-20 136v45h159v-45l-20 -136l151 23l1 -131l-151 19l17 -118l-39 -289h-86l-29 289z" />
    <glyph glyph-name="daggerdbl" unicode="&#x2021;" horiz-adv-x="547" 
d="M353 760l-20 -136l151 23l1 -131l-151 19l17 -118l-18 -102l151 24l1 -131l-151 19l17 -118l-38 -289h-87l-29 289l16 118l-150 -19v131l151 -24l-17 102l16 118l-150 -19v131l151 -23l-20 136v45h159v-45z" />
    <glyph glyph-name="bullet" unicode="&#x2022;" horiz-adv-x="449" 
d="M141 236.5q-37 20.5 -59 55t-22 75.5q0 46 24.5 86t65 64t86.5 24q43 0 79 -20t57.5 -55t21.5 -77q0 -46 -24 -86t-64.5 -63.5t-86.5 -23.5q-41 0 -78 20.5z" />
    <glyph glyph-name="ellipsis" unicode="&#x2026;" horiz-adv-x="1170" 
d="M278 162q27 -26 27 -69q0 -46 -35.5 -76.5t-82.5 -30.5q-41 0 -70.5 25.5t-29.5 65.5q0 29 17.5 54.5t45 41t54.5 15.5q47 0 74 -26zM667 162q27 -26 27 -69q0 -46 -35.5 -76.5t-82.5 -30.5q-42 0 -70.5 25.5t-28.5 65.5q0 29 17.5 55t44.5 41t54 15q47 0 74 -26z
M1056.5 162.5q26.5 -25.5 26.5 -69.5q0 -47 -35.5 -77t-82.5 -30q-41 0 -70 25.5t-29 65.5q0 29 17.5 55t44.5 41t54 15q48 0 74.5 -25.5z" />
    <glyph glyph-name="perthousand" unicode="&#x2030;" horiz-adv-x="1473" 
d="M391 -86h-117l353 950h117zM387 649.5q48 -47.5 48 -130.5q0 -55 -26.5 -96t-72 -63t-100.5 -22q-53 0 -94.5 23t-65 63.5t-23.5 89.5q0 54 27 96t72.5 64.5t99.5 22.5q87 0 135 -47.5zM193.5 594q-17.5 -33 -17.5 -76q0 -24 10 -50t27 -43t37 -17q29 0 45.5 29t16.5 78
q0 43 -19 77.5t-48 34.5q-34 0 -51.5 -33zM931 391.5q48 -47.5 48 -130.5q0 -55 -26.5 -96t-72 -63t-100.5 -22q-53 0 -94.5 23.5t-65 63.5t-23.5 89q0 55 27 96.5t72.5 64t99.5 22.5q87 0 135 -47.5zM1358 392.5q48 -46.5 48 -131.5q0 -55 -26.5 -96t-72 -63t-100.5 -22
q-52 0 -94 23.5t-65.5 63.5t-23.5 89q0 55 26.5 96.5t72.5 64t101 22.5q86 0 134 -46.5zM741 337q-18 -32 -18 -77q0 -25 10.5 -51t27.5 -42.5t35 -16.5q29 0 45.5 28.5t16.5 78.5q0 44 -19 78t-47 34q-33 0 -51 -32zM1167.5 336q-17.5 -33 -17.5 -76q0 -25 10.5 -51
t28 -42.5t35.5 -16.5q29 0 45.5 29t16.5 78q0 43 -19 77.5t-48 34.5q-34 0 -51.5 -33z" />
    <glyph glyph-name="guilsinglleft" unicode="&#x2039;" horiz-adv-x="626" 
d="M473 559l42 -67l-223 -192l223 -184l-42 -72l-361 177v149z" />
    <glyph glyph-name="guilsinglright" unicode="&#x203a;" horiz-adv-x="626" 
d="M331 302l-222 184l42 73l361 -177v-149l-361 -189l-42 66z" />
    <glyph glyph-name="fraction" unicode="&#x2044;" horiz-adv-x="522" 
d="M507 888l-390 -1055l-103 36l389 1049z" />
    <glyph glyph-name="Euro" unicode="&#x20ac;" horiz-adv-x="829" 
d="M580.5 758.5q30.5 -6.5 66.5 -17.5q4 -1 26.5 -7.5t41.5 -6.5q10 0 21 3l-8 -184h-78l-35 93q-46 37 -129 37q-73 0 -108.5 -40.5t-45.5 -119.5h216v-84h-223v-58v-37h214v-81h-207q12 -91 54.5 -138t121.5 -47q44 -1 75 16q16 9 33.5 45.5t28.5 75.5h91v-177
q-12 2 -19 2q-14 0 -28.5 -4t-37.5 -12q-39 -14 -76.5 -22.5t-91.5 -8.5q-131 0 -223.5 72t-120.5 198h-97v81h88v12q0 40 6 83h-79v84h99q41 123 133.5 186t223.5 63q37 0 67.5 -6.5z" />
    <glyph glyph-name="uni20B9" unicode="&#x20b9;" horiz-adv-x="631" 
d="M389 565q33 -45 39 -95h160v-22l-42 -81h-138q-27 -49 -79 -80t-116 -52l294 -180l-93 -103l-222 224q-27 27 -40.5 50.5t-15.5 38.5l5 4q29 8 74 34.5t71 64.5h-179v21l44 82h155q-11 46 -56 95h-143v21l44 82h437v-22l-42 -81z" />
    <glyph glyph-name="trademark" unicode="&#x2122;" horiz-adv-x="1141" 
d="M228 433v263l-74 -12l-18 -55l-47 -2l6 131h371l5 -128l-42 -5l-24 62l-61 9v-263l58 -10v-44h-230v44zM550 435l13 262l-44 6v55h188l62 -173l10 -45l71 218h179v-55l-43 -5l17 -264l49 -11v-44h-199v44l36 9l2 169l2 101l-8 -35l-99 -292h-39l-112 272l-16 53l3 -75
l-3 -191l46 -11v-44h-171v44z" />
    <glyph glyph-name="partialdiff" unicode="&#x2202;" horiz-adv-x="723" 
d="M578.5 761q76.5 -96 76.5 -266q0 -145 -42 -264.5t-127 -191.5t-210 -72q-66 0 -117 29.5t-79 80t-28 113.5q0 91 54.5 167.5t142.5 121t183 44.5q36 0 72 -6q-12 115 -65 176.5t-153 61.5q-71 0 -131 -35l-48 64q54 35 115.5 54t125.5 19q154 0 230.5 -96zM243.5 374.5
q-44.5 -48.5 -44.5 -130.5q0 -45 21 -86t57.5 -65.5t80.5 -24.5q66 0 101 69.5t44 171.5q5 63 5 66q-71 48 -143 48q-77 0 -121.5 -48.5z" />
    <glyph glyph-name="uni2206" unicode="&#x2206;" horiz-adv-x="864" 
d="M396 740h35l370 -717l-17 -23h-705l-16 21zM391 467l-141 -315h298z" />
    <glyph glyph-name="product" unicode="&#x220f;" horiz-adv-x="959" 
d="M174 667l-95 11v80h806v-80l-100 -11v-665l95 -21v-67h-364v67l94 20v677h-261v-676l90 -20v-68h-356v68l91 20v665z" />
    <glyph glyph-name="summation" unicode="&#x2211;" horiz-adv-x="740" 
d="M100 662l4 96h513l15 -167h-86l-41 88l-227 8l237 -344l-274 -351l278 10l57 100l87 -18l-26 -172l-533 1l-4 80l241 319z" />
    <glyph glyph-name="minus" unicode="&#x2212;" horiz-adv-x="645" 
d="M555 468v-115h-466v115h466z" />
    <glyph glyph-name="radical" unicode="&#x221a;" horiz-adv-x="867" 
d="M136 346h156l130 -373h4l284 965h109l-341 -1111h-145l-175 421l-62 -45l-48 80z" />
    <glyph glyph-name="infinity" unicode="&#x221e;" horiz-adv-x="1139" 
d="M942.5 519.5q55.5 -26.5 88.5 -74.5t33 -110q0 -57 -40 -121.5t-100.5 -108t-117.5 -43.5q-76 0 -137.5 37t-117.5 107q-125 -144 -233 -144q-63 0 -118 26t-88.5 73.5t-35.5 107.5q-1 58 38.5 123t101 109.5t119.5 44.5q77 0 136 -35.5t118 -107.5q126 143 233 143
q65 0 120.5 -26.5zM712.5 407q-32.5 -23 -65.5 -66q57 -68 107.5 -109t95.5 -41q28 0 49 32.5t21 70.5q0 34 -22.5 65.5t-57 51t-66.5 19.5q-29 0 -61.5 -23zM241 384.5q-21 -32.5 -21 -70.5q0 -34 23 -65t57.5 -50.5t66.5 -19.5q29 0 62 23t65 66q-66 74 -111.5 111.5
t-91.5 37.5q-29 0 -50 -32.5z" />
    <glyph glyph-name="integral" unicode="&#x222b;" horiz-adv-x="609" 
d="M587 765l-80 -68q-7 24 -28.5 43t-44.5 19q-50 0 -69 -39t-19 -110q0 -65 9 -129.5t27 -156.5q17 -90 26 -152.5t9 -125.5q0 -76 -30.5 -139.5t-86 -100t-127.5 -36.5q-52 0 -92 17.5t-60 53.5l80 73q7 -23 29 -42.5t44 -19.5q50 0 69.5 38.5t19.5 109.5q0 55 -9.5 117.5
t-27.5 153.5q-20 104 -29.5 166.5t-9.5 122.5q0 78 32 141t89 99t128 36q113 0 151 -71z" />
    <glyph glyph-name="approxequal" unicode="&#x2248;" horiz-adv-x="679" 
d="M121.5 567q28.5 28 67.5 47t69 19q28 0 49.5 -9.5t48.5 -27.5q26 -17 42 -24.5t37 -7.5q26 0 51.5 12.5t55.5 36.5l48 -61q-5 -29 -32.5 -57t-64.5 -46t-70 -18q-29 0 -48 8.5t-44 26.5q-24 17 -42.5 25.5t-45.5 8.5q-31 0 -53.5 -11.5t-52.5 -36.5l-48 61q4 26 32.5 54z
M121.5 281q28.5 28 67.5 47t69 19q28 0 49.5 -9.5t48.5 -27.5q26 -17 42.5 -24.5t36.5 -7.5q26 0 51.5 12.5t55.5 36.5l48 -61q-5 -29 -32.5 -57t-64.5 -46t-70 -18q-29 0 -48 8.5t-44 26.5q-24 17 -42.5 25.5t-45.5 8.5q-31 0 -53.5 -11.5t-52.5 -36.5l-48 61q4 26 32.5 54
z" />
    <glyph glyph-name="notequal" unicode="&#x2260;" horiz-adv-x="645" 
d="M89 210v113h160l45 155h-205v113h245l33 100h108l-33 -100h113v-113h-153l-46 -155h199v-113h-238l-39 -124h-108l39 124h-120z" />
    <glyph glyph-name="lessequal" unicode="&#x2264;" horiz-adv-x="654" 
d="M565 705v-139l-265 -91l265 -88v-139l-473 194v66zM555 173v-115h-466v115h466z" />
    <glyph glyph-name="greaterequal" unicode="&#x2265;" horiz-adv-x="654" 
d="M357 475l-265 91v139l473 -197v-66l-473 -194v139zM555 173v-115h-466v115h466z" />
    <glyph glyph-name="lozenge" unicode="&#x25ca;" horiz-adv-x="651" 
d="M67 370l201 321h129l187 -311v-59l-201 -321h-130l-186 311v59zM312 578l-125 -206l150 -259l127 206z" />
    <glyph glyph-name="uni25CC" unicode="&#x25cc;" horiz-adv-x="769" 
d="M357 603.5q12 12.5 29 12.5q16 0 28.5 -12.5t12.5 -28.5q0 -17 -12.5 -29t-28.5 -12q-17 0 -29 12t-12 29q0 16 12 28.5zM230 572q12 12 28 12q17 0 29 -12t12 -29q0 -16 -12 -28.5t-29 -12.5q-16 0 -28 12t-12 29t12 29zM481.5 572q12.5 12 28.5 12q17 0 29 -12t12 -29
t-12 -29t-29 -12q-16 0 -28.5 12.5t-12.5 28.5q0 17 12.5 29zM136 479q12 12 29 12t29 -12t12 -29t-12 -29t-29 -12t-29 12t-12 29t12 29zM576.5 479q12.5 12 28.5 12q17 0 29 -12t12 -29t-12 -29t-29 -12t-29 12t-12 29t12.5 29zM105 352q12 12 29 12t29 -12t12 -29
q0 -16 -12 -28.5t-29 -12.5t-29 12t-12 29t12 29zM608 352q12 12 28 12q17 0 29 -12t12 -29t-12 -29t-29 -12q-16 0 -28 12.5t-12 28.5q0 17 12 29zM136 225.5q12 11.5 29 11.5t29 -12t12 -28t-12 -28.5t-29 -12.5t-29 12t-12 29t12 28.5zM576 225q12 12 29 12t29 -11.5
t12 -28.5t-12 -29t-29 -12q-16 0 -28.5 12.5t-12.5 28.5t12 28zM230 130.5q12 11.5 28 11.5q17 0 29 -12t12 -28t-12 -28.5t-29 -12.5q-16 0 -28 12t-12 29t12 28.5zM481 130q12 12 29 12t29 -11.5t12 -28.5t-12 -29t-29 -12q-16 0 -28.5 12.5t-12.5 28.5t12 28zM357 100
q12 12 29 12q16 0 28.5 -12t12.5 -29q0 -16 -12.5 -28.5t-28.5 -12.5q-17 0 -29 12t-12 29t12 29z" />
    <glyph glyph-name="NULL" horiz-adv-x="600" 
 />
    <glyph glyph-name="uni093F0902" horiz-adv-x="313" 
d="M0 0zM193.5 865.5q-39.5 -29.5 -39.5 -82.5q0 -28 9.5 -59t22.5 -55h78l49 -92v-21h-89v-593h-23l-111 63v530h-99l-47 91v22h157q-86 104 -86 182q0 47 28 84t78.5 58t115.5 21q110 0 247.5 -86t273.5 -201l-29 -38q-111 84 -228 145t-207 61q-61 0 -100.5 -29.5z
M933 842l-111 -112l-112 112l112 111z" />
    <glyph glyph-name="uni093F0930094D" horiz-adv-x="313" 
d="M825.5 1052q56.5 -36 101.5 -99l-29 -37q-21 19 -60 36t-73 17q-30 0 -51.5 -20.5t-21.5 -56.5q0 -55 30 -110q15 -29 36 -55l-29 -38q-111 84 -228 145t-207 61q-61 0 -100.5 -29.5t-39.5 -82.5q0 -28 9.5 -59t22.5 -55h78l49 -92v-21h-89v-593h-23l-111 63v530h-99
l-47 91v22h157q-86 104 -86 182q0 47 28 84t78.5 58t115.5 21q77 0 172.5 -47t196.5 -121h2q-44 63 -45 116q0 40 22.5 68.5t56 43t68.5 14.5q59 0 115.5 -36z" />
    <glyph glyph-name="uni093F0930094D0902" horiz-adv-x="313" 
d="M769 1074q26 -7 49 -19l-15 -69q-24 6 -49 6q-32 0 -57.5 -25t-25.5 -75t32 -101q21 -35 55 -64l-29 -38q-111 84 -228 145t-207 61q-61 0 -100.5 -29.5t-39.5 -82.5q0 -28 9.5 -59t22.5 -55h78l49 -92v-21h-89v-593h-23l-111 63v530h-99l-47 91v22h157q-86 104 -86 182
q0 47 28 84t78.5 58t115.5 21q137 0 365 -165h2q-40 64 -40 109q0 35 19 63.5t51 44t69 15.5q40 0 66 -7zM911 874l-83 -84l-84 84l84 83z" />
    <glyph glyph-name="uni09400902" horiz-adv-x="307" 
d="M0 0zM313 577v-21h-89v-593h-23l-111 63v530h-99l-47 91v22h160q-45 93 -93 154.5t-104 61.5q-35 0 -55 -22.5t-20 -58.5q0 -43 27 -90v-2l-47 -23q-49 31 -84 74t-35 92q0 38 21.5 72.5t61 56t90.5 21.5q71 0 127 -50.5t94 -119.5t80 -166h97zM375 834l-111 -112
l-112 112l112 111z" />
    <glyph glyph-name="uni09400930094D" horiz-adv-x="313" 
d="M37 910q11 45 44 69.5t71 24.5q57 0 115 -36.5t102 -98.5l-29 -37q-21 19 -60 36t-73 17q-33 0 -56.5 -23t-23.5 -63q0 -57 45 -130h92l49 -92v-21h-89v-593h-23l-111 63v530h-99l-47 91v22h160q-46 93 -93 154.5t-103 61.5q-35 0 -55 -22.5t-20 -58.5q0 -43 27 -90v-2
l-47 -23q-49 31 -84 74t-35 92q0 38 21.5 72.5t61 56t90.5 21.5q92 0 170 -95z" />
    <glyph glyph-name="uni09400930094D0902" horiz-adv-x="307" 
d="M32 915q15 41 48.5 65t77.5 24q40 0 66 -7t49 -19l-15 -69q-24 6 -49 6q-32 0 -57.5 -25.5t-25.5 -76.5q0 -70 46 -144h92l49 -92v-21h-89v-593h-23l-111 63v530h-99l-47 91v22h160q-46 93 -93 154.5t-103 61.5q-35 0 -55 -22.5t-20 -58.5q0 -43 27 -90v-2l-47 -23
q-49 31 -84 74t-35 92q0 38 21.5 72.5t61 56t90.5 21.5q90 0 165 -90zM366 797l-83 -84l-84 84l84 83z" />
    <glyph glyph-name="uni094B0902" horiz-adv-x="313" 
d="M0 0zM313 577v-21h-89v-593h-23l-111 63v530h-99l-47 91v22h160q-26 37 -35 47q-62 83 -94 116l-135 -46q-45 40 -45 105q0 46 28 72t65 26q67 0 119 -54.5t106 -158.5l54 -107h97zM362 834l-111 -112l-112 112l112 111z" />
    <glyph glyph-name="uni094B0930094D" horiz-adv-x="313" 
d="M165.5 876q-23.5 -23 -23.5 -63q0 -60 54 -144h68l49 -92v-21h-89v-593h-23l-111 63v530h-99l-47 91v22h175q-21 30 -44 61q-58 78 -95 116l-135 -46q-45 40 -45 105q0 46 28 72t65 26q79 0 146 -85q13 47 50 73.5t78 26.5q57 0 115 -36.5t102 -98.5l-29 -37
q-21 19 -60 36t-73 17q-33 0 -56.5 -23z" />
    <glyph glyph-name="uni094B0930094D0902" horiz-adv-x="313" 
d="M166.5 903.5q-25.5 -25.5 -25.5 -76.5q0 -76 55 -158h68l49 -92v-21h-89v-593h-23l-111 63v530h-99l-47 91v22h175q-21 30 -44 61q-58 78 -95 116l-135 -46q-45 40 -45 105q0 46 28 72t65 26q79 0 146 -85q13 45 49.5 72.5t84.5 27.5q40 0 66 -7t49 -19l-15 -69
q-24 6 -49 6q-32 0 -57.5 -25.5zM381 811l-83 -84l-84 84l84 83z" />
    <glyph glyph-name="uni094C0902" horiz-adv-x="307" 
d="M0 0zM313 577v-21h-89v-593h-23l-111 63v530h-99l-47 91v22h118l-28 35l-34 43l-214 -22h-1q-22 30 -22 77q0 41 28 64t65 23q79 0 146 -64t124 -156h17q-14 35 -27 63q-33 71 -72.5 138.5t-63.5 89.5l-154 -22h-1q-17 27 -17 70q0 46 28 72t65 26q132 0 263 -329
q24 -59 41 -108h59zM403 834l-111 -112l-112 112l112 111z" />
    <glyph glyph-name="uni094C0930094D" horiz-adv-x="313" 
d="M90 950q19 38 53.5 55.5t66.5 17.5q56 0 106 -35.5t91 -99.5l-29 -37q-21 19 -60 36t-73 17q-30 0 -52.5 -21t-22.5 -58q0 -45 39 -156h55l49 -92v-21h-89v-593h-23l-111 63v530h-99l-47 91v22h130l-78 97l-215 -22q-22 30 -22 77q0 41 28 64t65 23q84 0 153.5 -70
t128.5 -169h12q-14 39 -34 85q-33 70 -72.5 137t-62.5 88l-155 -22q-17 27 -17 70q0 46 28 72t65 26q97 0 192 -175z" />
    <glyph glyph-name="uni094C0930094D0902" horiz-adv-x="313" 
d="M88 954q16 33 46 51t68 18q40 0 66 -7t49 -19l-15 -69q-24 6 -49 6q-32 0 -57.5 -25.5t-25.5 -76.5q0 -58 40 -163h54l49 -92v-21h-89v-593h-23l-111 63v530h-99l-47 91v22h130l-78 97l-215 -22q-22 30 -22 77q0 41 28 64t65 23q84 0 153.5 -70t128.5 -169h12
q-11 34 -34 85q-33 70 -72.5 137t-62.5 88l-155 -22q-17 27 -17 70q0 46 28 72t65 26q95 0 190 -171zM410 816l-83 -84l-84 84l84 83z" />
    <glyph glyph-name="uni093F.0" horiz-adv-x="313" 
d="M313 961.5q60 -42.5 104 -97t109 -146.5l-37 -29q-48 61 -83.5 100.5t-78 67.5t-86.5 28q-38 0 -62.5 -27t-24.5 -75q0 -28 9.5 -59t22.5 -55h78l49 -92v-21h-89v-593h-23l-111 63v530h-99l-47 91v22h157q-86 104 -86 182q0 43 21.5 78t60.5 55t90 20q66 0 126 -42.5z
" />
    <glyph glyph-name="uni093F0902.0" horiz-adv-x="313" 
d="M313 961.5q60 -42.5 104 -97t109 -146.5l-37 -29q-48 61 -83.5 100.5t-78 67.5t-86.5 28q-38 0 -62.5 -27t-24.5 -75q0 -28 9.5 -59t22.5 -55h78l49 -92v-21h-89v-593h-23l-111 63v530h-99l-47 91v22h157q-86 104 -86 182q0 43 21.5 78t60.5 55t90 20q66 0 126 -42.5z
M715 842l-111 -112l-112 112l112 111z" />
    <glyph glyph-name="uni093F0930094D.0" horiz-adv-x="313" 
d="M588.5 1050q56.5 -36 101.5 -99l-29 -37q-21 19 -60 36t-73 17q-30 0 -51.5 -20.5t-21.5 -56.5q0 -64 42 -131q3 -4 29 -41l-37 -29q-48 61 -83.5 100.5t-78 67.5t-86.5 28q-38 0 -62.5 -27t-24.5 -75q0 -28 9.5 -59t22.5 -55h78l49 -92v-21h-89v-593h-23l-111 63v530
h-99l-47 91v22h157q-86 104 -86 182q0 43 21.5 78t60.5 55t90 20q81 0 162 -71h1q-4 16 -4 37q1 37 20 63.5t48 39.5t59 13q59 0 115.5 -36z" />
    <glyph glyph-name="uni093F0930094D0902.0" horiz-adv-x="313" 
d="M537 1065q26 -7 49 -19l-15 -69q-24 6 -49 6q-24 0 -43.5 -25t-19.5 -74q0 -40 15.5 -76.5t39.5 -72.5l12 -17l-37 -29q-48 61 -83.5 100.5t-78 67.5t-86.5 28q-38 0 -62.5 -27t-24.5 -75q0 -28 9.5 -59t22.5 -55h78l49 -92v-21h-89v-593h-23l-111 63v530h-99l-47 91v22
h157q-86 104 -86 182q0 43 21.5 78t60.5 55t90 20q81 0 167 -76h1q-3 17 -3 31q0 49 35.5 81t83.5 32q40 0 66 -7zM679 865l-83 -84l-84 84l84 83z" />
    <glyph glyph-name="uni093F.05" horiz-adv-x="313" 
d="M616 932.5q163 -81.5 333 -205.5l-29 -38q-151 98 -284.5 152t-281.5 54q-88 0 -144 -32.5t-56 -93.5q0 -25 8.5 -51.5t21.5 -48.5h81l48 -92v-21h-89v-593h-23l-111 63v530h-99l-47 91v22h155q-84 96 -84 169q0 51 35 91t98 62.5t145 22.5q160 0 323 -81.5z" />
    <glyph glyph-name="uni093F.10" horiz-adv-x="313" 
d="M640.5 932.5q175.5 -81.5 358.5 -205.5l-29 -38q-166 99 -310.5 152.5t-305.5 53.5q-88 0 -144 -32.5t-56 -93.5q0 -25 8.5 -51.5t21.5 -48.5h81l48 -92v-21h-89v-593h-23l-111 63v530h-99l-47 91v22h155q-84 96 -84 169q0 51 35 91t98 62.5t145 22.5q172 0 347.5 -81.5z
" />
    <glyph glyph-name="uni093F0902.05" horiz-adv-x="313" 
d="M616 932.5q163 -81.5 333 -205.5l-29 -38q-151 98 -284.5 152t-281.5 54q-88 0 -144 -32.5t-56 -93.5q0 -25 8.5 -51.5t21.5 -48.5h81l48 -92v-21h-89v-593h-23l-111 63v530h-99l-47 91v22h155q-84 96 -84 169q0 51 35 91t98 62.5t145 22.5q160 0 323 -81.5zM1123 842
l-111 -112l-112 112l112 111z" />
    <glyph glyph-name="uni093F0902.10" horiz-adv-x="313" 
d="M640.5 932.5q175.5 -81.5 358.5 -205.5l-29 -38q-166 99 -310.5 152.5t-305.5 53.5q-88 0 -144 -32.5t-56 -93.5q0 -25 8.5 -51.5t21.5 -48.5h81l48 -92v-21h-89v-593h-23l-111 63v530h-99l-47 91v22h155q-84 96 -84 169q0 51 35 91t98 62.5t145 22.5q172 0 347.5 -81.5z
M1173 842l-111 -112l-112 112l112 111z" />
    <glyph glyph-name="uni093F0930094D.05" horiz-adv-x="313" 
d="M1016.5 1052q56.5 -36 101.5 -99l-29 -37q-21 19 -60 36t-73 17q-30 0 -51.5 -20.5t-21.5 -56.5q0 -56 30 -111q14 -26 36 -54l-29 -38q-151 98 -284.5 152t-281.5 54q-88 0 -144 -32.5t-56 -93.5q0 -25 8.5 -51.5t21.5 -48.5h81l48 -92v-21h-89v-593h-23l-111 63v530
h-99l-47 91v22h155q-84 96 -84 169q0 51 35 91t98 62.5t145 22.5q225 0 525 -196h1q-64 82 -65 144q0 40 22.5 68.5t56 43t68.5 14.5q59 0 115.5 -36z" />
    <glyph glyph-name="uni093F0930094D.10" horiz-adv-x="313" 
d="M954.5 948.5q-21.5 -20.5 -21.5 -56.5q0 -66 41 -129q7 -11 25 -36l-29 -38q-166 99 -310.5 152.5t-305.5 53.5q-88 0 -144 -32.5t-56 -93.5q0 -25 8.5 -51.5t21.5 -48.5h81l48 -92v-21h-89v-593h-23l-111 63v530h-99l-47 91v22h155q-84 96 -84 169q0 51 35 91t98 62.5
t145 22.5q141 0 288 -58t297 -151l1 1q-36 45 -55 82.5t-20 73.5q0 40 22.5 68.5t56 43t68.5 14.5q59 0 115.5 -36t101.5 -99l-29 -37q-21 19 -60 36t-73 17q-30 0 -51.5 -20.5z" />
    <glyph glyph-name="uni093F0930094D0902.05" horiz-adv-x="313" 
d="M960 1074q26 -7 49 -19l-15 -69q-24 6 -49 6q-32 0 -57.5 -25t-25.5 -75q0 -61 48 -124q12 -16 39 -41l-29 -38q-151 98 -284.5 152t-281.5 54q-88 0 -144 -32.5t-56 -93.5q0 -25 8.5 -51.5t21.5 -48.5h81l48 -92v-21h-89v-593h-23l-111 63v530h-99l-47 91v22h155
q-84 96 -84 169q0 51 35 91t98 62.5t145 22.5q224 0 520 -193h2q-28 38 -44 71t-16 66q0 35 19 63.5t51 44t69 15.5q40 0 66 -7zM1102 874l-83 -84l-84 84l84 83z" />
    <glyph glyph-name="uni093F0930094D0902.10" horiz-adv-x="313" 
d="M937.5 967q-25.5 -25 -25.5 -75q0 -62 49 -126q21 -25 38 -39l-29 -38q-166 99 -310.5 152.5t-305.5 53.5q-88 0 -144 -32.5t-56 -93.5q0 -25 8.5 -51.5t21.5 -48.5h81l48 -92v-21h-89v-593h-23l-111 63v530h-99l-47 91v22h155q-84 96 -84 169q0 51 35 91t98 62.5
t145 22.5q140 0 286.5 -57t294.5 -149h1q-33 40 -51.5 77t-18.5 73q0 35 19 63.5t51 44t69 15.5q40 0 66 -7t49 -19l-15 -69q-24 6 -49 6q-32 0 -57.5 -25zM1152 874l-83 -84l-84 84l84 83z" />
    <glyph glyph-name="uni0940.02" horiz-adv-x="307" 
d="M-171.5 962.5q93.5 -52.5 170.5 -125.5t160 -168h105l49 -92v-21h-89v-593h-23l-111 63v530h-99l-47 91v22h138q-239 226 -401 226q-43 0 -68.5 -25t-25.5 -64q0 -25 8 -49.5t19 -42.5v-2l-47 -23q-48 31 -83.5 74.5t-35.5 93.5q0 40 24 76.5t68 59t100 22.5
q95 0 188.5 -52.5z" />
    <glyph glyph-name="uni09400902.02" horiz-adv-x="307" 
d="M0 0zM-171.5 962.5q93.5 -52.5 170.5 -125.5t160 -168h105l49 -92v-21h-89v-593h-23l-111 63v530h-99l-47 91v22h138q-239 226 -401 226q-43 0 -68.5 -25t-25.5 -64q0 -25 8 -49.5t19 -42.5v-2l-47 -23q-48 31 -83.5 74.5t-35.5 93.5q0 40 24 76.5t68 59t100 22.5
q95 0 188.5 -52.5zM348 834l-111 -112l-112 112l112 111z" />
    <glyph glyph-name="uni09400930094D.02" horiz-adv-x="307" 
d="M-19 853q0 58 34 97q21 26 50.5 40t59.5 14q59 0 115.5 -36t101.5 -99l-29 -37q-21 19 -60 36t-73 17q-30 0 -51.5 -20.5t-21.5 -56.5q0 -66 52 -139h105l49 -92v-21h-89v-593h-23l-111 63v530h-99l-47 91v22h138q-239 226 -401 226q-43 0 -68.5 -25t-25.5 -64
q0 -25 8 -49.5t19 -42.5v-2l-47 -23q-48 31 -83.5 74.5t-35.5 93.5q0 40 24 76.5t68 59t100 22.5q157 0 341 -162z" />
    <glyph glyph-name="uni09400930094D0902.02" horiz-adv-x="307" 
d="M-26 859q1 41 24 76q21 32 55 50.5t72 18.5q40 0 66 -7t49 -19l-15 -69q-24 6 -49 6q-32 0 -57.5 -25t-25.5 -75q0 -71 69 -146h102l49 -92v-21h-89v-593h-23l-111 63v530h-99l-47 91v22h138q-239 226 -401 226q-43 0 -68.5 -25t-25.5 -64q0 -25 8 -49.5t19 -42.5v-2
l-47 -23q-48 31 -83.5 74.5t-35.5 93.5q0 40 24 76.5t68 59t100 22.5q154 0 334 -156zM333 797l-83 -84l-84 84l84 83z" />
    <glyph glyph-name="uni0932.loclMAR" horiz-adv-x="805" 
d="M805 577v-21h-203v-122q65 -26 114 -76.5t50 -103.5q2 -63 -21 -118.5t-66 -128.5l-117 62q48 68 75.5 122.5t28.5 97.5q-9 68 -91 68q-32 0 -61.5 -31.5t-51 -79t-30.5 -91.5l-115 59q10 59 40 114q-43 27 -90 27q-42 0 -74 -30.5t-32 -79.5q0 -126 170 -263l-31 -33
q-107 65 -185.5 148.5t-78.5 185.5q0 51 23 92.5t63 65t88 23.5q47 0 85 -21.5t89 -72.5q37 47 84 67v119h-477l-47 91v22h811z" />
    <glyph glyph-name="uni0936.loclMAR" horiz-adv-x="793" 
d="M793 577v-21h-89v-593h-23l-111 63v530h-227v-60q55 -31 96.5 -91t41.5 -112q0 -35 -26.5 -72.5t-73 -67.5t-103.5 -43l102 -154l-99 -51l-56 198l-21 -1q-37 0 -69.5 12t-51.5 31t-19 41q0 24 13 44.5t33 32t39 11.5q13 0 23 -4l39 -59q88 17 133.5 53t45.5 80
q0 28 -22 49t-58 21q-52 0 -93.5 -14t-98.5 -45l-57 113q90 35 148 44v44h-208l-47 91v22h790z" />
    <glyph glyph-name="uni091D.loclNEP" horiz-adv-x="1047" 
d="M269.5 660q46.5 -19 76.5 -59t30 -99v-192h187v246h-143l-47 91v22h625l49 -92v-21h-351v-155q65 47 117 47q47 0 91.5 -27.5t72.5 -72.5t28 -94q0 -92 -47 -210l-125 70q30 43 59.5 107t29.5 90q0 18 -15 28t-43 10q-67 0 -168 -84v-302h-22l-111 63v172h-190
q-12 -95 -91 -95q-37 0 -62.5 26t-38.5 62t-13 67q0 29 5 52h71v53q-86 36 -143 91t-57 117q0 51 37.5 79.5t94.5 28.5q47 0 93.5 -19zM180 578q-14 -15 -14 -45q0 -31 22 -60t58 -52q12 70 12 111q0 26 -11.5 43.5t-32.5 17.5q-20 0 -34 -15z" />
    <glyph glyph-name="uni0979.loclNEP" horiz-adv-x="732" 
d="M732 577v-21h-429q26 -42 44 -84q57 17 117 17q48 0 101.5 -42.5t89.5 -104.5t36 -117q0 -36 -17.5 -73.5t-52 -68t-84.5 -43.5l103 -155l-99 -51l-56 198q-7 -1 -21 -1q-37 0 -69.5 12t-51.5 31t-19 41q0 24 13 44.5t33 32t39 11.5q13 0 23 -4l39 -59q57 11 85.5 31.5
t36.5 45t7 59.5q-2 46 -29 78t-71 32q-62 0 -125 -25q1 -6 1 -16q0 -48 -21 -89.5t-62.5 -67t-98.5 -25.5q-75 0 -132 46l-31 88l14 16q44 -47 113 -47q36 0 63.5 23t27.5 81q0 42 -19 95t-47 91h-192l-47 91v22h739z" />
    <glyph glyph-name="uni0915094D0915" horiz-adv-x="1511" 
d="M1158 556v-158q65 47 116 47q48 0 92.5 -27.5t72.5 -72t28 -93.5q0 -92 -47 -210l-125 69q30 45 59.5 108t29.5 89q0 19 -15 28.5t-43 9.5q-69 0 -167 -83v-300h-22l-118 66l13 130l-3 1q-41 -29 -77.5 -45t-79.5 -16q-52 0 -95.5 23.5t-70 68t-26.5 106.5v3
q-20 16 -45 16q-28 0 -53.5 -13.5t-57.5 -40.5v-299h-22l-118 66l13 130l-3 1q-41 -29 -77.5 -45t-79.5 -16q-52 0 -95.5 23.5t-70 68t-26.5 106.5q0 47 17.5 88.5t54 67.5t90.5 26q55 0 101.5 -36t79.5 -89l1 202h-398l-47 91v22h1518l49 -92v-21h-353zM598 414
q55 0 100 -24q19 41 55 65t87 24q55 0 101.5 -36t79.5 -89l1 202h-500v-164q39 23 76 23v-1zM197 209q89 0 188 74v6q-21 25 -63.5 46.5t-86.5 21.5q-31 0 -65 -10t-57 -29.5t-23 -45.5q0 -25 31 -43.5t76 -18.5v-1zM833 208q89 0 188 74v6q-21 25 -63.5 46.5t-86.5 21.5
q-31 0 -65 -10t-57 -29.5t-23 -45.5q0 -25 31 -43.5t76 -18.5v-1z" />
    <glyph glyph-name="uni0915094D0924" horiz-adv-x="987" 
d="M636 398q65 47 117 47q47 0 91.5 -27.5t72.5 -72.5t28 -94q0 -92 -47 -210l-125 70q30 43 59.5 107t29.5 90q0 18 -15 28t-43 10q-67 0 -168 -84v-299h-22l-112 63v309h-121q-59 0 -86 -27.5t-27 -85.5q1 -89 149 -216l-42 -45q-99 75 -166 153.5t-67 159.5q0 31 11 61
h-89l-47 91v22h485v108h-511l-47 91v22h993l50 -92v-21h-351v-158z" />
    <glyph glyph-name="uni0915094D0930" horiz-adv-x="875" 
d="M523 556v-158q65 47 116 47q48 0 92.5 -27.5t72.5 -72t28 -93.5q0 -92 -47 -210l-125 69q30 45 59.5 108t29.5 89q0 19 -15 28.5t-43 9.5q-69 0 -167 -83v-300h-22l-118 66l13 130l-3 1l-277 -246l-89 102l138 95q-54 20 -87.5 68t-33.5 118q0 47 17.5 88.5t54 67.5
t90.5 26q55 0 101.5 -36t79.5 -89l1 202h-398l-47 91v22h882l49 -92v-21h-352zM122 229.5q31 -18.5 76 -18.5q88 0 188 73v6q-21 25 -63.5 46.5t-86.5 21.5q-31 0 -65 -10t-57 -29.5t-23 -45.5q0 -25 31 -43.5z" />
    <glyph glyph-name="uni0915094D0932" horiz-adv-x="1451" 
d="M1450 556h-90v-593h-22l-112 63v328q-7 3 -16 3q-34 0 -66 -30t-54.5 -75t-32.5 -87l-115 69q10 52 40 100q-38 21 -80 21q-45 0 -75.5 -31.5t-30.5 -78.5q0 -126 170 -263l-31 -33q-107 65 -185.5 148.5t-78.5 185.5q0 15 1 22q-18 11 -37 11q-28 0 -53.5 -13.5
t-57.5 -40.5v-299h-22l-118 66l13 130l-3 1q-41 -29 -77.5 -45t-79.5 -16q-52 0 -95.5 23.5t-70 68t-26.5 106.5q0 47 17.5 88.5t54 67.5t90.5 26q55 0 101.5 -36t79.5 -89l1 202h-398l-47 91v22h1457l50 -92zM1227 556h-702v-164q39 23 76 23q58 0 102 -27q23 34 60.5 54.5
t81.5 21.5q46 0 82.5 -20t85.5 -68q30 34 68.5 53.5t81.5 19.5q30 0 63 -38zM200 210q89 0 188 74v6q-21 25 -63.5 46.5t-86.5 21.5q-31 0 -65 -10t-57 -29.5t-23 -45.5q0 -25 31 -43.5t76 -18.5v-1z" />
    <glyph glyph-name="uni0915094D0935" horiz-adv-x="1301" 
d="M1301 579v-21h-90v-593h-22l-119 66l9 120l-5 1q-50 -34 -93 -51.5t-98 -17.5q-49 0 -95.5 24t-77 69.5t-30.5 108.5v15q-20 16 -45 16q-28 0 -53.5 -13.5t-57.5 -40.5v-299h-22l-118 66l13 130l-3 1q-41 -29 -77.5 -45t-79.5 -16q-52 0 -95.5 23.5t-70 68t-26.5 106.5
q0 47 17.5 88.5t54 67.5t90.5 26q55 0 101.5 -36t79.5 -89l1 202h-398l-47 91v22h1308zM602 417q56 0 101 -26q24 53 71 82.5t103 29.5t107 -38t92 -88h1v181h-552v-164q39 23 76 23h1zM843 188q57 0 124.5 34t111.5 78v2q-30 34 -72.5 58t-79.5 24q-53 0 -98.5 -19
t-72 -47.5t-26.5 -55.5q0 -32 29.5 -53t82.5 -21h1zM202 212q89 0 188 74v6q-21 25 -63.5 46.5t-86.5 21.5q-31 0 -65 -10t-57 -29.5t-23 -45.5q0 -25 31 -43.5t76 -18.5v-1z" />
    <glyph glyph-name="uni0915094D0937" horiz-adv-x="826" 
d="M739 556v-593h-23l-111 63v196q-42 -15 -77 -15q-49 1 -97 21t-112 75q-15 -8 -28.5 -14.5t-24.5 -12.5q-58 -28 -85 -49t-28 -55q0 -41 25 -67t56 -26q39 0 80 16l-30 69q14 16 40.5 26.5t49.5 10.5q42 0 65 -24t23 -58q0 -26 -15 -50t-41 -43l120 -150l-95 -49l-76 174
q-26 -10 -59 -10q-59 0 -118.5 35.5t-97.5 92t-38 112.5q0 43 40 74.5t117 70.5q-61 32 -97 70.5t-36 76.5q0 48 25 83.5t65.5 53.5t87.5 18q33 0 80 -32.5t81 -79t34 -84.5q0 -93 -77 -151q37 -14 98 -14q92 0 145 39v200h-122l-46 91v22h340l49 -92v-21h-87zM196.5 447
q19.5 -27 49.5 -47q51 28 79 55.5t28 61.5q0 20 -24 39.5t-46 19.5q-41 0 -73.5 -21.5t-32.5 -61.5q0 -19 19.5 -46z" />
    <glyph glyph-name="uni0915094D0937094D" horiz-adv-x="540" 
d="M324 645.5q47 -32.5 81 -79t34 -84.5q0 -94 -79 -152q28 -15 58.5 -24t52.5 -9q52 0 91.5 10.5t69.5 34.5l1 -133q-46 -21 -105 -21q-45 0 -95.5 25.5t-114.5 89.5q-13 -8 -52 -26q-57 -28 -84.5 -49.5t-28.5 -55.5q0 -41 25 -67t56 -26q39 0 80 16l-30 69
q14 16 40.5 26.5t49.5 10.5q42 0 65 -24t23 -58q0 -26 -15 -50t-41 -43l120 -150l-95 -49l-76 174q-26 -10 -59 -10q-59 0 -118.5 35.5t-97.5 92t-38 112.5q0 43 40 74.5t117 70.5q-61 32 -97 70.5t-36 76.5q0 48 25 83.5t65.5 53.5t87.5 18q33 0 80 -32.5zM589 577v-21
h-106l-46 91v22h103zM209.5 554.5q-32.5 -21.5 -32.5 -61.5q0 -19 19.5 -46t49.5 -47q51 28 79 55.5t28 61.5q0 20 -24 39.5t-46 19.5q-41 0 -73.5 -21.5z" />
    <glyph glyph-name="uni0915094D0937094D0930" horiz-adv-x="962" 
d="M324 645.5q47 -32.5 81 -79t34 -84.5q0 -85 -63 -139q65 -16 145 -16q52 0 110.5 17t109.5 45v167h-122l-46 91v22h340l49 -92v-21h-87v-593h-23l-111 63l8 99l-1 1l-163 -126l-75 81l231 163v12q-81 -39 -164 -39q-49 0 -112 21t-137 71q-32 -18 -63 -33
q-56 -27 -83.5 -48.5t-28.5 -55.5q0 -41 25 -67t56 -26q39 0 80 16l-30 69q14 16 40.5 26.5t49.5 10.5q42 0 65 -24t23 -58q0 -26 -15 -50t-41 -43l120 -150l-95 -49l-76 174q-26 -10 -59 -10q-59 0 -118.5 35.5t-97.5 92t-38 112.5q0 43 40 74.5t117 70.5q-61 32 -97 70.5
t-36 76.5q0 48 25 83.5t65.5 53.5t87.5 18q33 0 80 -32.5zM209.5 554.5q-32.5 -21.5 -32.5 -61.5q0 -19 19.5 -46t49.5 -47q51 28 79 55.5t28 61.5q0 20 -24 39.5t-46 19.5q-41 0 -73.5 -21.5z" />
    <glyph glyph-name="uni0915094D0072" horiz-adv-x="636" 
d="M685 577v-21h-160v-164q39 23 76 23q50 0 88 -19t70 -53l-52 -71q-2 2 -12.5 15t-26 21t-32.5 8q-28 0 -53.5 -13.5t-57.5 -40.5v-299h-22l-118 66l13 130l-3 1l-277 -246l-89 102l138 95q-55 20 -88.5 68t-33.5 118q0 47 17.5 88.5t54 67.5t90.5 26q55 0 101.5 -36
t79.5 -89h1v202h-398l-47 91v22h692zM173 348q-34 -10 -57 -29.5t-23 -45.5q0 -25 31 -43.5t76 -18.5q88 0 188 73v6q-20 24 -63 46t-87 22q-31 0 -65 -10z" />
    <glyph glyph-name="uni0916094D0930" horiz-adv-x="880" 
d="M880 577v-21h-89v-593h-23l-111 63l2 38l-1 1l-413 -208l-84 92l132 58q-79 48 -185 184l-22 28q-32 42 -44 62.5t-12 40.5q0 22 17.5 44.5t36.5 33.5l59 -31q8 14 14 40.5t6 56.5q0 32 -7 90h-165l-47 91v22h887zM277 556q14 -79 14 -147q0 -64 -35 -116.5t-83 -97.5
q30 -40 84.5 -77t113.5 -37q70 0 152.5 33t136.5 81v29l-1 1q-38 -29 -72 -46t-69 -17q-45 0 -87 23.5t-67.5 65t-25.5 94.5q0 51 23 90.5t62 60.5t85 21q41 0 76 -26.5t72 -67.5h1v133h-380zM458.5 394.5q-33.5 -12.5 -53 -33t-19.5 -43.5q0 -19 27 -34.5t70 -15.5
q41 0 88.5 26t84.5 66v2q-24 22 -58.5 33.5t-64.5 11.5q-41 0 -74.5 -12.5z" />
    <glyph glyph-name="uni0916094D0072" horiz-adv-x="619" 
d="M668 577v-21h-391q14 -79 14 -147q0 -64 -35 -116.5t-83 -97.5q30 -40 84.5 -77t113.5 -37q61 0 132.5 25.5t127.5 64.5l49 -96l-435 -218l-84 92l132 58q-79 48 -185 184l-22 28q-32 42 -44 62.5t-12 40.5q0 22 17.5 44.5t36.5 33.5l59 -31q8 14 14 40.5t6 56.5
q0 32 -7 90h-165l-47 91v22h675zM596 492.5q41 -24.5 65.5 -67t24.5 -93.5q0 -39 -20.5 -78.5t-59 -65.5t-88.5 -26q-45 0 -87 23.5t-67.5 65t-25.5 94.5q0 51 23 90.5t62 60.5t85 21q47 0 88 -24.5zM458.5 394.5q-33.5 -12.5 -53 -33t-19.5 -43.5q0 -19 27 -34.5t70 -15.5
q26 0 63 12.5t63.5 34t26.5 45.5q0 23 -33 35t-70 12q-41 0 -74.5 -12.5z" />
    <glyph glyph-name="uni0917094D0928" horiz-adv-x="658" 
d="M662 577v-21h-90v-593h-23l-112 63v170l-153 -128l58 -68q-20 -24 -44 -37t-59 -13q-47 0 -74 29.5t-27 69.5q0 63 93 121q33 21 95 54.5t111 57.5v274h-202q8 -47 16 -110t8 -88q0 -51 -20.5 -88t-86.5 -37q-37 0 -63 22.5t-38.5 54t-12.5 58.5q0 29 5 52l99 -13v149
h-151l-47 91v22h668z" />
    <glyph glyph-name="uni0917094D0930" horiz-adv-x="662" 
d="M662 577v-21h-90v-593h-23l-112 63v142l-2 1l-245 -207l-75 90l322 252v252h-202q8 -47 16 -110t8 -88q0 -51 -20.5 -88t-86.5 -37q-37 0 -63 22.5t-38.5 54t-12.5 58.5q0 29 5 52l99 -13v149h-151l-47 91v22h668z" />
    <glyph glyph-name="uni0917094D0072" horiz-adv-x="325" 
d="M238.5 270q-20.5 -37 -86.5 -37q-37 0 -63 22.5t-38.5 54t-12.5 58.5q0 29 5 52l99 -13v149h-151l-47 91v22h381l50 -92v-21h-140q8 -47 16 -110t8 -88q0 -51 -20.5 -88zM435 169l-245 -207l-75 90l296 232z" />
    <glyph glyph-name="uni0918094D0930" horiz-adv-x="687" 
d="M687 577v-21h-90v-593h-22l-114 63l3 112l-1 1l-252 -225l-91 98l106 81q-38 16 -72 47q-30 29 -48 62t-18 59q0 41 17.5 78t47.5 64q-69 28 -102 54.5t-34 69.5q0 7 2 29h-28l-47 91v22h694zM150 556q-15 -22 -15 -52q3 -31 72 -65q28 12 57 12q67 0 93 -13l16 -93
l-10 -23q-26 10 -53 10q-43 0 -76.5 -15.5t-51.5 -38.5t-18 -45q0 -21 26 -34t54 -13q51 0 112 28.5t107 68.5v273h-313z" />
    <glyph glyph-name="uni0918094D0072" horiz-adv-x="457" 
d="M506 577v-21h-356q-15 -22 -15 -52q3 -31 72 -65q28 12 57 12q67 0 93 -13l16 -93l-10 -23q-26 10 -53 10q-43 0 -76.5 -15.5t-51.5 -38.5t-18 -45q0 -25 27 -41t57 -16q46 0 99.5 20.5t100.5 52.5t73 65l47 -117l-357 -283l-91 98l126 74q-61 17 -108 71
q-23 26 -36.5 54t-13.5 50q0 41 17.5 78t47.5 64q-69 28 -102 54.5t-34 69.5q0 7 2 29h-28l-47 91v22h513z" />
    <glyph glyph-name="uni0919094D0915" horiz-adv-x="734" 
d="M294 -259v74l-2 2q-54 -38 -101 -38q-44 0 -79 23.5t-54.5 62t-19.5 83.5q0 35 15 66.5t40 50.5t54 19q41 0 79.5 -22t66.5 -58l1 100q-67 19 -136 73t-137 138l37 37q78 -91 137.5 -124t123.5 -33q38 0 78.5 8t67.5 21.5t27 26.5q1 27 -22 48q-25 -4 -79 -18
q-46 -12 -77 -18t-57 -6t-63 20.5t-64 51.5t-27 62q0 116 116 116h136v49h-365l-46 91v22h742l48 -92v-21h-266v-142h-226q-38 0 -51 -5.5t-13 -17.5q0 -16 10.5 -29.5t20.5 -13.5q26 0 55.5 6.5t74.5 19.5q6 2 36.5 10t48.5 8q28 0 57.5 -25t49 -64t19.5 -77
q0 -47 -41 -83.5t-102 -47.5v-63q49 32 96 32q32 0 61 -19.5t46.5 -54.5t17.5 -78q0 -73 -40 -165l-90 50l12 17q33 47 50 77.5t17 54.5q0 12 -9 20.5t-29 8.5q-26 0 -56 -12.5t-76 -49.5v-223h-23zM534 393l112 111l111 -111l-111 -112zM293 -62q-20 19 -46.5 31t-54.5 12
q-44 0 -75.5 -17t-31.5 -45q0 -19 16 -28t43 -9q76 0 149 56z" />
    <glyph glyph-name="uni0919094D0915094D" horiz-adv-x="734" 
d="M493 43q40 0 69.5 -16.5t59.5 -49.5l-45 -61q-41 38 -68 38q-20 0 -44 -11.5t-58 -45.5v-208h-23l-90 51v74l-2 2q-54 -38 -102 -38q-44 0 -79 23.5t-54.5 62t-19.5 83.5q0 35 15 66.5t40 50.5t54 19q41 0 79.5 -22t66.5 -58l1 100q-67 20 -136 74t-137 138l37 37
q78 -91 137.5 -124t123.5 -33q38 0 78.5 8t67.5 21.5t27 26.5q1 27 -22 48q-25 -4 -79 -18q-46 -12 -77 -18t-57 -6t-63 20.5t-64 51.5t-27 62q0 116 116 116h136v49h-365l-46 91v22h742l48 -92v-21h-266v-142h-226q-38 0 -51 -5.5t-13 -17.5q0 -16 10.5 -29.5t20.5 -13.5
q26 0 55.5 6.5t74.5 19.5q6 2 36.5 10t48.5 8q28 0 57.5 -25t49 -64t19.5 -77q0 -47 -41 -83.5t-102 -47.5v-81q43 30 87 30v-1zM757 392l-111 -112l-112 112l112 111zM293 -63q-20 19 -46.5 31t-54.5 12q-44 0 -75.5 -17t-31.5 -45q0 -19 16 -28t43 -9q76 0 149 56z" />
    <glyph glyph-name="uni0919094D0915094D0937" horiz-adv-x="734" 
d="M734 556h-266v-142h-226q-38 0 -51 -5.5t-13 -17.5q0 -16 10.5 -29.5t20.5 -13.5q26 0 55.5 6.5t74.5 19.5q6 2 36.5 10t48.5 8q28 0 57.5 -25t49 -63.5t19.5 -75.5q0 -45 -34 -79v-459h-23l-90 51v152q-34 -17 -65 -17q-26 0 -70 13.5t-92 36.5q-48 -20 -71.5 -37
t-23.5 -47q0 -11 14 -19t37 -8q17 0 30 2.5t31 8.5l-18 41q11 8 27 12.5t26 4.5q33 0 54.5 -18t21.5 -45q0 -32 -35 -55l63 -87l-63 -31l-42 97q-33 -11 -56 -11q-30 0 -74.5 22.5t-77 57t-32.5 70.5q0 30 27.5 48.5t78.5 38.5q-87 57 -87 99q0 25 18.5 47.5t47.5 36.5
t56 14t62 -22.5t59.5 -56t24.5 -64.5q0 -39 -33 -64q28 -2 44 -2q56 0 118 41v95q-16 -3 -35 -3q-82 0 -171 57.5t-176 165.5l37 37q78 -91 137.5 -124t123.5 -33q38 0 78.5 8t67.5 21.5t27 26.5q1 27 -22 48q-25 -4 -79 -18q-46 -12 -77 -18t-57 -6t-63 20.5t-64 51.5
t-27 62q0 116 116 116h136v49h-365l-46 91v22h742l48 -92v-21zM757 393l-111 -112l-112 112l112 111zM136 -11q28 13 43 27t15 34q0 18 -10 27.5t-23 9.5q-30 0 -46.5 -12t-16.5 -30q0 -33 38 -56z" />
    <glyph glyph-name="uni0919094D0916" horiz-adv-x="734" 
d="M734 577v-21h-266v-142h-226q-38 0 -51 -5.5t-13 -17.5q0 -16 10.5 -29.5t20.5 -13.5q26 0 55.5 6.5t74.5 19.5q6 2 36.5 10t48.5 8q28 0 57.5 -25t49 -63.5t19.5 -75.5q0 -27 -14 -53v-485h-23l-90 51v29q-37 -19 -75 -30t-69 -11q-38 0 -97.5 42.5t-98.5 83.5
q-37 38 -54 62t-17 46q0 16 8.5 30.5t23.5 24.5h2l42 -26q11 11 18.5 26.5t7.5 30.5q0 78 -33 198q-27 28 -60 68l37 37q78 -91 137.5 -124t123.5 -33q38 0 78.5 8t67.5 21.5t27 26.5q1 27 -22 48q-25 -4 -79 -18q-46 -12 -77 -18t-57 -6t-63 20.5t-64 51.5t-27 62
q0 116 116 116h136v49h-365l-46 91v22h742zM757 393l-111 -112l-112 112l112 111zM195 76.5q5 -31.5 5 -67.5q0 -42 -20 -74.5t-52 -65.5q35 -29 67.5 -45t77.5 -16q32 0 71 14.5t79 39.5v31q-47 -41 -87 -41q-25 0 -52 17t-45 44t-18 55q0 46 30 78t71 32q24 0 52 -13.5
t49 -29.5v63q-25 -6 -55 -6q-90 0 -188 69q10 -53 15 -84.5zM316 -13q-21 -9 -34 -22.5t-13 -24.5q0 -15 29 -15q27 0 60 15.5t62 37.5v1q-30 17 -60 17q-23 0 -44 -9z" />
    <glyph glyph-name="uni0919094D0917" horiz-adv-x="734" 
d="M425 391q28 0 57.5 -25t49 -64t19.5 -77q0 -32 -19.5 -60t-53.5 -47v-429h-23l-90 51v351q-69 2 -145 44q23 -124 23 -183q0 -47 -16.5 -81t-68.5 -34q-39 0 -66 21t-40 50t-13 54q0 19 6 45l98 -16v198q-63 52 -122 126l37 37q78 -91 137.5 -124t123.5 -33q38 0 78.5 8
t67.5 21.5t27 26.5q1 27 -22 48q-25 -4 -79 -18q-46 -12 -77 -18t-57 -6t-63 20.5t-64 51.5t-27 62q0 116 116 116h136v49h-365l-46 91v22h742l48 -92v-21h-266v-142h-226q-38 0 -51 -5.5t-13 -17.5q0 -16 10.5 -29.5t20.5 -13.5q26 0 55.5 6.5t74.5 19.5q6 2 36.5 10
t48.5 8zM758 392l-111 -112l-112 112l112 111z" />
    <glyph glyph-name="uni0919094D0918" horiz-adv-x="734" 
d="M734 577v-21h-266v-142h-226q-38 0 -51 -5.5t-13 -17.5q0 -16 10.5 -29.5t20.5 -13.5q26 0 55.5 6.5t74.5 19.5q6 2 36.5 10t48.5 8q28 0 57.5 -25t49 -63.5t19.5 -75.5q0 -53 -47 -91v-447h-23l-90 51v77q-58 -39 -110 -39q-26 0 -49.5 11.5t-57.5 34.5q-74 53 -74 103
q0 29 16 54t41 44q-49 20 -77 43t-28 57q0 28 11.5 50t39.5 50q-39 37 -81 89l37 37q78 -91 137.5 -124t123.5 -33q38 0 78.5 8t67.5 21.5t27 26.5q1 27 -22 48q-25 -4 -79 -18q-46 -12 -77 -18t-57 -6t-63 20.5t-64 51.5t-27 62q0 116 116 116h136v49h-365l-46 91v22h742z
M757 393l-111 -112l-112 112l112 111zM155 102q0 -33 42 -53q27 10 44 10q29 0 68 -15l26 -61l-10 -25q-9 1 -15 2t-10 2q-30 4 -37 4q-23 0 -43 -11t-32.5 -26.5t-12.5 -27.5q0 -14 17 -21.5t36 -7.5q32 0 78.5 22t83.5 54v145q-7 -1 -22 -1q-89 0 -185 67q-28 -23 -28 -57
z" />
    <glyph glyph-name="uni0919094D092E" horiz-adv-x="1022" 
d="M1022 577v-21h-90v-866h-22l-111 63v159h-261q-18 -75 -85 -75q-37 0 -63.5 22.5t-40.5 54.5t-14 58q0 29 5 52h71v69q-9 -1 -26 -1q-82 0 -171 57.5t-176 165.5l37 37q78 -91 137.5 -124t123.5 -33q38 0 78.5 8t67.5 21.5t27 26.5q1 27 -22 48q-25 -4 -79 -18
q-46 -12 -77 -18t-57 -6t-63 20.5t-64 51.5t-27 62q0 116 116 116h136v49h-365l-46 91v22h1013zM485 556v-142h-226q-38 0 -51 -5.5t-13 -17.5q0 -16 10.5 -29.5t20.5 -13.5q26 0 55.5 6.5t74.5 19.5q6 2 36.5 10t48.5 8q28 0 57.5 -25t49 -63.5t19.5 -75.5t-24 -67v-137
h256v532h-314zM753 373l-92 -93l-93 93l93 92z" />
    <glyph glyph-name="uni0919094D0930" horiz-adv-x="787" 
d="M787 577v-21h-300v-191h-260q-70 0 -70 -57q0 -17 10.5 -37t21.5 -20q32 0 62 7t69 20q36 11 54.5 15.5t36.5 4.5q30 0 61.5 -28t52 -73t20.5 -92q-1 -83 -38.5 -130.5t-103.5 -51.5l91 -88l-59 -48l-144 145l-181 -142l-83 78l177 112q-98 57 -187 156l37 37
q73 -76 137.5 -106.5t147.5 -30.5q34 0 69.5 10t59.5 30.5t24 50.5q0 16 -12 33t-32 25q-22 -1 -42.5 -6.5t-53.5 -16.5q-39 -13 -62 -19t-49 -5t-64.5 30.5t-66.5 75t-28 92.5q0 142 112 142h160v78h-364l-46 91v22h795zM670 424l111 -111l-111 -112l-112 112z" />
    <glyph glyph-name="uni091A094D091A" horiz-adv-x="977" 
d="M977 577v-21h-90v-593h-22l-119 66l9 89l-1 1q-32 -23 -67.5 -36.5t-67.5 -13.5q-58 0 -113 43q-15 12 -26 24q-94 -67 -168 -67q-77 0 -145 73q-29 30 -44 57.5t-15 60.5q0 38 14 76h-69l-47 91v22h661l49 -92v-21h-135q-33 -20 -56 -52t-23 -57q0 -27 15.5 -40
t37.5 -13q48 0 101 24.5t97 58.5v299h-762l-47 91v22h984zM218 284q-23 -32 -23 -57q0 -27 15.5 -40t37.5 -13q41 0 84.5 17t84.5 45q-2 16 -2 24q0 38 14 76h-155q-33 -20 -56 -52z" />
    <glyph glyph-name="uni091A094D0930" horiz-adv-x="670" 
d="M670 577v-21h-90v-593h-22l-119 66l9 89l-1 1l-230 -205l-91 98l104 79q-31 18 -63 51q-29 30 -44 57.5t-15 60.5q0 38 14 76h-69l-47 91v22h354l49 -92v-21h-135q-33 -20 -56 -52t-23 -57q0 -27 15.5 -40t37.5 -13q48 0 101 24.5t97 58.5v299h-455l-47 91v22h677z" />
    <glyph glyph-name="uni091B094D0930" horiz-adv-x="845" 
d="M623 557v-95q52 -24 84.5 -69t33.5 -109q0 -55 -41 -120q47 -26 73 -61t26 -84q0 -36 -16.5 -90t-36.5 -95l-125 86q44 39 73 74.5t29 67.5q0 15 -14 28.5t-41 27.5q-52 -65 -125 -111t-143 -55l178 -172l-59 -48l-144 145l-181 -142l-83 78l221 141q-56 10 -105 43.5
t-78 74.5t-29 73q0 51 26 93q-32 15 -53.5 28.5t-40 38t-18.5 58.5q0 57 44 91t108 34q23 0 46 -5.5t32 -10.5l33 -96q-13 5 -41.5 11.5t-45.5 6.5q-26 0 -42 -18t-16 -49t26 -51q36 33 76 33q38 0 78 -7l36 -99l-10 -23q-29 10 -61 10q-31 0 -54 -10.5t-35.5 -26.5
t-12.5 -31q0 -27 31 -47.5t69 -20.5q57 0 130.5 31.5t125.5 83.5q-74 35 -123.5 90t-49.5 118q0 45 30.5 72t79.5 33v74h-497l-47 91v22h852l49 -92v-21zM525.5 266.5q24.5 -35.5 61.5 -53.5q36 52 36 109q0 31 -19.5 54t-51.5 23q-22 0 -36.5 -15t-14.5 -44
q0 -38 24.5 -73.5z" />
    <glyph glyph-name="uni091B094D0935" horiz-adv-x="790" 
d="M790 577v-21h-190v-37q44 -23 72 -67t28 -107q0 -47 -43 -100q51 -22 76 -56.5t25 -95.5q0 -24 -9 -55t-24 -60l-115 66q30 22 51 47t21 46t-16 35t-49 30l-21 -18v-494h-23l-90 51v56q-55 -33 -110 -33q-37 0 -71 18.5t-55 52t-21 78.5q0 41 15.5 73t40.5 50t53 18
q41 0 80 -23t68 -55v141q-84 -35 -160 -34q-36 1 -84.5 31.5t-83.5 71.5t-35 70q0 24 9 43q-40 19 -67.5 46t-27.5 70q0 51 44 82t108 31q23 0 46 -5.5t32 -10.5l33 -95q-39 18 -87 18q-26 0 -42 -16t-16 -40q0 -20 10 -34q19 17 43.5 27t48.5 11q38 0 78 -7l36 -73l-10 -23
q-29 10 -61 10q-48 -4 -75 -19t-27 -37t22 -35t63 -13q49 0 111 19t112 51q-51 33 -83.5 76t-32.5 88q0 51 27.5 80.5t72.5 36.5v19h-496l-47 91v22h797zM504.5 439.5q-14.5 -13.5 -14.5 -42.5q0 -27 16.5 -55t42.5 -49q48 46 48 96q0 26 -15.5 45t-40.5 19
q-22 0 -36.5 -13.5zM323.5 -59q-24.5 -10 -37.5 -25t-13 -30q0 -14 14.5 -21.5t33.5 -7.5q33 0 79.5 18.5t83.5 45.5q-41 30 -103 30q-33 0 -57.5 -10z" />
    <glyph glyph-name="uni091C094D091E094D" horiz-adv-x="543" 
d="M592 556h-602l-46 91v22h599l49 -92v-21zM153 319q0 -10 8 -21.5t15 -11.5q28 0 48.5 4.5t53.5 13.5q17 5 34.5 9.5t33.5 4.5q26 0 53.5 -28t45 -73t17.5 -92q0 -48 -27.5 -86.5t-70.5 -61t-89 -25.5l88 -130l-95 -49l-51 182q-48 7 -84.5 26t-56.5 45.5t-20 54.5
q1 33 24.5 50.5t50.5 17.5q8 0 14 -2l56 -82q49 0 97.5 10.5t80 29.5t31.5 42q0 21 -11 39t-24 26q-13 -1 -52 -16q-61 -23 -85 -23t-62.5 26.5t-67.5 67t-29 80.5q0 142 112 142h526v-113h-494q-70 0 -70 -57z" />
    <glyph glyph-name="uni091C094D091C" horiz-adv-x="1047" 
d="M1047 577v-21h-90v-593h-22l-111 63v319h-176q90 -88 90 -166q0 -72 -40.5 -113.5t-101.5 -41.5q-56 0 -103.5 32.5t-84.5 89.5q-21 -25 -51 -38.5t-65 -13.5q-108 0 -176.5 101t-96.5 245l45 13q34 -108 80 -172t120 -64q40 0 66.5 16t26.5 45q0 30 -28.5 65t-76.5 69
l21 46h551v98h-833l-47 91v22h1054zM395 345q44 -55 44 -106v-11q56 -81 129 -81q40 0 64 18t24 53q0 56 -84 127h-177z" />
    </font>
</defs>
</svg>
